<?xml version="1.0" encoding="utf-8"?>
<!-- Generator: Adobe Illustrator 26.1.0, SVG Export Plug-In . SVG Version: 6.00 Build 0)  -->
<svg version="1.1" id="Ebene_1" xmlns="http://www.w3.org/2000/svg" xmlns:xlink="http://www.w3.org/1999/xlink" x="0px" y="0px"
	 viewBox="0 0 1000 1000" style="enable-background:new 0 0 1000 1000;" xml:space="preserve">
<style type="text/css">
	.st0{fill:#E6312D;}
	.st1{fill:#FFFFFF;}
</style>
<path class="st0" d="M948.5,888.2c0,33.3-27,60.3-60.3,60.3H111.8c-33.3,0-60.3-27-60.3-60.3V111.8c0-33.3,27-60.3,60.3-60.3h776.4
	c33.3,0,60.3,27,60.3,60.3V888.2z"/>
<g>
	<path class="st1" d="M329.4,307.3c0-29.7,23.5-53.2,53.2-53.2h144.3c115.3,0,185.1,68.4,185.1,167.1v1.4
		c0,111.9-87,169.9-195.4,169.9h-80.8v100.1c0,29.7-23.5,53.2-53.2,53.2c-29.7,0-53.2-23.5-53.2-53.2V307.3z M520,497.9
		c53.2,0,84.2-31.8,84.2-73.2v-1.4c0-47.7-33.1-73.2-86.3-73.2h-82.2v147.8H520z"/>
</g>
<g>
</g>
<g>
</g>
<g>
</g>
<g>
</g>
<g>
</g>
<g>
</g>
<g>
</g>
<g>
</g>
<g>
</g>
<g>
</g>
<g>
</g>
<g>
</g>
<g>
</g>
<g>
</g>
<g>
</g>
</svg>
