<?xml version="1.0" encoding="utf-8"?>
<!-- Generator: Adobe Illustrator 19.2.0, SVG Export Plug-In . SVG Version: 6.00 Build 0)  -->
<svg version="1.1" id="Layer_1" xmlns="http://www.w3.org/2000/svg" x="0px" y="0px"
     viewBox="0 0 40 40" style="enable-background:new 0 0 40 40;" xml:space="preserve">
<path d="M35.7,12.4h-5.2V12c0-5.6-4.5-10-10-10h-0.6C14.3,2,9.8,6.5,9.8,12v0.4H4.6L2,38.3h36.3L35.7,12.4z M12.4,12
	c0-4.1,3.4-7.4,7.5-7.4h0.6h0c4.1,0,7.4,3.3,7.4,7.4v0.4H12.4V12z M4.9,35.7l2-20.8h2.9v2.9c-0.8,0.4-1.3,1.3-1.3,2.2
	c0,1.4,1.2,2.6,2.6,2.6s2.6-1.2,2.6-2.6c0-1-0.5-1.8-1.3-2.2V15H28v2.9c-0.8,0.4-1.3,1.3-1.3,2.2c0,1.4,1.2,2.6,2.6,2.6
	s2.6-1.2,2.6-2.6c0-1-0.5-1.8-1.3-2.2V15h2.9l2,20.8H4.9z"/>
</svg>
