<?xml version="1.0" encoding="UTF-8"?>
<svg width="7px" height="7px" viewBox="0 0 7 7" version="1.1" xmlns="http://www.w3.org/2000/svg" xmlns:xlink="http://www.w3.org/1999/xlink">
    <title>Icon / Arrow / Ext</title>
    <g id="02-Style-Guide" stroke="none" stroke-width="1" fill="none" fill-rule="evenodd">
        <g id="04-Icons-&amp;-UI-Elements" transform="translate(-1571.000000, -1335.000000)" fill="#000000" fill-rule="nonzero">
            <g id="Path" transform="translate(1571.000000, 1335.000000)">
                <path d="M2.41012437,0.00805566941 L2.5,0 L6.51154077,0.000132376874 C6.53240118,0.0006109983 6.55323734,0.00238749635 6.57391777,0.00546187104 L6.5,0 L6.5534276,0.00282096186 L6.62814577,0.0166082551 L6.69103656,0.0377922373 L6.76701032,0.0771880058 L6.82213721,0.117583716 L6.85355339,0.146446609 L6.89103898,0.188337752 L6.93325257,0.250234852 L6.96238944,0.3094049 L6.98338918,0.371860863 L6.99791201,0.454213822 L7,0.5 L7,4.5 C7,4.77614237 6.77614237,5 6.5,5 C6.25454011,5 6.05039163,4.82312484 6.00805567,4.58987563 L6,4.5 L6,1.706 L0.853553391,6.85355339 C0.658291245,7.04881554 0.341708755,7.04881554 0.146446609,6.85355339 C-0.0271197425,6.67998704 -0.0464048927,6.41056264 0.0885911588,6.2156945 L0.146446609,6.14644661 L5.292,1 L2.5,1 C2.22385763,1 2,0.776142375 2,0.5 C2,0.254540111 2.17687516,0.0503916296 2.41012437,0.00805566941 Z"></path>
            </g>
        </g>
    </g>
</svg>