<?xml version="1.0" encoding="utf-8"?>
<!-- Generator: Adobe Illustrator 15.0.0, SVG Export Plug-In . SVG Version: 6.00 Build 0)  -->
<!DOCTYPE svg PUBLIC "-//W3C//DTD SVG 1.1//EN" "http://www.w3.org/Graphics/SVG/1.1/DTD/svg11.dtd">
<svg version="1.1" id="Layer_1" xmlns="http://www.w3.org/2000/svg" xmlns:xlink="http://www.w3.org/1999/xlink" x="0px" y="0px"
	 width="52px" height="14px" viewBox="0 0 52 14" enable-background="new 0 0 52 14" xml:space="preserve">
<title>Paypal Color</title>
<g id="Paypal-Color">
	<g>
		<path id="Combined-Shape" fill="#263B80" d="M13.563,3.59c1.151,0,1.955,0.342,2.412,1.025c0.051-0.564,0.194-0.846,0.432-0.846
			h1.93c0.102,0,0.186,0.043,0.254,0.128c0.067,0.085,0.093,0.179,0.076,0.282l-1.041,6.692c-0.051,0.326-0.237,0.488-0.559,0.488
			h-1.752c-0.22,0-0.33-0.137-0.33-0.41c0-0.154,0.034-0.334,0.102-0.539c-0.304,0.342-0.71,0.615-1.218,0.82
			s-0.999,0.309-1.473,0.309c-0.982,0-1.764-0.299-2.348-0.898C9.462,10.043,9.17,9.24,9.17,8.23c0-1.247,0.427-2.333,1.282-3.256
			C11.307,4.051,12.344,3.59,13.563,3.59z M14.019,5.667c-0.626,0-1.151,0.218-1.574,0.654c-0.423,0.436-0.635,0.97-0.635,1.603
			c0,0.479,0.148,0.854,0.444,1.128c0.296,0.273,0.689,0.41,1.181,0.41c0.626,0,1.155-0.209,1.587-0.628
			c0.431-0.419,0.647-0.944,0.647-1.577c0-0.496-0.157-0.885-0.469-1.167C14.886,5.808,14.493,5.667,14.019,5.667z"/>
		<path id="Combined-Shape_1_" fill="#263B80" d="M6.25,0C7.3,0,8.15,0.227,8.802,0.679C9.454,1.133,9.78,1.863,9.78,2.872
			c0,1.47-0.415,2.62-1.244,3.449C7.706,7.15,6.563,7.564,5.108,7.564c-0.051,0-0.169-0.009-0.355-0.025
			C4.566,7.521,4.405,7.514,4.27,7.514S3.991,7.525,3.839,7.551s-0.28,0.082-0.381,0.168C3.356,7.804,3.297,7.915,3.28,8.052
			l-0.457,2.82c-0.034,0.325-0.22,0.487-0.559,0.487h-1.93c-0.102,0-0.186-0.043-0.253-0.129c-0.068-0.085-0.094-0.18-0.076-0.281
			l1.65-10.462C1.689,0.163,1.867,0,2.188,0H6.25z M4.931,2.282H4.448c-0.187,0-0.296,0.094-0.33,0.282L3.687,5.308l0.838-0.025
			c0.66,0,1.167-0.094,1.523-0.282c0.355-0.188,0.575-0.581,0.66-1.179c0.102-0.632,0-1.047-0.304-1.244
			C6.099,2.381,5.607,2.282,4.931,2.282z"/>
		<path id="Path" fill="#263B80" d="M21.991,14h-1.955c-0.22,0-0.33-0.111-0.33-0.334c0-0.136,0.693-1.162,2.082-3.076
			c-0.017-0.068-0.216-0.667-0.597-1.795c-0.355-1.051-0.71-2.103-1.066-3.154c-0.33-0.975-0.495-1.479-0.495-1.513
			c0-0.085,0.034-0.167,0.102-0.243c0.067-0.077,0.144-0.116,0.228-0.116h1.904c0.288,0,0.474,0.137,0.559,0.411l1.117,3.846
			l2.691-4c0.118-0.17,0.271-0.256,0.457-0.256h1.955c0.085,0,0.161,0.039,0.229,0.116c0.068,0.077,0.102,0.158,0.102,0.243
			c0,0.086-0.017,0.146-0.051,0.18l-6.474,9.437C22.33,13.915,22.177,14,21.991,14L21.991,14z"/>
		<path id="Combined-Shape_2_" fill="#139AD6" d="M35.092,0c1.049,0,1.899,0.227,2.551,0.679c0.652,0.454,0.978,1.184,0.978,2.193
			c0,1.47-0.415,2.62-1.243,3.449c-0.83,0.829-1.973,1.244-3.428,1.244c-0.051,0-0.17-0.009-0.355-0.025
			c-0.187-0.018-0.348-0.025-0.482-0.025c-0.136,0-0.279,0.012-0.432,0.037S32.4,7.633,32.299,7.719
			c-0.102,0.085-0.161,0.196-0.178,0.333l-0.457,2.974c-0.068,0.223-0.203,0.334-0.406,0.334h-2.082
			c-0.102,0-0.187-0.043-0.254-0.129c-0.068-0.085-0.094-0.18-0.076-0.281l1.65-10.462C30.529,0.163,30.716,0,31.055,0H35.092z
			 M33.771,2.282h-0.457c-0.187,0-0.297,0.094-0.33,0.282l-0.432,2.744l0.813-0.025c0.744,0,1.303-0.128,1.676-0.385
			C35.412,4.641,35.6,4.154,35.6,3.436c0-0.342-0.102-0.603-0.305-0.782c-0.203-0.18-0.416-0.286-0.635-0.321
			C34.439,2.299,34.143,2.282,33.771,2.282z"/>
		<path id="Combined-Shape_3_" fill="#139AD6" d="M42.402,3.59c1.169,0,1.973,0.342,2.412,1.025
			c0.051-0.564,0.195-0.846,0.432-0.846h1.93c0.102,0,0.186,0.043,0.254,0.128s0.094,0.179,0.076,0.282l-1.041,6.692
			c-0.051,0.326-0.236,0.488-0.559,0.488h-1.751c-0.221,0-0.331-0.137-0.331-0.41c0-0.068,0.018-0.172,0.052-0.309
			c0.033-0.137,0.051-0.213,0.051-0.23c-0.288,0.342-0.686,0.615-1.193,0.82s-1.007,0.309-1.498,0.309
			c-0.981,0-1.765-0.299-2.349-0.898c-0.584-0.598-0.875-1.4-0.875-2.41c0-1.247,0.426-2.333,1.281-3.256
			C40.147,4.051,41.185,3.59,42.402,3.59z M42.859,5.667c-0.625,0-1.15,0.218-1.573,0.654c-0.423,0.436-0.635,0.97-0.635,1.603
			c0,0.479,0.152,0.854,0.457,1.128s0.702,0.41,1.192,0.41c0.609,0,1.131-0.213,1.563-0.641s0.646-0.949,0.646-1.564
			c0-0.496-0.156-0.885-0.469-1.167C43.727,5.808,43.334,5.667,42.859,5.667z"/>
		<path id="Path_1_" fill="#139AD6" d="M52,0.384l-1.65,10.488c-0.034,0.325-0.212,0.487-0.533,0.487h-1.676
			c-0.102,0-0.186-0.039-0.254-0.115c-0.067-0.077-0.102-0.158-0.102-0.244l0.025-0.051l1.65-10.667C49.494,0.094,49.604,0,49.791,0
			h1.879C51.89,0,52,0.12,52,0.359V0.384L52,0.384z"/>
	</g>
</g>
</svg>
