<svg viewBox="0 0 12 12" version="1.1" xmlns="http://www.w3.org/2000/svg" xmlns:xlink="http://www.w3.org/1999/xlink">    
    <g id="01-Design" stroke="none" stroke-width="1" fill="none" fill-rule="evenodd">
        <g id="07-[1440]-PDP-—-Video-Player-Inset-—-Paused" transform="translate(-1309.000000, -718.000000)" fill="#FFFFFF">
            <g id="Player" transform="translate(119.000000, 715.000000)">
                <g id="Icon-/-Fullscreen-/-Enter" transform="translate(1190.000000, 3.000000)">
                    <path d="M11.5,7 C11.776,7 12,7.224 12,7.5 L12,7.5 L12,10 C12,11.105 11.105,12 10,12 L10,12 L7.5,12 C7.224,12 7,11.776 7,11.5 C7,11.224 7.224,11 7.5,11 L7.5,11 L10,11 C10.551,11 11,10.551 11,10 L11,10 L11,7.5 C11,7.224 11.224,7 11.5,7 Z M0.5,7 C0.776,7 1,7.224 1,7.5 L1,10 C1,10.551 1.449,11 2,11 L4.5,11 C4.776,11 5,11.224 5,11.5 C5,11.776 4.776,12 4.5,12 L2,12 C0.895,12 0,11.105 0,10 L0,7.5 C0,7.224 0.224,7 0.5,7 Z M4.5,0 C4.776,0 5,0.224 5,0.5 C5,0.776 4.776,1 4.5,1 L4.5,1 L2,1 C1.449,1 1,1.449 1,2 L1,2 L1,4.5 C1,4.776 0.776,5 0.5,5 C0.224,5 0,4.776 0,4.5 L0,4.5 L0,2 C0,0.895 0.895,0 2,0 L2,0 Z M10,0 C11.105,0 12,0.895 12,2 L12,4.5 C12,4.776 11.776,5 11.5,5 C11.224,5 11,4.776 11,4.5 L11,2 C11,1.449 10.551,1 10,1 L7.5,1 C7.224,1 7,0.776 7,0.5 C7,0.224 7.224,0 7.5,0 L10,0 Z" id="Fullscreen-Icon"></path>
                </g>
            </g>
        </g>
    </g>
</svg>