<svg viewBox="0 0 16 12" version="1.1" xmlns="http://www.w3.org/2000/svg" xmlns:xlink="http://www.w3.org/1999/xlink">    
    <g id="01-Design" stroke="none" stroke-width="1" fill="none" fill-rule="evenodd">
        <g id="05-[375]-PDP-—-Video-Player-Fulscreen-—-Volume-Active" transform="translate(-307.000000, -480.000000)" fill="#FFFFFF">
            <g id="Player" transform="translate(20.000000, 477.000000)">
                <g id="Icon-/-Volume-/-Active" transform="translate(287.000000, 3.000000)">
                    <path d="M8.424,0 C8.718,0 9,0.226 9,0.567 L9,0.567 L9,11.432 C9,11.773 8.718,12 8.424,12 C8.283,12 8.14,11.948 8.023,11.833 L8.023,11.833 L4,9 L1.144,9 C0.512,9 0,8.492 0,7.866 L0,7.866 L0,4.133 C0,3.507 0.512,3 1.144,3 L1.144,3 L4,3 L8.023,0.167 C8.14,0.051 8.283,0 8.424,0 Z M8,1.406 L4.576,3.817 L4.317,4 L1.144,4 C1.065,4 1,4.059 1,4.133 L1,4.133 L1,7.866 C1,7.94 1.065,8 1.144,8 L1.144,8 L4.317,8 L4.576,8.182 L8,10.593 L8,1.406 Z M12.8336,2.7421 C12.9276,2.4811 13.2176,2.3461 13.4726,2.4371 C15.3856,3.1161 16.4236,5.1631 15.8366,7.0991 C15.4856,8.2541 14.6246,9.1521 13.4736,9.5621 C13.4176,9.5821 13.3616,9.5901 13.3056,9.5901 C13.0996,9.5901 12.9076,9.4631 12.8336,9.2581 C12.7416,8.9981 12.8776,8.7111 13.1376,8.6191 C13.9876,8.3171 14.6216,7.6571 14.8796,6.8081 C15.3106,5.3851 14.5456,3.8791 13.1386,3.3801 C12.8776,3.2881 12.7426,3.0011 12.8336,2.7421 Z M11.5286,4.2756 C11.6226,4.0156 11.9116,3.8816 12.1676,3.9716 C13.2556,4.3576 13.8466,5.5226 13.5126,6.6256 C13.3126,7.2836 12.8226,7.7946 12.1676,8.0266 C12.1126,8.0476 12.0556,8.0566 12.0006,8.0566 C11.7946,8.0566 11.6016,7.9286 11.5296,7.7236 C11.4366,7.4636 11.5726,7.1776 11.8336,7.0856 C12.1856,6.9596 12.4496,6.6866 12.5556,6.3346 C12.7346,5.7456 12.4176,5.1216 11.8336,4.9146 C11.5726,4.8216 11.4366,4.5356 11.5286,4.2756 Z"></path>
                </g>
            </g>
        </g>
    </g>
</svg>