<?xml version="1.0" encoding="utf-8"?>
<!-- Generator: Adobe Illustrator 15.0.0, SVG Export Plug-In . SVG Version: 6.00 Build 0)  -->
<!DOCTYPE svg PUBLIC "-//W3C//DTD SVG 1.1//EN" "http://www.w3.org/Graphics/SVG/1.1/DTD/svg11.dtd">
<svg version="1.1" id="Layer_1" xmlns="http://www.w3.org/2000/svg" xmlns:xlink="http://www.w3.org/1999/xlink" x="0px" y="0px"
	 width="120px" height="20px" viewBox="0 0 120 20" enable-background="new 0 0 120 20" xml:space="preserve">
<title>Combination 03 — Desktop — B&amp;W</title>
<g id="Combination-03-_x2014_-Desktop-_x2014_-B_x26_W">
	<g id="Visa-Black" transform="translate(0.000000, 5.000000)">
		<path id="Visa-Black-Icon" d="M9.29,0L6.616,7.061L6.365,5.77L6.344,5.715L5.479,1.027c-0.108-0.569-0.487-0.854-1.13-0.854
			L0,0.198l0.006,0.385c0.851,0.181,1.749,0.354,2.467,0.66c0.214,0.089,0.364,0.29,0.425,0.516L5.159,10h2.595l4.142-10H9.29z
			 M10.923,10h2.605l1.633-10h-2.605L10.923,10z M22.698,0.409C22.02,0.132,21.293-0.007,20.561,0c-1.176,0-2.136,0.298-2.88,0.892
			s-1.133,1.362-1.133,2.31c-0.01,1.026,0.684,1.903,2.081,2.625c0.457,0.232,0.777,0.438,0.96,0.621
			c0.184,0.183,0.273,0.372,0.273,0.586c0,0.313-0.146,0.534-0.432,0.696c-0.287,0.162-0.616,0.241-0.986,0.241
			c-0.824,0-1.569-0.167-2.239-0.497l-0.317-0.166l-0.33,2.175c0.708,0.339,1.589,0.514,2.652,0.514
			c1.244,0.011,2.238-0.286,2.989-0.891c0.739-0.577,1.167-1.473,1.153-2.417c0-1.067-0.666-1.941-2.006-2.625
			c-0.467-0.252-0.808-0.461-1.017-0.625s-0.316-0.363-0.316-0.575c0-0.221,0.118-0.417,0.351-0.583
			c0.232-0.167,0.569-0.25,1.009-0.25c0.666-0.01,1.26,0.109,1.777,0.363l0.206,0.12l0.333-2.097L22.698,0.409z M29.035,0.166
			h-1.847c-0.618,0-1.05,0.274-1.264,0.816L22.351,9.86h2.525l0.509-1.45h3.089l0.289,1.45H31l-1.957-9.694H29.035z M26.072,6.254
			l0.958-2.702l0.044-0.135l0.146-0.393l0.132-0.394l0.172,0.83l0.55,2.793H26.072L26.072,6.254z"/>
	</g>
	<g id="Mastercard-Black" transform="translate(51.000000, 0.000000)">
		<path id="Mastercard" d="M4.563,18.896c0-0.37,0.262-0.674,0.691-0.674c0.41,0,0.687,0.291,0.687,0.674
			c0,0.382-0.277,0.672-0.687,0.672C4.826,19.568,4.563,19.266,4.563,18.896z M6.409,18.896v-1.052H5.913V18.1
			c-0.157-0.189-0.396-0.308-0.72-0.308c-0.639,0-1.139,0.462-1.139,1.104c0,0.642,0.5,1.104,1.139,1.104
			c0.325,0,0.563-0.119,0.72-0.309v0.256h0.496V18.896z M23.154,18.896c0-0.37,0.263-0.674,0.691-0.674
			c0.41,0,0.688,0.291,0.688,0.674c0,0.382-0.277,0.672-0.688,0.672C23.417,19.568,23.154,19.266,23.154,18.896z M25,18.896V17
			h-0.496v1.1c-0.157-0.189-0.396-0.308-0.72-0.308c-0.64,0-1.14,0.462-1.14,1.104c0,0.642,0.5,1.104,1.14,1.104
			c0.324,0,0.563-0.119,0.72-0.309v0.256H25V18.896z M12.56,18.201c0.319,0,0.524,0.185,0.577,0.51h-1.183
			C12.006,18.408,12.207,18.201,12.56,18.201z M12.569,17.792c-0.668,0-1.135,0.448-1.135,1.104c0,0.668,0.485,1.104,1.168,1.104
			c0.343,0,0.658-0.08,0.935-0.295l-0.243-0.338c-0.19,0.141-0.435,0.219-0.663,0.219c-0.319,0-0.61-0.136-0.682-0.514h1.693
			c0.004-0.058,0.009-0.115,0.009-0.176C13.646,18.24,13.208,17.792,12.569,17.792z M18.553,18.896c0-0.37,0.263-0.674,0.691-0.674
			c0.41,0,0.688,0.291,0.688,0.674c0,0.382-0.277,0.672-0.688,0.672C18.815,19.568,18.553,19.266,18.553,18.896z M20.398,18.896
			v-1.052h-0.496V18.1c-0.156-0.189-0.396-0.308-0.72-0.308c-0.639,0-1.14,0.462-1.14,1.104c0,0.642,0.501,1.104,1.14,1.104
			c0.324,0,0.563-0.119,0.72-0.309v0.256h0.496V18.896z M15.754,18.896c0,0.637,0.482,1.104,1.217,1.104
			c0.344,0,0.572-0.07,0.82-0.251l-0.239-0.369c-0.187,0.123-0.382,0.188-0.596,0.188c-0.396-0.004-0.687-0.268-0.687-0.672
			c0-0.405,0.291-0.669,0.687-0.674c0.214,0,0.409,0.066,0.596,0.189l0.239-0.369c-0.248-0.181-0.477-0.251-0.82-0.251
			C16.236,17.792,15.754,18.258,15.754,18.896z M22.145,17.792c-0.287,0-0.473,0.123-0.602,0.308v-0.255h-0.491v2.103h0.496v-1.18
			c0-0.347,0.162-0.54,0.486-0.54c0.101,0,0.205,0.013,0.31,0.053l0.152-0.431C22.387,17.81,22.244,17.792,22.145,17.792z
			 M8.859,18.012c-0.238-0.145-0.567-0.22-0.93-0.22c-0.577,0-0.949,0.255-0.949,0.673c0,0.343,0.276,0.555,0.787,0.62l0.234,0.03
			c0.271,0.035,0.4,0.102,0.4,0.221c0,0.162-0.182,0.255-0.52,0.255c-0.343,0-0.591-0.101-0.758-0.22L6.89,19.727
			C7.162,19.912,7.505,20,7.877,20c0.658,0,1.039-0.286,1.039-0.687c0-0.369-0.3-0.563-0.796-0.629l-0.234-0.03
			C7.672,18.627,7.5,18.588,7.5,18.447c0-0.154,0.162-0.246,0.434-0.246c0.291,0,0.572,0.102,0.71,0.18L8.859,18.012z
			 M15.254,17.792c-0.286,0-0.473,0.123-0.602,0.308v-0.255h-0.49v2.103h0.496v-1.18c0-0.347,0.162-0.54,0.486-0.54
			c0.1,0,0.205,0.013,0.309,0.053l0.153-0.431C15.496,17.81,15.354,17.792,15.254,17.792z M11.024,17.845h-0.812v-0.638h-0.5v0.638
			H9.25v0.418h0.462v0.958c0,0.488,0.205,0.779,0.791,0.779c0.215,0,0.463-0.063,0.621-0.162l-0.144-0.393
			c-0.147,0.08-0.31,0.119-0.438,0.119c-0.248,0-0.33-0.141-0.33-0.352v-0.95h0.812V17.845z M3.614,19.947v-1.32
			c0-0.496-0.343-0.83-0.896-0.835c-0.291-0.005-0.592,0.079-0.801,0.374c-0.158-0.233-0.405-0.374-0.753-0.374
			c-0.243,0-0.481,0.065-0.667,0.312v-0.259H0v2.103h0.501v-1.166c0-0.365,0.219-0.559,0.558-0.559c0.329,0,0.496,0.198,0.496,0.555
			v1.17h0.501v-1.166c0-0.365,0.229-0.559,0.558-0.559c0.338,0,0.5,0.198,0.5,0.555v1.17H3.614L3.614,19.947z"/>
		<circle id="Oval" cx="8.5" cy="7.5" r="7.5"/>
		<circle id="Oval_1_" fill="#AEAEAE" fill-opacity="0.7" cx="17.5" cy="7.5" r="7.5"/>
	</g>
	<g id="Maestro-Black" transform="translate(96.000000, 0.000000)">
		<path id="Maestro" d="M20.659,17.624l0.005,0.007c0.18,0,0.357,0.029,0.523,0.09c0.16,0.057,0.305,0.142,0.428,0.249
			c0.121,0.106,0.217,0.233,0.282,0.374c0.137,0.303,0.137,0.641,0,0.941c-0.065,0.141-0.161,0.269-0.282,0.375
			c-0.123,0.107-0.268,0.192-0.428,0.25c-0.345,0.12-0.728,0.12-1.072,0c-0.159-0.058-0.303-0.143-0.425-0.25
			c-0.12-0.107-0.216-0.234-0.28-0.375c-0.137-0.301-0.137-0.639,0-0.941c0.064-0.14,0.16-0.268,0.28-0.374
			c0.122-0.107,0.266-0.192,0.425-0.249C20.287,17.656,20.473,17.623,20.659,17.624z M13.504,17.626
			c0.357-0.011,0.711,0.071,1.019,0.235l-0.243,0.396c-0.24-0.124-0.51-0.19-0.786-0.192c-0.298,0-0.476,0.099-0.476,0.264
			c0,0.164,0.188,0.192,0.424,0.221l0.262,0.033c0.545,0.07,0.874,0.277,0.874,0.673s-0.419,0.735-1.139,0.735
			c-0.386,0.009-0.765-0.094-1.081-0.293l0.262-0.381c0.24,0.16,0.533,0.243,0.832,0.235c0.372,0,0.571-0.099,0.571-0.272
			c0-0.128-0.142-0.198-0.44-0.236L13.32,19.01c-0.561-0.07-0.863-0.296-0.863-0.663C12.457,17.899,12.865,17.626,13.504,17.626z
			 M16.01,17v0.683h0.887v0.447H16.01v1.015c0,0.235,0.088,0.377,0.361,0.377c0.17-0.006,0.336-0.049,0.481-0.127l0.157,0.418
			c-0.205,0.115-0.44,0.176-0.682,0.175c-0.644,0-0.869-0.311-0.869-0.833V18.13h-0.508v-0.447h0.508V17H16.01z M10.802,17.631
			c0.699,0,1.187,0.471,1.187,1.177c0,0.066,0,0.125-0.008,0.184l0,0h-1.856c0.042,0.336,0.374,0.58,0.749,0.552
			c0.265-0.004,0.521-0.087,0.728-0.236l0,0l0.262,0.363c-0.286,0.214-0.651,0.326-1.023,0.314c-0.724,0.01-1.317-0.51-1.327-1.16
			C9.501,18.174,10.079,17.641,10.802,17.631z M7.694,17.629C8,17.618,8.293,17.74,8.48,17.958l0,0v-0.272h0.549v1.122l-0.005,1.118
			H8.48v-0.273C8.293,19.87,8,19.993,7.694,19.982c-0.724,0-1.31-0.527-1.31-1.177C6.385,18.155,6.971,17.629,7.694,17.629z
			 M18.779,17.626c0.132,0.001,0.264,0.021,0.388,0.062l-0.168,0.471c-0.108-0.039-0.224-0.059-0.341-0.057
			c-0.355,0-0.523,0.207-0.523,0.579v1.259h-0.544v-2.248h0.539v0.273c0.136-0.21,0.39-0.336,0.659-0.329L18.779,17.626z
			 M4.984,17.626c0.268-0.014,0.527,0.075,0.715,0.247c0.188,0.17,0.285,0.406,0.268,0.646l0,0v1.412H5.42v-1.25
			c0-0.382-0.179-0.593-0.551-0.593c-0.174-0.008-0.344,0.055-0.461,0.17c-0.119,0.115-0.174,0.271-0.151,0.428l0,0v1.245h-0.55
			v-1.25c0-0.382-0.184-0.593-0.545-0.593c-0.175-0.01-0.345,0.053-0.464,0.168c-0.118,0.115-0.173,0.273-0.148,0.43l0,0v1.245H2
			v-2.248h0.545v0.278c0.16-0.221,0.439-0.348,0.732-0.335c0.337-0.013,0.654,0.141,0.828,0.4
			C4.295,17.759,4.633,17.605,4.984,17.626z M20.659,18.088l0.005,0.014c-0.106-0.001-0.213,0.017-0.312,0.052
			c-0.093,0.034-0.178,0.084-0.249,0.148c-0.072,0.067-0.128,0.147-0.164,0.235c-0.08,0.188-0.08,0.396,0,0.584
			c0.036,0.088,0.092,0.168,0.164,0.235c0.071,0.063,0.156,0.114,0.249,0.148c0.2,0.069,0.421,0.069,0.62,0
			c0.098-0.032,0.188-0.083,0.262-0.148c0.073-0.067,0.129-0.147,0.166-0.235c0.08-0.188,0.08-0.396,0-0.584
			c-0.037-0.088-0.093-0.168-0.166-0.235c-0.074-0.065-0.164-0.116-0.262-0.148C20.875,18.113,20.768,18.09,20.659,18.088z
			 M7.789,18.168c-0.41-0.014-0.76,0.271-0.783,0.64l0,0c-0.02,0.189,0.055,0.375,0.199,0.513c0.146,0.137,0.35,0.213,0.561,0.208
			c0.411-0.002,0.745-0.3,0.752-0.669C8.524,18.488,8.201,18.182,7.789,18.168z M10.783,18.066
			c-0.346-0.007-0.636,0.233-0.656,0.544l0,0l1.291,0.002c-0.004-0.147-0.072-0.288-0.191-0.391S10.948,18.063,10.783,18.066z"/>
		<circle id="Oval_2_" cx="7.5" cy="7.5" r="7.5"/>
		<circle id="Oval_3_" fill="#AEAEAE" fill-opacity="0.7" cx="16.5" cy="7.5" r="7.5"/>
	</g>
</g>
</svg>
