<?xml version="1.0" encoding="utf-8"?>
<!-- Generator: Adobe Illustrator 15.0.0, SVG Export Plug-In . SVG Version: 6.00 Build 0)  -->
<!DOCTYPE svg PUBLIC "-//W3C//DTD SVG 1.1//EN" "http://www.w3.org/Graphics/SVG/1.1/DTD/svg11.dtd">
<svg version="1.1" id="Layer_1" xmlns="http://www.w3.org/2000/svg" xmlns:xlink="http://www.w3.org/1999/xlink" x="0px" y="0px"
	 width="20px" height="20px" viewBox="0 0 20 20" enable-background="new 0 0 20 20" xml:space="preserve">
<title>296DE5E3-4DA2-4032-B347-050C8677DF83</title>
<desc>Created with sketchtool.</desc>
<g id="Page-1">
	<g id="Style-guide_Mobile" transform="translate(-290.000000, -5703.000000)">
		<g id="_x30_4_x5F_Icons" transform="translate(139.000000, 5149.000000)">
			<g id="SOCIAL" transform="translate(0.000000, 554.000000)">
				<path id="instagram" fill="#202020" d="M165.149,0c1.692,0,3.184,0.564,4.231,1.653c1.048,1.048,1.612,2.5,1.612,4.192l0,0
					v8.303c0,1.733-0.564,3.225-1.652,4.272c-1.048,1.008-2.499,1.572-4.231,1.572l0,0h-8.224c-1.653,0-3.104-0.524-4.192-1.572
					c-1.128-1.089-1.693-2.579-1.693-4.313l0,0V5.845C151,2.338,153.338,0,156.845,0l0,0H165.149z M169.221,14.148V5.845
					c0-1.169-0.403-2.177-1.088-2.903c-0.728-0.725-1.735-1.088-2.943-1.088l0,0h-8.304c-1.209,0-2.258,0.363-2.943,1.048
					c-0.725,0.726-1.088,1.733-1.088,2.943l0,0v8.263c0,1.249,0.363,2.257,1.088,2.982c0.726,0.685,1.734,1.049,2.943,1.049l0,0
					h8.224c1.208,0,2.216-0.364,2.94-1.049C168.776,16.405,169.221,15.397,169.221,14.148 M160.997,4.797
					c2.822,0,5.161,2.338,5.161,5.16s-2.299,5.16-5.161,5.16s-5.159-2.298-5.159-5.16S158.175,4.797,160.997,4.797z M160.997,6.651
					c-1.814,0-3.305,1.492-3.305,3.306s1.491,3.305,3.305,3.305s3.305-1.491,3.305-3.305S162.811,6.651,160.997,6.651z
					 M166.357,3.507c0.646,0,1.169,0.523,1.169,1.169c0,0.645-0.522,1.169-1.169,1.169s-1.168-0.524-1.168-1.169
					C165.189,4.031,165.711,3.507,166.357,3.507z"/>
			</g>
		</g>
	</g>
</g>
</svg>
