<?xml version="1.0" encoding="utf-8"?>
<!-- Generator: Adobe Illustrator 15.0.0, SVG Export Plug-In . SVG Version: 6.00 Build 0)  -->
<!DOCTYPE svg PUBLIC "-//W3C//DTD SVG 1.1//EN" "http://www.w3.org/Graphics/SVG/1.1/DTD/svg11.dtd">
<svg version="1.1" id="Layer_1" xmlns="http://www.w3.org/2000/svg" xmlns:xlink="http://www.w3.org/1999/xlink" x="0px" y="0px"
	 width="24px" height="20px" viewBox="0 0 24 20" enable-background="new 0 0 24 20" xml:space="preserve">
<title>393FFAD5-22EB-41E8-9F1C-AD8C061F74E0</title>
<desc>Created with sketchtool.</desc>
<g id="Page-1">
	<g id="Style-guide_Mobile" transform="translate(-495.000000, -5703.000000)">
		<g id="_x30_4_x5F_Icons" transform="translate(139.000000, 5149.000000)">
			<g id="SOCIAL" transform="translate(0.000000, 554.000000)">
				<path id="Shape-1" fill="#202020" d="M379.797,2.547c-0.867,0.393-1.801,0.657-2.78,0.776c1-0.61,1.767-1.576,2.128-2.728
					c-0.935,0.565-1.971,0.976-3.073,1.197c-0.883-0.958-2.141-1.557-3.532-1.557c-2.674,0-4.841,2.208-4.841,4.93
					c0,0.386,0.043,0.763,0.125,1.124c-4.023-0.206-7.59-2.168-9.978-5.151c-0.417,0.728-0.655,1.575-0.655,2.479
					c0,1.71,0.854,3.22,2.153,4.104c-0.793-0.026-1.54-0.248-2.192-0.617c0,0.021,0,0.042,0,0.063c0,2.388,1.668,4.38,3.883,4.834
					c-0.406,0.112-0.834,0.173-1.275,0.173c-0.313,0-0.615-0.031-0.911-0.089c0.616,1.959,2.404,3.384,4.522,3.424
					c-1.657,1.323-3.744,2.11-6.012,2.11c-0.39,0-0.775-0.023-1.154-0.068c2.143,1.398,4.687,2.215,7.42,2.215
					c8.904,0,13.772-7.512,13.772-14.027c0-0.213-0.005-0.427-0.014-0.638C378.328,4.404,379.148,3.536,379.797,2.547z"/>
			</g>
		</g>
	</g>
</g>
</svg>
