<?xml version="1.0" encoding="utf-8"?>
<!-- Generator: Adobe Illustrator 15.0.0, SVG Export Plug-In . SVG Version: 6.00 Build 0)  -->
<!DOCTYPE svg PUBLIC "-//W3C//DTD SVG 1.1//EN" "http://www.w3.org/Graphics/SVG/1.1/DTD/svg11.dtd">
<svg version="1.1" id="Layer_1" xmlns="http://www.w3.org/2000/svg" xmlns:xlink="http://www.w3.org/1999/xlink" x="0px" y="0px"
	 width="21px" height="20px" viewBox="0 0 21 20" enable-background="new 0 0 21 20" xml:space="preserve">
<title>3278D96D-37C8-46FD-A16E-C80A6E6F76D4</title>
<desc>Created with sketchtool.</desc>
<g id="Page-1">
	<g id="Style-guide_Mobile" transform="translate(-424.000000, -5703.000000)">
		<g id="_x30_4_x5F_Icons" transform="translate(139.000000, 5149.000000)">
			<g id="SOCIAL" transform="translate(0.000000, 554.000000)">
				<path id="Shape-3" fill="#202020" d="M295.632,19.925c-0.054,0-0.107-0.001-0.16-0.004l0,0
					c-0.034,0.003-0.069,0.004-0.104,0.004c-1.24,0-2.037-0.568-2.806-1.117c-0.532-0.38-1.033-0.738-1.625-0.838
					c-0.288-0.048-0.575-0.072-0.853-0.072c-0.5,0-0.894,0.078-1.182,0.135c-0.175,0.035-0.326,0.064-0.44,0.064
					c-0.12,0-0.25-0.026-0.306-0.221c-0.049-0.169-0.084-0.332-0.119-0.49c-0.088-0.407-0.15-0.657-0.319-0.684
					c-1.967-0.307-2.53-0.725-2.656-1.022c-0.018-0.042-0.028-0.085-0.03-0.127c-0.006-0.114,0.074-0.215,0.185-0.233
					c3.024-0.503,4.38-3.625,4.437-3.758c0.001-0.004,0.003-0.007,0.005-0.011c0.185-0.378,0.221-0.708,0.108-0.977
					c-0.208-0.495-0.884-0.712-1.332-0.855c-0.11-0.035-0.214-0.068-0.296-0.101c-0.894-0.357-0.968-0.724-0.933-0.91
					c0.06-0.318,0.481-0.54,0.821-0.54c0.094,0,0.176,0.017,0.245,0.049c0.402,0.19,0.765,0.287,1.078,0.287
					c0.432,0,0.621-0.184,0.644-0.208c-0.011-0.207-0.025-0.423-0.039-0.646c-0.09-1.444-0.202-3.239,0.25-4.263
					c1.355-3.07,4.23-3.309,5.079-3.309c0.022,0,0.372-0.004,0.372-0.004h0.05c0.851,0,3.732,0.239,5.089,3.311
					c0.452,1.025,0.34,2.821,0.25,4.264l-0.004,0.063c-0.012,0.201-0.024,0.396-0.035,0.583c0.021,0.022,0.195,0.191,0.588,0.207
					l0,0c0.298-0.012,0.64-0.107,1.016-0.285c0.109-0.052,0.232-0.063,0.314-0.063c0.128,0,0.257,0.025,0.363,0.07l0.007,0.003
					c0.304,0.109,0.503,0.324,0.507,0.548c0.004,0.211-0.156,0.53-0.94,0.843c-0.081,0.032-0.185,0.065-0.295,0.101
					c-0.448,0.144-1.126,0.361-1.333,0.855c-0.113,0.269-0.076,0.598,0.108,0.977c0.001,0.004,0.003,0.007,0.005,0.011
					c0.057,0.133,1.411,3.254,4.437,3.758c0.112,0.019,0.191,0.119,0.185,0.233c-0.002,0.042-0.012,0.086-0.03,0.128
					c-0.124,0.295-0.688,0.713-2.655,1.02c-0.16,0.025-0.223,0.236-0.318,0.68c-0.035,0.162-0.07,0.32-0.119,0.488
					c-0.042,0.145-0.131,0.212-0.281,0.212h-0.025c-0.104,0-0.252-0.019-0.439-0.056c-0.334-0.066-0.707-0.127-1.182-0.127
					c-0.278,0-0.565,0.024-0.854,0.072c-0.591,0.1-1.092,0.457-1.623,0.836C297.669,19.356,296.874,19.925,295.632,19.925z"/>
			</g>
		</g>
	</g>
</g>
</svg>
