<?xml version="1.0" encoding="utf-8"?>
<!-- Generator: Adobe Illustrator 15.0.0, SVG Export Plug-In . SVG Version: 6.00 Build 0)  -->
<!DOCTYPE svg PUBLIC "-//W3C//DTD SVG 1.1//EN" "http://www.w3.org/Graphics/SVG/1.1/DTD/svg11.dtd">
<svg version="1.1" id="Layer_1" xmlns="http://www.w3.org/2000/svg" xmlns:xlink="http://www.w3.org/1999/xlink" x="0px" y="0px"
	 width="21px" height="20px" viewBox="0 0 21 20" enable-background="new 0 0 21 20" xml:space="preserve">
<title>16842706-1F40-4A5B-B53F-D8B2861CE69E</title>
<desc>Created with sketchtool.</desc>
<g id="Page-1">
	<g id="Style-guide_Mobile" transform="translate(-569.000000, -5703.000000)">
		<g id="_x30_4_x5F_Icons" transform="translate(139.000000, 5149.000000)">
			<g id="SOCIAL" transform="translate(0.000000, 554.000000)">
				<path id="youtube" fill="#202020" d="M446.958,9.532c2.053,0,3.718,1.674,3.718,3.738l0,0v3.004
					c0,2.064-1.665,3.739-3.718,3.739l0,0h-12.916c-2.053,0-3.718-1.675-3.718-3.739l0,0V13.27c0-2.063,1.665-3.738,3.718-3.738l0,0
					H446.958z M445.987,12.563c-0.461,0-0.836,0.14-1.126,0.423c-0.292,0.281-0.439,0.65-0.439,1.098l0,0v2.325
					c0,0.499,0.134,0.893,0.397,1.176c0.266,0.283,0.629,0.425,1.091,0.425c0.513,0,0.899-0.131,1.155-0.398
					c0.259-0.271,0.388-0.671,0.388-1.202l0,0v-0.266h-1.059v0.236c0,0.305-0.036,0.501-0.102,0.591
					c-0.07,0.09-0.188,0.134-0.359,0.134c-0.164,0-0.28-0.053-0.35-0.158c-0.067-0.105-0.1-0.295-0.1-0.566l0,0v-0.977h1.969v-1.319
					c0-0.491-0.127-0.866-0.379-1.13C446.821,12.692,446.459,12.563,445.987,12.563z M440.147,12.688h-1.029v3.935
					c-0.097,0.113-0.203,0.205-0.32,0.279c-0.116,0.072-0.212,0.107-0.286,0.107c-0.097,0-0.167-0.025-0.212-0.081
					c-0.042-0.057-0.064-0.145-0.064-0.266l0,0V12.69h-1.029v4.328c0,0.311,0.062,0.538,0.181,0.694
					c0.122,0.155,0.299,0.231,0.539,0.231c0.193,0,0.392-0.052,0.598-0.166c0.206-0.107,0.403-0.268,0.594-0.477l0,0v0.566h1.029
					V12.688z M441.963,10.851h-1.042v7.018h1.042v-0.396c0.134,0.159,0.282,0.275,0.439,0.351c0.157,0.076,0.337,0.112,0.539,0.112
					c0.305,0,0.539-0.096,0.7-0.292c0.162-0.197,0.241-0.477,0.241-0.844l0,0l0,0v-2.872c0-0.426-0.085-0.749-0.259-0.969
					c-0.172-0.222-0.419-0.329-0.745-0.329c-0.16,0-0.319,0.04-0.476,0.122c-0.155,0.081-0.302,0.203-0.44,0.359l0,0V10.851z
					 M436.755,10.851h-3.561v1.02h1.2v5.998h1.16V11.87h1.201V10.851z M442.394,13.449c0.139,0,0.245,0.046,0.32,0.136
					c0.073,0.09,0.108,0.222,0.108,0.397l0,0v2.675c0,0.165-0.03,0.283-0.089,0.357c-0.059,0.073-0.151,0.109-0.277,0.109
					c-0.088,0-0.17-0.02-0.249-0.056c-0.08-0.036-0.162-0.1-0.244-0.184l0,0v-3.226c0.07-0.072,0.14-0.126,0.212-0.158
					C442.246,13.467,442.32,13.449,442.394,13.449z M445.943,13.467c0.157,0,0.273,0.049,0.342,0.145
					c0.072,0.09,0.109,0.245,0.109,0.463l0,0v0.524h-0.91v-0.524c0-0.218,0.033-0.373,0.106-0.463
					C445.662,13.513,445.779,13.467,445.943,13.467z M440.377,1.885c0.479,0,0.873,0.138,1.18,0.413
					c0.305,0.275,0.458,0.633,0.458,1.067l0,0v2.947c0,0.488-0.149,0.869-0.449,1.147c-0.301,0.278-0.714,0.417-1.241,0.417
					c-0.506,0-0.913-0.145-1.217-0.431c-0.304-0.288-0.456-0.672-0.456-1.157l0,0V3.333c0-0.444,0.156-0.794,0.467-1.056
					C439.43,2.016,439.85,1.885,440.377,1.885z M444.113,2.029v4.374c0,0.134,0.027,0.231,0.074,0.291
					c0.047,0.062,0.127,0.092,0.236,0.092c0.084,0,0.192-0.04,0.324-0.121c0.128-0.081,0.248-0.183,0.355-0.306l0,0v-4.33h1.159
					v5.704h-1.159V7.102c-0.212,0.232-0.434,0.41-0.667,0.532c-0.229,0.12-0.453,0.183-0.672,0.183c-0.27,0-0.469-0.086-0.605-0.257
					c-0.135-0.169-0.204-0.423-0.204-0.763l0,0V2.029H444.113z M435.494,0l0.847,3.091h0.082L437.23,0h1.326l-1.519,4.525v3.208
					h-1.305V4.669L434.179,0H435.494z M440.321,2.873c-0.142,0-0.256,0.037-0.346,0.114c-0.087,0.078-0.131,0.178-0.131,0.302h0
					v3.108c0,0.156,0.042,0.276,0.124,0.362c0.083,0.087,0.201,0.129,0.354,0.129c0.157,0,0.281-0.043,0.374-0.13
					c0.093-0.087,0.139-0.209,0.139-0.361l0,0V3.29c0-0.124-0.047-0.224-0.142-0.302C440.598,2.91,440.474,2.873,440.321,2.873z"/>
			</g>
		</g>
	</g>
</g>
</svg>
