<?xml version="1.0" standalone="no"?>
<!DOCTYPE svg PUBLIC "-//W3C//DTD SVG 1.1//EN" "http://www.w3.org/Graphics/SVG/1.1/DTD/svg11.dtd" >
<svg xmlns="http://www.w3.org/2000/svg" version="1.1">
<metadata>
Created by FontForge 20170924 at Fri Jan 15 12:29:12 2021
 By root
Copyright \(c\) 2018 by Sarid Ezra. All rights reserved.
</metadata>
<defs>
<font id="AurelieSmithDEMO" horiz-adv-x="350" >
  <font-face 
    font-family="Aurelie Smith DEMO"
    font-weight="400"
    font-stretch="normal"
    units-per-em="1000"
    panose-1="0 0 0 0 0 0 0 0 0 0"
    ascent="750"
    descent="-250"
    x-height="245"
    cap-height="607"
    bbox="-248.629 -327.632 870 667"
    underline-thickness="50"
    underline-position="-100"
    unicode-range="U+0020-007E"
  />
    <missing-glyph />
    <glyph glyph-name="space" unicode=" " horiz-adv-x="318" 
 />
    <glyph glyph-name="j" unicode="j" horiz-adv-x="118" 
d="M130 177l-7 -6c-19 -4 -34 -12 -50 -23c-45 -29 -33 -21 -77 -56l-12 -29c-23 -61 -48 -119 -87 -174c-12 -19 -28 -33 -44 -48c-12 -11 -26 -18 -42 -21l-15 -3c-28 6 -26 7 -42 23c-7 23 1 42 12 61c7 13 16 25 26 38c31 39 65 71 104 102c21 19 42 34 65 51
c10 8 16 18 19 29c7 25 19 55 26 80c3 8 4 16 11 21c7 3 13 0 16 -8c-11 -24 -21 -55 -26 -80c5 -5 8 -3 11 0c30 22 2 3 34 24c15 9 28 16 43 23c7 5 15 6 24 5c5 0 9 -3 11 -9zM-45 62c-9 -7 -15 -13 -23 -18c-40 -31 -76 -66 -111 -103c-13 -15 -25 -32 -36 -49
c-7 -9 -10 -21 -14 -32c-3 -8 -1 -15 6 -22l13 -4c25 3 44 15 60 32c7 7 15 16 22 25c37 51 62 106 85 163c0 3 -1 4 -2 8zM86 334l-35 -52l-17 11c8 21 20 35 35 50c3 3 7 1 11 2c3 -4 3 -7 6 -11z" />
    <glyph glyph-name="y" unicode="y" 
d="M17 126c25 8 45 22 64 39l83 72l11 9h18l5 -4c5 -8 6 -17 4 -27c-8 -28 -22 -82 -27 -112c-1 -4 -3 -8 0 -13c7 -3 10 3 14 6l87 58c19 12 39 23 62 30c9 3 17 4 26 2c1 -3 1 -7 4 -11c-3 -3 -3 -3 -6 -4c-27 -7 -51 -19 -74 -34c-45 -28 -89 -58 -130 -91l-15 -37
c-13 -35 -30 -66 -46 -97c-11 -21 -24 -38 -39 -57c-12 -16 -26 -28 -47 -37c-5 -1 -12 -2 -19 -1c-17 1 -27 11 -28 28c0 9 0 17 4 25c8 15 14 28 23 43c27 43 60 76 99 108c13 12 27 22 42 33c19 51 42 128 42 158c-13 -7 -21 -16 -32 -25c-23 -20 -46 -39 -70 -58
c-22 -16 -25 -17 -52 -25c-3 0 -4 0 -5 1l-14 5c-13 13 -14 28 -11 43c4 17 9 33 16 50c3 7 7 12 12 13c7 -1 10 -4 10 -11c-1 -7 -2 -14 -5 -21c-3 -15 -8 -28 -11 -43c-1 -4 -2 -8 5 -15zM-13 -159c11 -4 18 0 25 5c13 11 25 24 35 38c27 36 44 76 63 116c1 1 1 5 1 10
c-17 -15 -32 -30 -47 -45c-21 -21 -40 -43 -56 -68c-9 -13 -16 -28 -21 -44c-1 -4 0 -7 0 -12z" />
    <glyph glyph-name="g" unicode="g" horiz-adv-x="253" 
d="M102 161c-9 0 -13 -7 -18 -12c-20 -15 -39 -26 -66 -30c-1 0 -4 1 -9 2c-23 9 -30 24 -21 45l10 20c23 31 51 53 87 66c19 7 29 4 48 -11c4 -13 0 -28 13 -39l-12 -47l-15 -44c5 -4 6 -1 9 2c24 16 47 33 71 48c16 11 33 22 54 27c11 -3 18 -7 19 -20
c-23 -5 -41 -17 -60 -29c-39 -25 -76 -54 -113 -83l-31 -67c-23 -48 -46 -94 -75 -138c-19 -28 -38 -56 -63 -80c-12 -11 -26 -21 -42 -26c-4 -1 -8 -3 -13 -3c-31 -3 -45 16 -45 39c0 15 1 28 8 41c10 23 23 45 39 66c30 39 65 76 105 109c23 19 47 38 70 58
c7 5 13 10 20 17c11 27 20 53 29 79c1 3 0 7 0 10c3 1 6 0 3 4c-1 -1 -2 -3 -2 -4zM43 8l-2 -2c-8 0 -13 -6 -18 -11c-11 -7 -18 -16 -27 -24c-35 -29 -66 -61 -94 -97c-15 -19 -30 -39 -39 -63c-4 -9 -7 -20 -9 -31c-2 -7 1 -13 9 -16c15 0 27 7 38 18c13 11 24 22 33 34
c43 56 77 118 106 183c1 3 0 5 0 8c1 1 1 1 2 1h1zM11 145c5 0 10 -1 14 0l20 9c27 15 46 38 67 59c3 4 6 10 2 17c-3 0 -6 2 -9 1c-35 -12 -63 -33 -84 -63c-4 -7 -10 -12 -10 -23z" />
    <glyph glyph-name="n" unicode="n" 
d="M198 248l-3 3c-20 -16 -52 -43 -72 -60c-25 -20 -49 -41 -74 -62l-18 -13c-10 -8 -21 -10 -33 -7c-7 3 -11 9 -11 18c0 7 0 10 1 17c7 33 19 64 32 93c11 5 30 3 33 -4c0 -3 -1 -7 -2 -12c-8 -23 -16 -47 -23 -70c11 -11 62 51 90 69l68 56l20 13c10 3 18 2 23 -5
c8 -8 8 -17 5 -26c-1 -7 -4 -11 -7 -18c-9 -23 -19 -43 -28 -66c-5 -15 -8 -27 -12 -42c-3 -15 4 -33 19 -30c23 7 44 17 64 30c15 9 38 23 53 34c7 4 19 20 28 21c9 -1 9 -7 8 -16c-1 -3 -2 -5 -3 -5l-92 -63c-11 -7 -24 -14 -37 -19c-11 -4 -23 -5 -35 -4s-22 7 -29 19
c-10 15 -1 45 4 61c4 25 13 47 24 70z" />
    <glyph glyph-name="z" unicode="z" horiz-adv-x="328" 
d="M60 57c5 -3 8 -4 11 -4c11 -1 22 0 33 3c57 17 112 42 165 74c16 9 41 31 53 46l9 9c8 2 12 -1 13 -9c-7 -16 -28 -39 -43 -50s-29 -20 -44 -28c-41 -23 -84 -41 -128 -58c-21 -8 -43 -14 -70 -7l-16 15c-7 23 -2 40 6 59l26 49c7 13 15 26 22 41c4 7 6 14 9 21
c-3 6 -7 8 -12 7l-63 -3c-5 -1 -9 -3 -14 -2s-9 3 -14 6l2 11c35 7 68 15 104 8c4 -4 24 -4 28 -7c4 -13 6 -27 3 -38c-5 -11 -9 -21 -14 -30c-8 -16 -18 -32 -27 -48c-11 -19 -36 -38 -39 -65z" />
    <glyph glyph-name="q" unicode="q" horiz-adv-x="271" 
d="M2 -95c7 1 10 7 14 12c31 35 60 71 92 106c29 33 59 65 90 97c22 27 26 31 53 53c7 5 11 10 22 13c7 -3 15 -4 14 -15c-1 -3 -1 -4 -2 -5c-12 -7 -21 -15 -30 -24c-42 -42 -64 -68 -103 -112l-129 -154c-19 -23 -36 -47 -53 -70c-7 -8 -10 -15 -17 -22
c-5 -1 -9 -2 -11 -1c-9 3 -13 9 -12 16s2 12 5 19c37 97 76 194 119 290c4 9 10 17 9 28l2 2c0 -1 -1 -2 -1 -3c-6 -3 -11 -7 -16 -10c-23 -19 -34 -24 -61 -32c-1 1 -2 0 -5 1c-23 11 -29 20 -18 43l6 12c20 29 44 55 73 75c19 13 23 13 50 10c15 -7 18 -20 21 -36
c1 -17 -2 -34 -9 -51c-11 -25 -22 -49 -33 -76l-60 -139c-4 -9 -10 -17 -9 -28l-2 -2v1c0 1 1 1 1 2zM-14 120c12 3 21 7 28 13c12 11 24 20 35 31c15 13 27 26 40 41c1 1 1 2 2 5c-1 1 -1 3 -4 4c-1 1 -3 2 -5 2c-39 -15 -79 -55 -96 -96z" />
    <glyph glyph-name="x" unicode="x" horiz-adv-x="281" 
d="M66 150c7 -27 8 -54 31 -71c20 -8 37 -1 53 8c23 15 44 30 65 47l52 44c4 4 9 6 13 9c7 0 11 -2 12 -6c0 -3 1 -5 0 -6c-15 -13 -27 -27 -42 -40l-50 -42c-17 -15 -35 -28 -58 -37c-31 -12 -58 -4 -77 23c-8 10 -13 20 -16 29c-1 7 -3 11 -6 16c-7 3 -8 -2 -11 -5
c-29 -23 -51 -50 -74 -78l-6 -7c-7 -3 -12 -2 -15 5v5c9 17 20 31 33 44l48 49l19 19c-3 29 -9 56 2 83c5 4 10 4 16 -1c3 -17 3 -35 6 -54c7 -4 10 0 13 3l77 66c9 7 18 14 27 19c5 3 11 2 16 3c3 -4 4 -6 5 -9c-1 -4 -2 -6 -2 -6l-43 -36c-28 -24 -57 -47 -88 -74z" />
    <glyph glyph-name="u" unicode="u" horiz-adv-x="294" 
d="M125 169c-13 -16 -25 -33 -40 -48c-19 -21 -37 -39 -64 -47c-11 0 -19 4 -24 11c-7 9 -11 18 -10 28c3 37 8 73 27 108l9 10c5 0 8 0 9 -1l9 -14c-19 -21 -19 -47 -26 -72c-3 -11 -3 -21 -6 -32c0 -7 -1 -11 6 -15c7 0 12 4 17 7c25 17 44 41 63 65c16 21 30 43 45 66
c4 7 8 15 19 18c3 -3 8 -4 13 -7c5 -16 3 -31 -1 -47c-7 -20 -12 -40 -15 -61s-4 -21 4 -43l8 -6h6c20 7 36 19 51 32c19 17 36 35 53 52c7 5 11 10 16 14c9 2 15 -2 17 -11c-3 -3 -3 -5 -6 -8c-25 -27 -49 -52 -76 -77c-7 -7 -16 -11 -24 -18c-11 -7 -22 -8 -34 -7
c-14 0 -25 6 -33 17c-8 12 -14 24 -14 39s0 31 1 47z" />
    <glyph glyph-name="s" unicode="s" horiz-adv-x="242" 
d="M145 271c0 -4 0 -7 1 -8c-3 -1 -4 -3 -5 -3c-23 3 -42 -5 -59 -18c-12 -8 -22 -16 -33 -25c-12 -11 -21 -24 -24 -43c0 -9 4 -17 11 -24l12 -11c19 -15 32 -32 43 -53c7 -1 10 4 15 7l11 8l96 69c11 7 20 13 32 16c17 -9 17 -9 16 -25c-19 -7 -35 -19 -51 -31
c-39 -27 -75 -56 -112 -84c-15 -45 -42 -79 -78 -108c-7 -7 -16 -12 -25 -17c-13 -7 -25 -6 -35 5c-4 9 -4 19 0 32c27 43 67 74 108 106c0 6 -1 10 -2 13c-4 12 -11 21 -20 30c-11 9 -18 18 -29 29c-23 23 -23 59 -3 83c24 29 53 49 87 60c8 3 17 2 25 2c7 0 12 -5 19 -10z
" />
    <glyph glyph-name="e" unicode="e" horiz-adv-x="199" 
d="M-8 172c12 33 33 58 62 75c7 4 17 6 25 9c9 2 17 0 24 -5c13 -8 16 -19 9 -33c-4 -9 -10 -14 -17 -21c-20 -15 -42 -26 -66 -34c-3 0 -5 -2 -8 -3c-60 -140 118 -35 174 21c11 7 13 6 24 -5c-3 -4 -4 -10 -8 -13c-62 -43 -106 -97 -184 -97c-65 5 -51 61 -35 106zM91 234
c-20 -4 -34 -15 -46 -30c-3 -3 -7 -6 -3 -13c15 6 30 15 43 27c4 4 9 7 6 16z" />
    <glyph glyph-name="w" unicode="w" horiz-adv-x="310" 
d="M230 342c15 4 21 -2 28 -13c5 -21 -1 -40 -8 -59c-9 -27 -19 -53 -30 -77c-4 -11 -7 -21 -4 -32c4 -12 8 -24 20 -31c7 -3 12 -1 19 2c17 11 33 24 44 41l11 13c9 3 12 -2 15 -7c0 -3 0 -6 -1 -8c-9 -23 -25 -37 -44 -52c-7 -4 -11 -8 -18 -11c-27 -5 -32 -7 -67 25
c-10 -21 -9 -15 -20 -36c-7 -14 -15 -27 -23 -40c-7 -11 -17 -18 -30 -20c-11 3 -19 11 -24 24c-7 16 -10 32 -11 48c0 7 -1 12 -1 20c-29 -32 -44 -69 -73 -96c-15 0 -23 7 -25 22l-2 16c-3 40 4 78 13 117c3 11 6 21 13 29c5 3 10 2 14 -3c0 -4 0 -9 -1 -14
c-9 -29 -15 -56 -16 -87l-4 -41c0 -5 2 -9 7 -11l71 102c1 3 3 2 6 5c11 -1 11 -1 20 -10c0 -15 1 -30 0 -45c0 -16 3 -31 7 -46c1 -5 3 -8 6 -12c11 5 15 14 22 22c22 35 26 45 42 82c-7 37 -4 72 5 107c3 13 7 27 14 42c3 8 7 16 14 23c3 5 8 8 11 11zM219 245l2 10
c0 1 0 1 1 1h1c5 12 11 23 8 38c1 1 1 1 2 1s1 0 1 1c0 -1 -1 -2 -2 -3c-9 -10 -12 -23 -11 -38c-4 -2 -5 -5 -2 -10z" />
    <glyph glyph-name="t" unicode="t" horiz-adv-x="83" 
d="M35 321l2 12c-27 5 -45 -1 -68 -4c-21 -3 -42 -7 -65 -11l-10 9l9 10c8 5 15 7 21 8c23 5 46 8 69 12c17 3 36 4 56 7l8 16l36 68c5 8 9 15 18 18c7 -1 12 -5 13 -14c-13 -27 -30 -52 -41 -84c7 0 10 -1 14 -1c32 3 67 1 99 4c24 3 49 2 75 -3c7 -2 14 -5 20 -9
c9 -5 11 -13 7 -22c-4 1 -7 -1 -8 2c-12 9 -24 11 -37 11c-19 0 -36 -1 -55 -2l-32 -2c-31 -3 -63 -2 -94 -5l-8 -18c-15 -37 -25 -76 -36 -115c-15 -55 -26 -109 -34 -166c-4 -24 -3 -48 -6 -73c0 -7 2 -14 3 -21c3 -11 6 -18 6 -27c-3 -3 -4 -4 -5 -4c-3 3 -8 2 -9 5
c-4 9 -8 17 -11 26c-5 21 -6 43 -4 66c5 49 13 97 24 144c12 56 24 110 43 163z" />
    <glyph glyph-name="a" unicode="a" horiz-adv-x="230" 
d="M-9 79c-4 -1 -7 -2 -8 -2c-14 1 -21 8 -20 20c0 5 1 10 2 17c16 43 34 82 65 117c4 5 9 9 14 14c13 12 28 20 49 13c5 -4 10 -8 17 -15c7 0 8 3 11 7c9 11 17 20 28 31c3 0 7 1 11 1c9 -3 15 -10 12 -18c-2 -9 -5 -16 -9 -23c-8 -19 -16 -38 -25 -56
c-7 -15 -9 -31 -13 -47c-1 -7 0 -7 7 -16c11 -1 18 3 25 10c19 14 25 19 44 32c11 8 20 16 29 23c11 0 16 -5 16 -14c-1 -3 -2 -5 -5 -8l-60 -53c-7 -7 -15 -10 -23 -14c-10 -5 -22 -6 -35 -3c-15 3 -25 18 -28 34c-1 15 -1 28 4 43c3 5 4 8 0 15c-15 -11 -23 -26 -35 -38
c-12 -11 -23 -24 -34 -35c-13 -12 -24 -26 -39 -35zM-9 112c5 3 8 4 8 4c35 33 67 66 95 103c0 0 1 2 2 7l-10 18c-7 -1 -11 -3 -14 -4c-13 -7 -22 -16 -30 -27c-19 -25 -34 -52 -45 -81c-3 -7 -3 -12 -6 -20z" />
    <glyph glyph-name="c" unicode="c" horiz-adv-x="208" 
d="M223 177c-5 -11 -13 -16 -21 -23c-37 -32 -39 -25 -80 -52c-19 -11 -37 -19 -56 -30c-13 -7 -27 -10 -42 -10c-31 0 -44 20 -47 44c-1 5 -1 11 0 16c13 61 44 111 96 146c11 7 23 11 36 11c3 0 6 0 8 -1c6 -1 10 -5 12 -10c3 -7 1 -12 -7 -17c-3 1 -7 3 -12 4
c-2 0 -4 0 -5 -1c-21 -11 -36 -26 -51 -45c-20 -23 -33 -49 -42 -80c-4 -11 -5 -23 -2 -36c4 -1 8 -3 13 -3c15 -1 29 5 42 12c27 15 52 28 79 44c32 19 26 11 55 35c4 3 7 4 9 5c5 3 10 0 15 -9z" />
    <glyph glyph-name="d" unicode="d" horiz-adv-x="233" 
d="M163 284l-2 -5c-3 0 -6 -3 -9 -8c-24 -36 -48 -73 -73 -108c-15 -21 -31 -39 -47 -59c-5 -5 -10 -9 -17 -13c-12 -8 -24 -6 -35 5c-6 11 -7 23 -4 34c11 41 29 77 64 102c9 7 19 12 34 7l16 -15c11 8 14 20 22 29c8 11 14 22 22 33l19 31l20 31c8 11 14 22 21 33
c5 10 12 21 19 32c5 11 11 20 18 31s11 21 18 32c5 12 10 24 17 36c4 11 8 23 16 31c11 3 16 -4 19 -11c1 -2 1 -4 0 -5c-9 -27 -20 -53 -31 -76c-15 -37 -31 -73 -46 -109c-29 -72 -44 -146 -56 -222c-6 -42 -10 -84 -12 -127c-1 -15 2 -31 2 -48c0 -2 -2 -4 -5 -6
c-8 3 -15 5 -20 13c0 1 -2 4 -3 7c-4 27 -5 55 -4 82c3 39 4 76 9 113c7 39 14 75 25 112c1 3 1 8 1 14c1 0 5 0 2 4zM0 113c19 13 38 33 57 60l13 21c0 9 3 17 -5 25c-16 -4 -24 -16 -33 -28c-21 -27 -31 -53 -32 -78z" />
    <glyph glyph-name="k" unicode="k" horiz-adv-x="177" 
d="M137 267c20 -7 25 -12 25 -31c0 -10 -2 -19 -7 -26c-11 -17 -25 -31 -45 -38l-44 -12c-4 -4 -3 -10 -2 -17c12 -67 25 -131 44 -196l3 -11c-7 -7 -10 -6 -17 -5c-7 3 -12 9 -15 18l-16 56c-5 23 -10 44 -14 67s-7 46 -10 73c-19 -21 -30 -45 -39 -70h-18c-1 5 -4 9 -3 13
c1 11 4 20 7 29c16 64 32 125 49 189c19 71 43 138 67 207c3 7 4 15 7 23c11 12 13 12 24 -3c0 -11 -4 -18 -7 -29c-12 -37 -25 -73 -37 -112c-23 -69 -40 -138 -59 -209c0 -1 1 -2 1 -5c5 -3 5 2 8 5c17 23 37 42 58 62c12 11 25 19 40 22zM138 250
c-29 -15 -49 -39 -68 -63c-1 -1 0 -3 1 -6c8 3 18 2 26 5c23 8 39 24 47 47c1 5 1 10 -6 17z" />
    <glyph glyph-name="o" unicode="o" horiz-adv-x="198" 
d="M50 235l14 14h19c15 -7 19 -17 22 -30c4 -17 0 -32 -4 -57c20 -3 20 -3 97 26l11 -9c1 -3 1 -5 1 -7c-3 -5 -7 -9 -14 -11l-33 -15c-33 -13 -37 -14 -74 -14c-7 -5 -11 -14 -16 -22c-12 -19 -23 -27 -42 -39c-13 -8 -28 -13 -45 -9c-13 5 -20 15 -25 28c-1 27 8 49 19 70
c15 28 28 57 53 77zM36 199c-3 -1 -4 -2 -4 -2c-15 -23 -27 -46 -36 -70c-4 -9 -7 -18 -9 -27c-1 -5 -3 -11 4 -16c11 -3 20 4 28 9c20 12 32 24 45 47c-20 13 -24 37 -27 57c-1 1 -2 2 -2 3h2c1 0 1 1 1 2c-1 -1 -2 -2 -2 -3zM74 162c8 15 14 37 13 54c0 6 -3 9 -9 10
c-8 -7 -10 -17 -14 -26c0 -11 -4 -25 1 -34c4 -1 7 -3 9 -4z" />
    <glyph glyph-name="f" unicode="f" horiz-adv-x="169" 
d="M25 150c-1 -3 -1 -5 0 -7c9 -40 5 -77 -3 -114c-8 -51 -23 -97 -43 -142l-8 -17l-9 -9c-3 -1 -8 -1 -15 -1l-15 12c0 4 -1 6 -1 9c-3 25 2 49 6 73c11 55 24 106 40 158c7 20 10 39 17 59l10 27c15 49 32 95 51 140c4 8 8 17 13 25c3 5 8 7 12 11c7 -4 10 -6 13 -9
c5 -15 1 -23 -6 -32c-3 -7 -8 -9 -9 -16l-47 -130c0 -3 1 -5 1 -9c46 -10 89 3 136 8l10 -10c2 -5 1 -9 -4 -10c-11 -3 -22 -3 -34 -6c-33 -7 -66 -18 -101 -9c-5 1 -9 2 -14 -1zM-35 -70l2 -2c22 49 38 121 38 165c-15 -35 -21 -67 -30 -100c-5 -20 -11 -40 -10 -63z" />
    <glyph glyph-name="v" unicode="v" horiz-adv-x="200" 
d="M13 104c3 3 5 2 5 3c16 19 44 70 54 91c4 42 17 81 40 116c7 11 13 19 25 26c4 -3 8 -2 12 -5c5 -12 3 -22 -1 -33c-7 -17 -15 -34 -22 -53l-21 -42c-4 -7 -6 -13 -9 -20c3 -12 5 -24 18 -32c15 -4 30 4 46 9c15 5 27 13 40 24l11 -4c-1 -5 1 -8 -2 -11
c-4 -9 -12 -14 -20 -19c-19 -10 -39 -17 -60 -20c-14 -3 -27 2 -39 15c-4 4 -7 7 -8 10c-9 -4 -11 -10 -15 -17l-32 -50c-4 -7 -9 -13 -14 -20c-4 -5 -10 -8 -14 -11c-10 1 -17 5 -21 14c-4 24 3 49 7 74c4 31 9 61 17 89c8 3 14 2 18 -5c-1 -20 -6 -40 -9 -63
s-10 -43 -6 -66z" />
    <glyph glyph-name="b" unicode="b" horiz-adv-x="228" 
d="M170 227l8 -9c12 -35 2 -61 -23 -81c-20 -16 -44 -24 -69 -31c-23 -5 -47 -9 -72 -14l-8 -15l-14 -43c-3 -8 -6 -15 -14 -22c-3 0 -7 -1 -11 0c-11 3 -16 9 -16 18c3 7 3 14 7 21c17 40 25 84 38 127c33 112 68 220 119 321c11 23 22 44 33 65c4 8 8 16 15 21
c4 0 7 0 8 -1c5 -3 8 -8 8 -15c-60 -124 -104 -253 -143 -389c-1 -1 0 -3 2 -6c7 5 12 11 17 18c12 12 27 24 44 36c7 5 15 8 24 11c15 7 31 3 47 -12zM36 122c12 3 19 3 26 6c24 7 46 17 66 30c11 8 17 18 24 30c3 9 3 18 -1 25c-5 4 -10 5 -17 2s-14 -8 -19 -12
c-31 -21 -55 -48 -79 -81z" />
    <glyph glyph-name="l" unicode="l" horiz-adv-x="145" 
d="M115 518l11 -3c3 -9 2 -16 -1 -24c-15 -40 -28 -80 -43 -121c-15 -45 -31 -90 -44 -135c-9 -29 -17 -58 -20 -89c0 -6 -1 -11 -2 -14c-7 -19 -3 -38 0 -57c1 -4 5 -7 8 -10c15 1 23 8 34 16c15 13 28 26 39 40c13 19 29 38 42 57l8 9c7 2 12 -1 14 -9
c-23 -31 -45 -65 -70 -94c-8 -8 -17 -15 -25 -22c-17 -13 -34 -18 -53 -13c-17 11 -21 30 -21 49c-3 31 0 60 7 91c5 35 12 67 23 100c23 71 45 139 76 207c3 7 6 15 17 22z" />
    <glyph glyph-name="h" unicode="h" horiz-adv-x="191" 
d="M39 187c29 35 53 71 94 91c7 -3 11 -6 16 -9c7 -13 4 -26 1 -39c-7 -31 -13 -60 -18 -91c-5 -25 -9 -49 -13 -74c-3 -19 -7 -35 -10 -54c-1 -11 0 -24 -3 -35c0 -5 -3 -10 -4 -15c-12 -5 -21 -2 -26 9c0 7 -1 16 0 25c1 15 2 29 5 44c5 41 12 82 23 122c7 24 12 47 19 71
c1 5 2 9 -2 14c-27 -23 -49 -49 -69 -78c-19 -28 -31 -60 -44 -91c-11 -5 -19 -3 -26 6c0 7 -2 14 1 21c7 43 17 83 28 124c19 73 43 145 70 217c13 35 30 67 49 99c5 8 10 16 21 23l13 -9c-1 -7 -3 -11 -4 -14c-11 -23 -19 -45 -30 -68c-23 -51 -38 -103 -55 -155
c-11 -33 -19 -67 -30 -100l-8 -30c1 0 1 0 1 -1s0 -2 1 -3z" />
    <glyph glyph-name="i" unicode="i" horiz-adv-x="164" 
d="M51 264c-4 -1 -8 3 -11 10c5 13 11 26 22 35c11 11 21 20 36 23c5 -3 13 -10 12 -17c-7 -11 -21 -14 -30 -25c-9 -9 -18 -17 -29 -26zM26 214c7 -11 14 -15 11 -22c-7 -15 -14 -26 -18 -41c-5 -13 -7 -26 -8 -37c-2 -7 0 -14 6 -21c9 -4 10 -2 18 2c13 7 24 13 35 20
c32 23 63 46 96 71c4 1 7 -1 9 -6c1 -9 -4 -13 -8 -17c-31 -28 -64 -53 -99 -76c-11 -7 -22 -10 -34 -15c-9 -3 -18 -3 -27 1c-11 4 -19 11 -23 23c-1 4 -1 9 -4 12c-1 33 11 61 24 88c3 6 6 11 11 15c3 3 7 2 11 3z" />
    <glyph glyph-name="r" unicode="r" horiz-adv-x="152" 
d="M31 169c24 30 59 81 88 102c7 5 16 10 26 15c7 3 15 2 24 -2c8 -5 12 -12 11 -21c-3 -1 -4 -3 -7 -4c-4 3 -8 2 -13 5c-2 0 -4 0 -5 -1c-33 -22 -69 -75 -93 -107c-13 -17 -22 -35 -33 -54l-12 -24c-13 -5 -23 -1 -30 14c3 11 2 23 5 34c5 38 7 55 17 91c3 11 6 20 14 29
h18c3 -5 4 -10 7 -14c-13 -16 -13 -16 -16 -35c-3 -15 -4 -8 -1 -28z" />
    <glyph glyph-name="p" unicode="p" horiz-adv-x="366" 
d="M-11 23l3 3c5 0 6 5 9 9c36 56 78 103 125 150c15 13 31 27 46 39c8 7 17 11 26 16c12 7 23 9 38 6c15 -7 21 -20 16 -39l-9 -35c15 -1 29 5 44 8c15 1 29 4 44 5c16 1 31 3 46 -1c7 -8 7 -7 6 -18c-19 -5 -38 -1 -57 -4l-54 -10c-19 -4 -38 -8 -55 -17
c-21 -27 -45 -49 -76 -64c-11 -3 -21 -4 -33 1c-3 3 -7 9 -10 13c3 13 10 21 19 28c21 17 45 28 69 39c4 1 8 2 11 4c13 13 21 29 29 46c3 5 2 11 3 16c0 1 -2 2 -3 5c-12 -3 -23 -8 -34 -17c-15 -12 -29 -23 -42 -36c-49 -45 -93 -96 -130 -153c-25 -37 -46 -77 -59 -121
c-3 -7 -4 -16 -7 -23c-1 -4 -4 -7 -7 -12c-7 3 -10 3 -14 6l-6 12c15 81 33 159 54 239c8 31 17 61 28 92c3 11 7 19 11 28c3 5 7 8 10 11c6 0 10 -3 13 -10l-10 -37c-15 -52 -27 -103 -40 -155c-1 -7 0 -14 -1 -22h-2c-1 -1 -1 -2 -1 -2z" />
    <glyph glyph-name="H" unicode="H" horiz-adv-x="603" 
d="M1 82c17 15 36 22 55 29c37 15 74 26 111 39l22 8l15 58l61 229c3 11 7 21 15 30c4 1 7 2 10 1c1 0 3 -1 7 -4v-25c-11 -12 -15 -27 -19 -42c-16 -60 -33 -117 -49 -177c-5 -17 -9 -34 -13 -51c-1 -3 0 -4 0 -7c3 -1 3 -3 6 -3c87 24 172 49 261 69l8 17l72 220
c15 47 30 92 49 137c7 15 15 30 26 45c5 7 11 11 18 12c7 0 16 -4 19 -11c1 -3 0 -7 0 -11c-7 -3 -11 -3 -16 -6c-10 -15 -18 -32 -24 -49l-114 -336c-1 -1 -1 -4 -1 -9c13 -1 25 5 38 6s25 4 38 7c12 1 23 3 35 3c13 1 26 2 39 -1c3 -3 4 -5 7 -9c-5 -4 -9 -6 -10 -6
c-15 -3 -31 -3 -46 -6c-37 -3 -72 -12 -108 -19c-7 -7 -9 -17 -12 -25l-82 -251c-3 -11 -7 -21 -11 -32c-4 -13 -11 -23 -20 -31c-11 -1 -15 -1 -22 7c15 19 21 40 28 61c24 76 48 148 72 223l8 29c1 3 0 4 0 7c-3 1 -3 3 -6 2c-84 -19 -165 -44 -249 -67
c-5 -1 -9 -3 -12 -6c-13 -47 -23 -96 -24 -120l14 -13l-10 -11c-9 0 -16 4 -21 12c-7 40 8 79 15 120c-3 3 -6 4 -10 3l-130 -46l-17 -8l-14 -12c-11 5 -12 5 -9 20z" />
    <glyph glyph-name="M" unicode="M" horiz-adv-x="603" 
d="M373 416l-58 -61c-23 -24 -43 -50 -66 -74c-59 -67 -113 -133 -164 -205l-34 -46c-5 -7 -11 -13 -18 -18c-16 -11 -38 -4 -39 16c-1 18 0 35 4 52c11 39 20 78 31 117c13 47 28 95 43 142c3 11 7 23 14 31c9 3 19 0 20 -7c-31 -87 -52 -172 -75 -260
c-7 -21 -9 -43 -12 -64c-1 -1 0 -3 1 -6c5 -3 7 3 10 6c17 21 33 42 49 63c33 47 68 92 105 135c43 51 84 102 131 149c15 15 26 29 41 44c9 9 19 16 27 23c16 1 16 1 25 -8c2 -8 2 -15 -1 -22c-3 -8 -6 -17 -10 -26c-23 -53 -43 -105 -66 -160c-4 -9 -7 -19 -10 -31
c5 3 8 4 8 4l30 33c56 64 117 121 178 180c21 21 44 39 67 58c9 8 19 9 30 4c3 -3 4 -8 7 -13c-3 -16 -9 -29 -16 -44c-25 -60 -51 -117 -75 -177c-32 -80 -59 -161 -83 -245c-5 -19 -10 -36 -9 -56c3 -5 5 -12 8 -19c-3 -3 -4 -5 -7 -5c-9 -1 -14 4 -19 9c-7 8 -9 19 -8 32
l8 35c27 105 59 207 102 308l58 131c-4 4 -6 1 -9 -2c-25 -23 -50 -44 -74 -67l-130 -131l-56 -64l-24 -26c-7 0 -9 0 -16 1c-3 5 -4 9 -7 13c7 35 19 64 32 95c18 46 37 92 57 138c3 5 5 9 0 18z" />
    <glyph glyph-name="W" unicode="W" horiz-adv-x="499" 
d="M226 245l6 6c11 0 10 1 19 -6c1 -3 2 -4 2 -5c-1 -9 0 -19 -3 -28c-9 -32 -14 -66 -18 -99c-4 -29 -1 -58 10 -87c7 -17 16 -32 36 -37c23 4 38 18 51 37c20 25 33 54 44 83c29 76 55 152 79 231c13 41 25 81 36 122l2 9l-11 18c3 15 6 26 21 33c9 1 16 -3 21 -12
c1 -3 2 -5 2 -7c3 -23 -3 -44 -8 -65c-15 -53 -28 -107 -43 -159c-15 -51 -29 -99 -48 -147c-11 -32 -25 -62 -40 -91c-11 -20 -24 -39 -41 -54c-12 -11 -25 -19 -40 -24c-22 -6 -42 -1 -59 14c-19 15 -28 35 -35 58c-5 19 -8 36 -7 55c1 13 1 25 1 38c0 5 -1 9 -2 16
c-4 -5 -5 -8 -8 -11c-27 -40 -51 -81 -78 -120c-12 -19 -25 -36 -40 -53c-11 -14 -24 -23 -40 -27c-17 3 -28 13 -31 31c-5 20 -5 40 -2 60c8 71 28 135 51 202c8 23 17 43 25 64c3 6 7 12 12 19c3 5 9 6 16 2c1 -4 2 -8 5 -15c-13 -12 -18 -28 -23 -43
c-19 -51 -36 -102 -48 -155c-9 -37 -18 -75 -15 -114c0 -7 1 -10 1 -17c1 -1 2 -2 3 -5c3 -4 7 -4 12 1c8 8 17 16 24 25c32 40 58 83 85 126s51 87 76 131z" />
    <glyph glyph-name="X" unicode="X" horiz-adv-x="520" 
d="M535 466c-61 -47 -115 -101 -170 -157c-33 -35 -66 -69 -98 -104c-16 -17 -30 -33 -46 -52c1 -5 3 -10 5 -15c7 -16 16 -29 26 -39c21 -25 47 -34 79 -28c11 2 21 5 31 9c45 21 86 45 123 73c7 5 12 9 17 14c4 5 8 11 11 19c11 1 16 -5 17 -16c-3 -4 -5 -10 -10 -15
c-9 -9 -17 -18 -28 -26c-39 -28 -80 -52 -124 -71c-28 -13 -57 -15 -86 -6c-23 9 -42 22 -55 40l-25 37c-20 -16 -35 -38 -51 -57c-17 -19 -33 -39 -49 -59l-45 -60c-15 -21 -24 -44 -43 -65c-3 1 -6 1 -9 1c-7 7 -6 12 -3 19c7 13 14 26 22 38c25 43 56 81 87 120
c23 28 44 54 67 81c4 4 7 8 9 12c-7 28 -11 55 -18 82c-3 15 -6 30 -7 46c-3 35 -9 69 -6 104c0 5 0 11 1 16c1 9 4 16 5 24c9 5 15 2 20 -8v-77c0 -28 5 -55 9 -82s6 -53 17 -78c3 3 5 1 8 4l96 106c39 45 79 86 122 127c19 19 38 33 61 48c8 5 17 11 28 8
c7 -1 8 -2 12 -13z" />
    <glyph glyph-name="Z" unicode="Z" horiz-adv-x="576" 
d="M310 151l24 18c-7 13 -17 20 -29 27c-11 5 -20 10 -31 17c-32 19 -46 55 -33 96c9 31 25 59 40 87s32 55 45 86c4 11 6 21 5 32c0 1 -1 4 -2 8c-15 7 -28 4 -43 0c-27 -7 -50 -17 -74 -29c-45 -23 -89 -47 -130 -78c-12 -11 -24 -18 -36 -29c-9 -8 -18 -16 -23 -28
c1 -5 3 -9 4 -12c-2 -3 -3 -5 -3 -5c-5 -1 -8 -2 -10 -1c-9 3 -13 8 -14 17c3 12 10 22 19 31c20 23 41 42 65 59c56 39 113 72 177 96c15 5 31 10 48 9c6 0 11 0 14 -1c24 -7 36 -23 36 -49c0 -9 -2 -20 -5 -32c-8 -27 -21 -49 -33 -73c-12 -21 -23 -43 -34 -66
c-11 -19 -18 -38 -21 -62c1 -14 9 -25 26 -34c7 -4 14 -9 21 -12c15 -9 27 -18 37 -29l9 -7l15 8c43 29 86 57 130 82c24 13 47 25 72 34c20 8 39 13 60 10c11 -1 19 -4 26 -8c4 -3 5 -9 2 -18c-3 0 -7 -1 -10 0c-14 5 -28 4 -43 -1c-13 -5 -27 -8 -39 -15
c-27 -13 -52 -26 -77 -41c-39 -24 -75 -49 -114 -73l-11 -8c-1 -13 -1 -25 -4 -36c-4 -24 -16 -45 -29 -66c-20 -33 -44 -63 -69 -92c-19 -23 -39 -45 -60 -64c-19 -17 -38 -32 -58 -47c-16 -13 -33 -21 -52 -25c-20 -7 -39 -5 -58 7c-11 7 -17 15 -19 26c-3 19 -1 36 8 51
c11 17 21 33 36 48c27 27 53 51 82 74c55 41 107 81 163 118zM51 -141c9 -6 18 -7 27 -4c15 4 28 10 40 18c17 13 34 25 49 40c32 29 62 61 91 96c20 24 39 49 55 76c7 11 10 21 17 32c1 3 2 7 -3 10l-13 -9l-131 -97c-36 -28 -69 -59 -101 -94c-12 -13 -22 -28 -30 -45
c-3 -7 -5 -14 -1 -23z" />
    <glyph glyph-name="T" unicode="T" horiz-adv-x="265" 
d="M219 422c7 23 11 46 16 69c9 4 9 5 16 -2c1 -3 2 -5 2 -6l-9 -40c-1 -3 -1 -7 -1 -14c0 -1 1 -3 3 -6c8 -3 17 0 26 1l87 10l102 9c33 3 66 1 99 1c11 0 22 -4 31 -9c5 -3 6 -8 2 -17c-1 0 -2 -1 -5 -1c-37 9 -75 6 -112 3c-5 -1 -9 -2 -14 -2c-32 -3 -64 -4 -96 -7
l-71 -9l-25 -2c-13 0 -25 -3 -36 -8l-36 -131l-38 -135c-13 -45 -34 -179 -45 -221c-11 -5 -16 -2 -21 5c-3 15 -3 31 0 48c5 40 19 171 16 211c-3 41 -16 78 -38 113c-13 19 -28 33 -46 44c-7 5 -14 9 -21 13c-5 8 -6 16 -3 24c11 11 25 16 40 21c31 11 60 16 91 21
c27 5 52 9 79 13c1 0 4 1 7 4zM135 124l29 102l44 153c2 4 1 8 -2 11c-7 -1 -14 0 -21 -1l-103 -20c-16 -3 -32 -8 -48 -13c-5 -1 -8 -4 -9 -9l13 -9c23 -15 39 -32 54 -55c19 -32 29 -67 36 -103c3 -19 4 -35 7 -56z" />
    <glyph glyph-name="B" unicode="B" horiz-adv-x="510" 
d="M136 -232l-9 7c-3 4 -5 7 -7 8c0 2 -1 5 -2 9c-3 19 5 34 14 49c15 23 28 46 44 67c39 53 85 99 133 144l16 14c11 9 19 17 28 26c3 11 5 21 6 30c1 7 1 14 -1 19c-3 16 -11 21 -27 22h-28c-9 0 -16 4 -23 11c-5 9 -3 20 4 32c16 23 32 45 47 68c43 60 83 119 124 179
c12 19 23 34 31 57l-8 -2c-23 -15 -42 -31 -62 -50c-51 -48 -99 -99 -144 -153c-45 -55 -86 -111 -125 -171l-24 -40c-11 -20 -20 -40 -27 -63c-7 -20 -12 -41 -24 -60c-3 0 -7 -2 -10 -1c-11 1 -16 7 -15 16l3 13c7 17 13 35 21 51c9 20 16 40 22 60l45 147
c13 44 25 88 34 133c7 27 8 52 11 79c1 8 -1 16 -5 23c-3 2 -6 2 -10 -1c-9 -9 -18 -17 -25 -26c-36 -46 -67 -95 -93 -147c-9 -19 -16 -36 -24 -55c-3 -6 -5 -12 -6 -18c-1 -7 -1 -13 -1 -20c-4 0 -5 -1 -8 -1c-7 1 -8 5 -11 12v5c5 26 13 52 26 78c24 54 54 105 89 152
c13 17 27 32 44 44c11 3 21 3 28 0c15 -8 18 -22 19 -37s1 -29 -2 -44c-11 -79 -32 -152 -55 -227c-1 -4 -2 -7 -2 -11c0 -1 0 -2 1 -3c5 -1 6 4 9 7c23 31 44 62 67 91c59 72 120 140 189 201c14 13 30 25 48 37c9 7 18 11 27 14c13 5 28 -6 29 -21c0 -9 -2 -17 -5 -24
c-8 -15 -14 -31 -25 -46c-28 -44 -56 -87 -87 -131c-25 -37 -50 -74 -77 -111c-4 -7 -11 -11 -10 -22c7 -1 12 -2 19 -2c31 -3 48 -19 52 -50c1 -3 1 -8 1 -15c12 7 20 13 28 20c46 38 50 39 100 71l19 11c12 -9 11 -9 14 -21l-6 -5c-47 -29 -46 -28 -89 -63
c-19 -15 -38 -32 -57 -48c-11 -9 -18 -20 -23 -33c-21 -65 -52 -126 -92 -181c-23 -31 -47 -58 -78 -81c-11 -8 -21 -13 -33 -20c-9 -5 -19 -6 -32 -3zM326 23c-3 -1 -4 -3 -7 -4c-32 -31 -61 -62 -90 -97c-23 -25 -42 -52 -61 -81c-8 -15 -16 -27 -19 -46l8 2
c15 7 27 16 38 27c19 16 34 33 49 52c35 44 61 92 82 147z" />
    <glyph glyph-name="K" unicode="K" horiz-adv-x="427" 
d="M162 29c40 -35 191 100 247 148l18 9c11 0 16 -4 15 -13c-5 -9 -15 -13 -24 -18c-88 -64 -139 -136 -217 -152c-25 -7 -56 4 -69 31c-7 13 -12 26 -16 41c-4 17 -7 35 -11 51c-3 7 -4 14 -8 21c-3 5 -9 9 -18 6c-3 -3 -6 -8 -7 -13l-33 -119c-8 -31 -16 -61 -23 -92
c-6 -5 -11 -4 -15 3c-2 9 -1 18 2 29c9 37 17 73 28 112c1 4 3 8 0 13c-4 -7 -8 -11 -11 -18c-7 0 -12 3 -14 10v5c11 19 19 37 30 58c0 1 -1 5 -1 8c0 15 13 18 24 27c7 19 11 39 18 59c15 49 30 98 46 147c3 12 8 23 15 35c5 11 12 20 27 24l15 -6l7 -17
c-3 -3 -3 -5 -6 -9c-5 3 -10 2 -17 5c-11 -15 -16 -32 -21 -48c-17 -49 -32 -98 -48 -146c0 0 1 -1 2 -4l10 8c63 65 130 120 202 175c49 37 97 72 146 108c17 12 34 23 51 34c15 9 27 17 46 21c4 -3 9 -4 14 -7l3 -9c-3 -3 -4 -5 -5 -5c-15 3 -24 -5 -35 -12
c-25 -16 -50 -32 -73 -49c-60 -45 -119 -88 -178 -135c-64 -51 -120 -103 -176 -163c-3 -3 -2 -4 -5 -7c1 -7 7 -7 11 -11c13 -12 20 -27 24 -46c3 -11 3 -23 6 -35c5 -19 9 -39 24 -54z" />
    <glyph glyph-name="R" unicode="R" horiz-adv-x="441" 
d="M61 116l6 4c29 55 64 108 104 159c39 48 78 94 122 135c19 17 40 33 60 49c13 11 26 14 41 10c11 -5 15 -15 16 -27c3 -27 -1 -53 -14 -77c-21 -39 -46 -76 -77 -111c-45 -52 -100 -91 -161 -123c-11 -7 -23 -10 -35 -15l-12 -6c0 -5 0 -8 1 -10c7 -12 11 -25 18 -37
c9 -17 22 -28 42 -31c3 0 7 -1 11 -2c5 1 9 2 14 2c20 1 38 9 57 18c38 19 122 88 156 111l22 15c4 3 9 3 13 6c8 3 13 -2 15 -14c-5 -5 -10 -11 -17 -16c-37 -27 -128 -101 -168 -122c-11 -7 -23 -11 -35 -16c-19 -7 -38 -9 -57 -8c-30 1 -53 13 -70 37c-5 8 -9 16 -13 24
c-5 9 -8 17 -11 25c-7 3 -6 -2 -9 -5l-43 -98c-7 -15 -8 -28 0 -43c3 -3 1 -4 1 -7c-7 -7 -11 -1 -18 0l-12 -9c-7 1 -7 5 -8 8c0 4 0 7 1 8c13 35 13 70 21 105c13 55 23 108 36 161c11 47 22 94 37 141l20 57c4 12 9 24 14 36c12 3 12 3 20 -13l-8 -28
c-31 -91 -54 -182 -77 -275c-3 -7 -1 -12 -2 -19c-4 -1 -5 -4 -2 -9c1 3 1 6 1 10zM105 136c9 3 14 1 18 4c55 25 105 55 148 98c40 37 73 79 100 127c8 15 14 31 18 46c4 12 4 23 3 35c-1 3 -3 6 -6 10c-7 -3 -11 -5 -15 -8c-12 -9 -23 -17 -34 -28
c-61 -56 -117 -115 -166 -183c-23 -31 -45 -64 -66 -101z" />
    <glyph glyph-name="Y" unicode="Y" horiz-adv-x="494" 
d="M326 102c7 3 14 7 19 10c40 27 78 54 121 77c13 8 26 13 39 20c5 3 10 3 17 4l8 -9l-3 -6c-5 -4 -9 -9 -16 -12c-68 -36 -128 -81 -191 -125c-7 -4 -12 -7 -19 -14l-21 -46c-23 -51 -46 -99 -77 -146c-13 -22 -28 -42 -45 -59c-17 -19 -37 -32 -59 -39
c-21 -7 -42 -8 -62 3c-13 6 -20 16 -21 30s1 26 7 37c12 24 26 44 45 63c47 51 97 95 153 134c4 3 8 7 13 10c21 11 31 28 40 51c23 56 43 111 60 168c9 31 18 61 29 92c0 3 0 6 1 9l-8 -5c-28 -27 -56 -52 -85 -79c-44 -39 -88 -77 -137 -110c-5 -4 -10 -8 -16 -11
c-24 -14 -33 -18 -62 -23c-7 1 -16 2 -24 5c-21 13 -29 33 -32 57c-1 31 2 62 8 93c13 63 29 123 54 182c11 28 26 55 39 82l7 8c11 -2 16 -7 14 -16c-3 -3 -2 -7 -5 -10c-35 -65 -56 -135 -73 -207c-4 -17 -6 -34 -11 -51c-7 -21 -4 -42 -9 -65c-3 -15 2 -28 7 -41
c1 -4 5 -6 8 -9c13 -7 24 -2 35 3c27 12 52 27 75 46c76 60 144 123 209 192l19 20c11 3 18 1 23 -4c7 -7 10 -14 8 -22l-8 -41c-11 -44 -23 -88 -38 -132l-33 -99c-3 -5 -5 -9 -2 -16c-1 0 -2 -1 -3 -1zM229 -11v2c-3 -1 -4 0 -7 -3c-48 -37 -93 -77 -134 -122
c-12 -15 -23 -30 -34 -46c-4 -7 -7 -14 -9 -23c-3 -7 -1 -12 4 -15c24 -5 44 4 63 19c15 12 26 25 37 40c33 47 58 96 81 147c-1 0 -1 0 -1 1z" />
    <glyph glyph-name="Q" unicode="Q" horiz-adv-x="263" 
d="M306 -62c-1 -3 -3 -4 -6 -7c-11 3 -10 12 -17 19c-21 15 -45 18 -69 23c-23 4 -43 7 -66 10c-4 1 -9 1 -13 1c-31 -3 -61 -5 -90 -12l-18 -7l-13 -9c-15 5 -15 5 -14 20c11 16 31 18 47 27c-19 16 -25 36 -26 59c-1 36 5 69 13 104c15 56 36 107 61 159
c15 31 30 57 46 88c-1 5 -1 9 -4 16c9 27 13 54 40 73c17 5 32 0 45 -14c29 -31 40 -68 34 -109c-11 -81 -36 -156 -69 -231c-11 -23 -22 -45 -35 -68c-12 -20 -25 -39 -42 -55l-12 -13c3 -2 5 -3 8 -3c5 -1 11 -1 16 -1c45 -1 89 -10 132 -23c7 -3 14 -4 21 -7
c17 -8 30 -19 31 -40zM51 25c11 -5 18 -3 26 2c11 7 20 14 27 23c13 19 25 36 36 55c47 91 80 185 95 285c3 27 -2 52 -17 74c-1 3 -3 2 -6 5c-5 -3 -10 -5 -15 -9c-40 -61 -76 -126 -104 -195c-21 -52 -40 -104 -47 -160c-4 -27 -7 -53 5 -80z" />
    <glyph glyph-name="E" unicode="E" horiz-adv-x="409" 
d="M473 587c1 -3 3 -5 6 -8c-3 -3 -3 -5 -6 -8c-104 -15 -206 -26 -309 -47c-7 -7 -6 -15 -9 -23c-13 -69 -27 -138 -44 -207c-1 -4 -2 -9 2 -14l46 14l90 26c20 5 39 12 56 23c4 3 8 2 12 5c7 -7 6 -6 9 -15c-3 -3 -6 -4 -10 -7c-23 -16 -49 -24 -76 -31l-111 -33
c-9 -3 -18 -5 -27 -12l-8 -35c-16 -77 -33 -153 -48 -229c-3 -11 -2 -22 -3 -33c0 -3 1 -6 1 -9c4 -3 9 -4 14 -1c12 5 23 10 35 17c60 35 118 67 177 106c35 24 113 89 139 120c10 4 17 2 20 -6c-2 -9 -7 -18 -16 -26c-13 -13 -68 -67 -84 -78c-29 -21 -60 -42 -91 -62
c-36 -23 -73 -45 -110 -68c-15 -9 -30 -17 -46 -25c-17 -9 -34 -11 -51 -6c-19 11 -22 29 -19 48c1 13 3 26 6 41l46 229v2c-15 0 -22 -3 -54 -22c-9 3 -12 9 -9 18c19 16 43 24 68 35c3 5 6 10 7 17c11 39 19 78 28 117c7 35 15 67 22 100v5c-5 7 -13 2 -21 7l-5 7
c3 11 10 15 18 18c11 3 19 7 26 18c7 -3 13 -2 21 -5l58 9c36 5 72 11 109 15l65 8c20 3 39 4 58 5c5 1 11 0 18 0z" />
    <glyph glyph-name="N" unicode="N" horiz-adv-x="423" 
d="M280 -49c3 -12 -1 -20 -8 -27c-7 -8 -18 -8 -25 -3c-8 7 -11 16 -9 25l9 40c15 52 32 101 51 152c39 107 84 211 127 316l11 30c-4 0 -6 2 -9 -1c-11 -9 -23 -16 -34 -27c-35 -33 -71 -64 -104 -99c-67 -69 -130 -139 -186 -218c-20 -27 -38 -54 -57 -81
c-7 -8 -12 -16 -19 -24c-7 0 -11 -1 -16 -1l-6 7c-7 7 -7 16 -4 24c5 27 10 56 18 83c19 64 38 128 58 192c3 8 4 16 11 23c3 -1 5 1 6 -2c3 -2 5 -5 5 -9c0 -5 -2 -11 -3 -16l-55 -190c-5 -17 -9 -34 -12 -51c-3 -5 -5 -11 2 -16c4 5 8 8 12 15c36 57 79 110 122 162
c19 23 37 42 56 62c28 31 56 61 85 90c33 31 65 63 100 91c12 9 23 18 38 21c17 -11 21 -15 18 -30c-1 -9 -4 -18 -7 -27c-15 -41 -30 -82 -46 -123l-87 -218c-17 -45 -34 -90 -49 -137c-1 -7 -3 -12 -4 -17c3 -5 7 -9 11 -16z" />
    <glyph glyph-name="C" unicode="C" horiz-adv-x="367" 
d="M36 -74c15 -4 26 -1 37 6c25 12 48 28 71 48c44 36 86 75 127 114c31 29 60 58 89 86c2 2 4 4 7 5c8 2 13 0 16 -6c0 -3 0 -4 -1 -5c-5 -7 -9 -13 -16 -18c-45 -44 -89 -89 -134 -132c-33 -31 -65 -61 -102 -88c-27 -17 -52 -32 -83 -37c-1 1 -2 1 -5 1
c-32 5 -42 29 -42 56c0 28 6 54 13 81c15 51 33 97 54 144c28 63 61 121 101 177c26 36 56 69 89 98c9 9 19 16 30 24c12 7 23 13 38 17c31 8 59 -13 54 -49c-1 -15 -6 -27 -13 -42c-4 -8 -7 -15 -11 -26c-7 -5 -13 -3 -19 4l3 12l15 39c5 11 6 22 4 33c-4 8 -10 11 -17 10
c-6 0 -11 -1 -16 -3l-22 -11c-25 -17 -47 -37 -66 -58c-76 -84 -126 -179 -167 -283c-13 -33 -23 -67 -34 -102c-7 -24 -10 -48 -9 -73c1 -8 1 -15 9 -22z" />
    <glyph glyph-name="L" unicode="L" horiz-adv-x="335" 
d="M358 172c-20 -5 -74 -39 -90 -50c-47 -31 -92 -63 -139 -94c-27 -19 -52 -34 -79 -51c-11 -7 -22 -13 -37 -9c-13 7 -25 17 -21 32c8 29 20 57 31 85c28 65 56 130 85 194c27 64 91 189 120 253c3 8 6 16 15 20c3 -1 14 -1 17 -2c3 -3 2 -5 5 -6c-1 -3 0 -5 -1 -6
c-12 -27 -24 -52 -36 -77c-32 -72 -95 -206 -127 -278l-64 -152c-4 -9 -7 -19 -10 -28c-1 -4 0 -6 0 -13c15 8 26 14 37 22c45 31 90 60 135 91c27 17 52 33 79 49c8 5 48 29 57 32c5 3 11 1 16 1c4 -1 6 -5 7 -13z" />
    <glyph glyph-name="J" unicode="J" horiz-adv-x="426" 
d="M41 302c-8 3 -9 7 -9 12c3 3 2 5 5 6l53 30c56 32 108 68 163 103c12 9 24 16 35 23c8 5 18 9 25 12c19 0 28 -10 35 -25c7 -17 10 -32 10 -45c1 -33 1 -65 -3 -97c-8 -61 -24 -119 -43 -179c-3 -5 -5 -10 0 -15c20 12 40 25 61 37c11 7 24 12 36 19c13 5 25 5 36 -6
c3 -11 2 -10 -2 -18l-7 2c-3 3 -4 4 -7 5c-3 0 -4 0 -5 -1l-18 -7c-40 -23 -77 -48 -116 -75c-7 -19 -15 -36 -23 -53c-21 -50 -45 -97 -74 -141c-19 -29 -39 -56 -67 -77c-17 -13 -35 -21 -54 -26c-13 -3 -26 -3 -38 1c-27 11 -40 33 -31 61c4 12 9 24 16 35
c11 17 24 34 39 49c29 31 61 58 96 83s69 49 105 76c3 4 5 11 8 18c24 63 44 125 57 192c4 21 8 42 8 65v9c5 21 0 42 -1 63c0 9 -3 17 -9 24c-4 -3 -8 -2 -12 -5c-23 -13 -44 -25 -65 -40c-57 -36 -114 -71 -174 -102c-9 -5 -19 -10 -30 -13zM238 42c-4 -1 -8 0 -11 -3
c-43 -32 -87 -64 -127 -100c-23 -20 -43 -44 -61 -71c-8 -11 -12 -22 -15 -35c-4 -15 5 -27 21 -27c7 0 15 1 22 3c17 5 32 13 45 26c15 15 28 29 40 46c33 47 59 96 82 149c3 4 2 8 3 13c1 1 2 1 2 1c-1 -1 -1 -1 -1 -2z" />
    <glyph glyph-name="G" unicode="G" horiz-adv-x="459" 
d="M307 341c-4 -3 -7 -3 -10 -6c-20 -20 -41 -40 -60 -61c-44 -48 -89 -93 -137 -136c-16 -15 -33 -26 -54 -33c-8 -3 -16 -3 -24 1c-14 5 -21 15 -21 30c-1 11 0 23 2 38c5 24 14 47 25 70c35 75 77 142 137 198c8 8 18 16 30 25c19 15 41 23 65 26c24 -3 39 -14 43 -42
c-1 -3 -3 -4 -6 -7c-5 4 -6 4 -9 7c-3 5 -5 10 -8 17l-5 4c-12 3 -24 1 -37 -5c-17 -8 -32 -19 -47 -32c-43 -39 -76 -83 -104 -132c-20 -35 -38 -69 -51 -106c-5 -15 -9 -30 -12 -45c-1 -7 0 -12 1 -19c0 -3 2 -5 5 -8c12 3 21 8 32 15c12 9 25 19 36 30
c55 51 107 104 156 160c14 15 28 29 43 43h24c12 -8 15 -19 16 -31c3 -23 -3 -45 -8 -68c-13 -68 -28 -132 -51 -197c-1 -3 0 -6 -1 -13l42 35c29 23 56 46 87 69c12 9 26 16 39 24c9 5 18 6 27 6c14 -1 21 -9 20 -23c0 -3 -1 -5 -2 -8c-1 -1 -1 -3 -4 -4s-5 -1 -9 -4
c-4 5 -8 8 -13 15c-3 0 -5 0 -6 -1c-19 -12 -36 -23 -53 -36c-48 -39 -95 -77 -140 -120l-6 -6c-17 -45 -32 -88 -49 -131c-16 -43 -35 -83 -60 -120c-19 -29 -42 -53 -71 -72c-19 -12 -36 -19 -60 -14l-17 16c-5 23 0 42 8 61c15 33 32 62 53 91c44 60 93 112 148 163
c8 7 14 16 18 27c23 69 45 138 62 210c7 31 12 60 17 89c1 3 -1 6 -1 10zM30 -300c3 0 4 -1 7 -1s7 1 10 3c11 7 21 14 29 21c19 16 34 34 46 54c33 53 56 109 77 168c0 0 -1 2 -2 7c-2 -1 -4 -3 -7 -6c-36 -39 -71 -76 -102 -119c-19 -25 -34 -50 -47 -78
c-5 -11 -9 -22 -12 -33c-1 -4 0 -9 1 -16z" />
    <glyph glyph-name="U" unicode="U" horiz-adv-x="370" 
d="M334 365c-7 0 -10 -6 -13 -11c-23 -29 -43 -60 -66 -89c-36 -51 -71 -97 -107 -144c-16 -24 -34 -45 -55 -64c-15 -12 -26 -21 -41 -28c-18 -7 -32 0 -42 19c-5 9 -9 21 -10 36c-1 27 2 54 8 81c16 65 58 188 85 249c5 12 8 24 19 31c15 4 14 4 17 -16
c-15 -15 -21 -33 -28 -52c-16 -48 -58 -158 -69 -208c-7 -31 -12 -61 -9 -94c1 -7 2 -16 9 -23c7 -3 14 -1 21 4c12 9 25 17 36 29c24 29 48 57 72 88l74 102c31 41 59 83 87 124l55 79c4 7 10 11 14 18c11 3 17 -1 20 -12c-1 -11 -6 -21 -10 -32c-32 -72 -56 -148 -79 -224
c-35 -115 -31 -90 -55 -209c-7 -25 -9 -51 -14 -76c-1 -8 2 -17 3 -26c-3 -1 -3 -3 -6 -6c-8 1 -14 5 -18 14l-2 6c-3 27 2 52 7 79c28 135 24 132 68 264c8 27 17 51 26 76l3 17c1 1 5 0 2 3c-1 -1 -1 -2 -2 -5z" />
    <glyph glyph-name="P" unicode="P" horiz-adv-x="323" 
d="M109 129c-23 -35 -43 -72 -61 -111c-7 -12 -9 -26 -12 -39c-3 -19 -7 -38 -4 -58c-3 -1 -7 -1 -10 -4l-21 19c-2 11 -1 21 2 30c4 12 7 23 12 34c7 15 9 27 12 42c9 41 16 81 25 121c19 85 42 168 69 252c3 9 3 18 6 27c1 7 3 12 11 17l10 -5c4 -12 2 -23 -1 -34
c-11 -35 -19 -68 -30 -103l-44 -161v-8c3 -4 7 -5 12 -2c7 3 11 9 15 16c28 43 56 84 87 124c25 32 50 63 77 94c16 17 32 34 51 50c9 7 18 12 27 19c5 3 9 6 14 8c26 9 42 -1 47 -28c3 -19 -1 -35 -8 -54c-13 -31 -31 -60 -54 -86c-35 -39 -72 -71 -116 -96
c-39 -21 -76 -41 -116 -64zM142 176l2 2c4 1 9 1 13 4l49 29c53 31 97 73 133 122c21 28 38 58 41 95l-7 9c-4 -3 -9 -3 -12 -6c-28 -17 -51 -39 -72 -63c-41 -47 -79 -93 -114 -142c-11 -15 -24 -29 -31 -48z" />
    <glyph glyph-name="V" unicode="V" horiz-adv-x="316" 
d="M51 337c7 -1 12 -1 17 -1c3 -7 4 -11 4 -16c1 -19 -5 -35 -9 -54c-11 -47 -19 -93 -26 -140c-4 -31 -5 -59 -5 -88c0 -11 3 -23 8 -35c1 -3 4 -5 7 -8c25 7 43 22 60 39c28 27 51 58 71 91c27 43 49 90 68 138c27 64 50 127 70 194c9 29 17 58 24 87c1 4 1 9 1 12
c-3 8 -15 10 -8 19c2 2 3 3 4 3c11 3 19 -2 26 -14c3 -15 1 -29 -2 -45c-12 -51 -26 -99 -45 -150c-21 -61 -42 -122 -69 -182c-23 -52 -51 -100 -87 -144c-14 -17 -31 -34 -50 -51c-9 -8 -21 -13 -32 -20c-32 -15 -61 -1 -72 34c-3 10 -5 21 -6 32c0 24 0 48 3 72
c4 36 11 72 19 108c3 19 8 34 12 53l10 46c3 7 4 12 7 20z" />
    <glyph glyph-name="F" unicode="F" horiz-adv-x="332" 
d="M169 462c-20 1 -57 -15 -92 -42c-9 3 -9 2 -14 10c0 2 1 4 2 5c11 16 26 27 45 35c19 9 39 17 58 24c10 5 19 8 28 11l63 9l59 9c27 3 53 3 80 6c19 1 35 -2 52 -5c10 -1 19 -6 26 -14c3 -3 3 -4 4 -7c1 -2 1 -5 1 -8c-3 -5 -7 -6 -12 -3l-11 9c-23 5 -45 8 -68 3
c-7 -3 -15 -1 -22 -1l-71 -9c-27 -4 -51 -9 -78 -14c-4 -1 -8 -2 -12 -5c-13 -23 -46 -159 -56 -232c2 -2 3 -3 4 -2c7 1 12 1 19 4l23 5s1 1 24 6c16 4 34 5 51 8c5 1 10 1 17 1c16 -1 26 -9 30 -24c-1 -3 -3 -3 -4 -6c-3 -1 -4 -2 -5 -1c-15 5 -28 4 -41 1
c-72 -19 -55 -15 -125 -39l-3 -3c-3 -8 -4 -17 -7 -28l-23 -138c-4 -31 -7 -59 -12 -90s-9 -59 -12 -90v-22l-6 -6l-11 6c-2 2 -3 4 -3 6c-3 23 -2 43 1 66l9 62c5 33 8 66 13 98l20 122c-5 7 -11 5 -16 2c-25 -7 -49 -15 -74 -23l-9 -3c-8 3 -12 9 -11 16c3 7 8 12 15 15
l50 24c16 7 31 12 50 19c3 4 5 8 6 13c12 75 29 145 49 217c1 1 0 2 -1 3z" />
    <glyph glyph-name="S" unicode="S" horiz-adv-x="305" 
d="M285 463c4 -13 3 -26 -4 -40c-7 -13 -12 -27 -19 -40c-3 -4 -4 -6 -5 -9c-7 -3 -11 -1 -14 4c0 3 -1 5 -1 6c4 11 9 19 13 30l12 33c-4 4 -8 4 -13 1c-15 -11 -30 -21 -45 -34c-34 -31 -62 -65 -85 -104c-8 -12 -12 -24 -16 -36c-3 -7 -2 -15 -2 -20c7 -13 15 -20 24 -25
c8 -7 17 -11 24 -15c19 -12 34 -25 45 -44l6 -6c4 3 6 3 10 6c25 19 49 36 74 52c11 7 20 12 31 17c13 5 25 1 34 -11l2 -12c-2 -1 -4 -3 -5 -6l-19 7c-13 0 -56 -30 -120 -81l-2 -15c-1 -24 -8 -46 -19 -67c-23 -47 -50 -91 -89 -126c-13 -12 -28 -22 -45 -30
c-11 -3 -19 -5 -30 -2c-11 4 -14 6 -25 21c-5 23 1 40 12 59s22 35 35 48c31 36 66 66 103 97c11 8 21 16 30 27c0 15 -7 23 -16 31c-12 11 -25 17 -38 26c-8 5 -16 10 -24 17c-19 16 -29 37 -16 70c5 15 12 28 19 40c33 47 72 88 117 123c8 7 18 12 27 17c13 4 26 6 34 -9z
M26 -82c9 1 13 -1 20 2c12 7 24 12 33 23c16 15 30 30 43 49c24 32 43 66 58 103c1 4 3 8 -2 13c-19 -15 -35 -28 -52 -43c-31 -27 -56 -55 -79 -87c-9 -12 -13 -24 -20 -39c-3 -5 -1 -10 -1 -21z" />
    <glyph glyph-name="O" unicode="O" horiz-adv-x="301" 
d="M182 490c7 -3 13 -2 24 -5c10 4 21 3 34 -4c12 -7 20 -18 25 -30c9 -24 15 -48 14 -72c-1 -59 -6 -115 -19 -171c-12 -48 -32 -91 -59 -132c-17 -27 -38 -52 -62 -74c-9 -10 -19 -19 -31 -26c-20 -12 -41 -20 -69 -13c-21 9 -32 26 -34 49c-5 29 -4 56 1 83
c9 42 21 82 36 119c28 77 61 153 102 226c7 12 13 24 24 36c3 5 7 9 14 14zM34 -9c8 -12 16 -14 25 -11c11 3 20 7 29 13c35 21 58 48 79 79c37 53 64 111 76 176c4 27 9 51 10 78c4 31 3 64 -2 98c-3 15 -6 28 -17 39c-13 5 -22 2 -28 -9c-4 -4 -4 -11 -12 -11
c-4 3 -10 6 -17 9c-11 -17 -19 -32 -26 -49c-35 -67 -65 -134 -90 -205c-13 -36 -24 -71 -31 -110c-3 -23 -4 -46 -4 -69c2 -9 5 -19 8 -28z" />
    <glyph glyph-name="I" unicode="I" horiz-adv-x="258" 
d="M268 566c-7 -27 -13 -51 -18 -78l-35 -159l-49 -208c-9 -39 -18 -76 -26 -115c-1 -7 -3 -11 0 -16c3 -4 7 -2 10 -1l29 13c4 1 9 3 13 3c7 1 11 0 19 0l6 -5c-1 -5 -2 -7 -3 -7c-8 -5 -16 -9 -24 -13c-51 -20 -98 -46 -143 -75c-12 -8 -21 -17 -32 -26
c-11 -3 -12 4 -15 12c4 16 17 26 30 35c15 11 29 18 45 27c8 5 17 8 24 17c7 29 12 57 19 86l35 158c15 64 28 124 43 187l33 140c1 4 0 7 0 14c-16 -1 -28 -6 -43 -9c-28 -7 -55 -16 -81 -27c-15 -7 -26 -11 -37 -23c-11 4 -10 3 -10 18c5 9 13 13 21 18c19 11 40 18 61 25
l97 25l12 18c11 3 12 -6 16 -9c3 -1 5 -2 6 -2l24 4c35 7 70 13 106 14c8 0 15 0 22 -1c9 0 17 -4 24 -12c5 -5 4 -11 -1 -16c-7 3 -13 7 -24 11c-56 -4 -98 -7 -154 -23z" />
    <glyph glyph-name="ampersand" unicode="&#x26;" horiz-adv-x="439" 
d="M144 -183c-9 3 -15 9 -17 17c-5 27 -7 52 -3 79c5 27 8 55 13 82c1 5 0 10 0 15c-3 3 -6 3 -11 2c-19 -3 -38 -3 -57 1l-22 2c-8 3 -17 3 -24 6c-18 9 -28 24 -30 43c-3 21 5 40 17 57c11 17 26 33 44 48c37 31 78 59 121 82l9 6c7 11 6 10 6 21l-32 8l-28 9l-18 8
c-25 17 -32 42 -12 69c16 21 37 38 63 53c15 8 30 17 47 22l19 8c15 69 31 137 54 202c4 4 9 5 14 2c4 -3 6 -7 5 -12c0 -3 -1 -8 -2 -13l-39 -152l-3 -22c15 -5 30 -10 33 -29c-3 -12 -6 -26 -18 -35c-6 -1 -10 2 -11 7c0 11 10 17 7 28c-5 7 -10 3 -17 2
c-8 -23 -10 -44 -15 -67l-14 -68c4 -5 7 -11 14 -18v-22c-7 -12 -17 -18 -26 -25c-8 -27 -36 -155 -36 -181c9 -3 18 0 26 3c37 9 72 20 105 40c23 15 44 33 62 55c3 3 4 5 7 9h14c1 -3 3 -8 6 -13c-11 -27 -29 -47 -52 -63c-39 -29 -80 -46 -127 -57l-49 -11l-8 -29
c-4 -31 -10 -59 -14 -90c-3 -17 -3 -35 1 -52c1 -7 2 -12 2 -19c0 -1 -1 -4 -4 -8zM146 48c7 31 11 59 18 86l12 62c1 4 3 9 -4 13c-11 -3 -19 -11 -28 -16c-32 -21 -61 -45 -88 -74c-12 -13 -22 -27 -27 -44c-3 -7 -1 -11 -2 -18c12 -13 27 -6 40 -13c27 0 52 -4 79 4z
M197 307c3 7 3 12 6 19c7 28 10 56 17 83c0 5 3 9 -4 13c-31 -13 -59 -31 -83 -56c-9 -9 -15 -17 -18 -32c4 -3 7 -7 12 -10c23 -9 43 -16 70 -17z" />
    <glyph glyph-name="numbersign" unicode="#" horiz-adv-x="371" 
d="M94 22c-12 -3 -15 2 -18 7l2 7c32 53 64 106 99 158c4 5 10 10 7 19c-23 3 -43 -7 -64 -7c-17 -17 -17 -20 -51 -83c-15 -27 -26 -56 -37 -84c-11 -5 -14 -1 -17 7c3 19 9 37 18 56l33 67c5 8 9 16 13 24c-5 7 -11 3 -15 2c-15 -3 -29 -4 -42 -7c-7 4 -9 9 -6 16
c24 13 53 14 82 22c13 19 23 41 36 62c-16 5 -29 -4 -44 -4c-15 1 -29 -3 -44 -4c-15 -3 -28 -4 -43 -5c-8 4 -13 8 -9 19c5 3 9 5 16 6c36 5 71 12 107 13c11 0 22 0 34 7c13 16 23 36 35 56c19 29 35 58 52 87c4 7 7 11 11 16c5 6 10 7 15 2s6 -10 3 -17
c-9 -17 -16 -33 -27 -49c-15 -27 -31 -50 -47 -77c-3 -5 -9 -10 -6 -18c24 -4 47 1 72 4l26 38c9 15 19 27 28 40c6 8 13 13 20 15c4 3 9 1 13 0c2 -1 5 -3 9 -7c-7 -11 -17 -17 -24 -26l-19 -28c-7 -9 -13 -20 -21 -31c21 -3 40 -2 60 -10c3 -4 6 -10 9 -15
c-3 -4 -3 -7 -6 -11l-19 11c-19 3 -38 1 -59 1l-34 -53c5 -1 9 -2 11 -2l41 4c8 1 16 1 25 1s16 -3 22 -9c4 -4 8 -8 1 -15c-7 0 -15 2 -23 2c-8 1 -16 0 -24 0l-25 -4l-25 -2c-7 -1 -14 -2 -23 -5c-44 -67 -84 -132 -128 -196zM169 293c-21 -27 -31 -45 -35 -62l74 10
c11 17 19 33 30 50c1 1 -1 2 -1 5c-7 0 -14 1 -21 0c-16 0 -31 0 -47 -3z" />
    <glyph glyph-name="at" unicode="@" horiz-adv-x="356" 
d="M204 263c-7 -8 -13 -13 -18 -20c-11 -11 -19 -23 -30 -32c-16 -15 -33 -24 -56 -19c-9 4 -16 11 -19 22c-2 13 -1 23 2 32c8 24 22 45 41 62c15 14 31 24 48 31c29 12 43 8 66 -17c1 -12 1 -23 -1 -34c-4 -16 -4 -31 -7 -47c-1 -7 1 -14 7 -21c9 5 17 14 24 25
c11 19 21 39 28 59c8 23 8 43 7 66c-5 43 -47 72 -82 61c-48 -7 -82 -33 -113 -68c-32 -39 -54 -82 -63 -130c-7 -32 -8 -64 3 -96c11 -27 25 -50 52 -65c15 -9 31 -17 48 -22c13 -4 26 -5 41 -2c19 3 32 13 41 28c5 8 9 15 14 26h9c7 -7 6 -11 5 -18
c-3 -20 -28 -55 -56 -58c-7 -1 -12 -1 -23 -4c-11 3 -24 4 -39 8c-28 7 -53 22 -76 39c-27 21 -40 49 -49 81c-8 32 -9 63 -2 95c13 63 42 117 88 163c27 26 58 43 93 51c41 9 78 3 109 -29c24 -26 34 -58 30 -97c-7 -47 -28 -87 -56 -123c-5 -6 -11 -11 -17 -14
c-15 -9 -32 -4 -40 11c-5 8 -7 16 -7 24c0 9 -1 19 -2 32zM107 214c4 0 7 0 10 1c11 4 18 11 26 19c27 25 47 55 67 84c0 1 -1 2 -1 5c-19 0 -27 -3 -50 -20c-24 -17 -42 -39 -53 -68c-3 -7 -7 -14 1 -21z" />
    <glyph glyph-name="percent" unicode="%" horiz-adv-x="335" 
d="M130 371c3 -11 3 -19 6 -28c-9 -40 -34 -63 -73 -78c-15 -5 -28 -1 -37 11c-7 8 -7 18 -4 26c3 14 9 26 16 35c7 8 12 17 19 24c8 7 16 13 24 19c31 11 59 20 87 31c35 15 70 28 105 41l24 8c8 3 15 0 22 -7c6 -7 7 -15 3 -23c-4 -11 -9 -20 -16 -29
c-31 -45 -62 -91 -94 -136c-55 -76 -107 -150 -158 -229l-33 -50l-13 -14c-5 3 -9 4 -11 5c-6 8 -6 16 -1 24c5 11 11 19 18 30l168 249l93 130l11 18c-21 -3 -36 -12 -53 -19c-17 -5 -33 -12 -49 -19c-17 -7 -34 -12 -54 -19zM113 356c-8 2 -15 3 -20 3
c-21 -19 -38 -35 -49 -62c-1 -2 0 -6 1 -11c23 3 37 14 52 29c9 11 17 22 16 41zM257 183c0 -3 1 -6 2 -10l-22 -11c4 -7 7 -11 10 -18c7 -15 8 -31 5 -49c-1 -7 -5 -13 -9 -20c-13 -18 -31 -29 -55 -32c-19 -3 -34 8 -38 25c-1 6 -1 11 1 16c12 43 37 76 75 98
c9 5 12 5 31 1zM174 70c7 -3 16 -2 26 3c11 6 19 14 25 25c5 8 6 18 5 29c-1 7 -3 14 -11 19c-13 -8 -21 -20 -29 -33c-8 -12 -16 -26 -16 -43z" />
    <glyph glyph-name="plus" unicode="+" horiz-adv-x="352" 
d="M-7 179c-2 6 0 11 5 14c7 5 13 7 18 8c19 5 40 9 62 12l69 8c13 40 13 85 33 122c6 4 12 4 17 1c5 -4 6 -10 5 -18l-9 -40l-13 -45c-1 -7 -4 -12 1 -19c41 1 82 3 122 -5c5 -1 8 -3 11 -6c5 -7 6 -13 1 -18c-3 -1 -4 -2 -5 -1c-12 4 -24 5 -36 5c-23 -1 -45 -1 -68 -1
c-13 0 -25 -2 -37 -7c-3 -7 -3 -12 -6 -19c-7 -27 -10 -54 -17 -81c-3 -8 -3 -15 -10 -22c-9 2 -13 6 -13 11c1 11 0 21 3 32c4 23 9 44 14 67c0 5 0 8 -1 10c-3 1 -4 2 -3 2c-16 -3 -33 -3 -49 -6l-79 -9c-7 -1 -12 0 -15 5z" />
    <glyph glyph-name="backslash" unicode="\" horiz-adv-x="323" 
d="M-3 472c3 -1 6 -1 9 -4c4 -3 7 -8 10 -13c21 -39 46 -75 70 -112c23 -35 45 -71 69 -106c39 -59 80 -115 120 -175c7 -9 12 -17 16 -26c-7 -8 -11 -7 -18 -4c-3 1 -6 4 -9 7c-15 17 -29 32 -42 51c-32 45 -63 88 -94 135c-43 64 -83 128 -119 196l-15 32c-3 7 -4 12 3 19
z" />
    <glyph glyph-name="two" unicode="2" horiz-adv-x="313" 
d="M22 282l-3 -7c-8 -1 -13 3 -14 11c-3 12 -1 24 5 37c7 12 14 24 23 35c17 23 36 41 59 57c19 12 35 19 58 12c19 -9 27 -26 26 -50c-3 -21 -9 -41 -16 -61c-19 -52 -40 -103 -65 -154l-51 -104c-3 -4 -2 -9 -5 -13c4 -4 8 -2 13 -1c56 21 109 42 165 62c11 4 20 8 31 11
c7 3 12 2 19 3c6 0 11 -2 14 -6c4 -4 4 -5 3 -20c-5 -3 -10 -4 -17 -7c-45 -19 -90 -36 -135 -55c-29 -12 -59 -25 -91 -32c-9 -2 -18 -2 -27 1c-9 4 -15 10 -20 18c-3 11 -2 24 5 37c15 27 27 52 40 79c35 67 64 133 89 204c5 13 9 25 12 37c3 7 1 13 2 20c-5 5 -9 6 -13 3
c-12 -7 -22 -12 -33 -20c-16 -15 -32 -30 -47 -47c-13 -15 -23 -30 -27 -50z" />
    <glyph glyph-name="slash" unicode="/" horiz-adv-x="274" 
d="M7 -17c-5 -3 -10 -3 -13 2c-3 6 -2 13 3 21c13 23 24 46 39 69c48 73 95 146 144 218c35 53 74 103 114 152c9 11 17 23 28 34c7 8 13 13 20 20c16 1 16 1 21 -8c-132 -161 -252 -329 -356 -508z" />
    <glyph glyph-name="seven" unicode="7" horiz-adv-x="261" 
d="M256 489c-29 1 -54 1 -78 -3c-21 -3 -59 -4 -78 -1c-3 3 -3 7 -4 10c2 3 4 5 5 5c5 3 10 4 13 5c21 3 42 4 63 7l54 4c7 1 13 1 20 0c17 -3 31 -10 35 -29c0 -1 1 -4 2 -8c-3 -23 -12 -42 -21 -62l-138 -294c-29 -64 -56 -125 -84 -189l-20 -39c-3 -4 -7 -8 -12 -12
c-5 3 -10 5 -13 6l-8 15l50 117l51 118l51 116c19 39 36 78 55 117c17 39 41 74 57 117z" />
    <glyph glyph-name="five" unicode="5" horiz-adv-x="306" 
d="M153 381l9 24c-11 13 -10 13 -10 26c9 12 24 12 36 16c11 11 22 21 33 30c7 7 15 9 24 6c11 -7 4 -18 9 -27c32 -3 61 14 93 11c3 -4 5 -9 8 -12c-1 -4 -2 -6 -3 -6l-23 -9c-39 -11 -79 -17 -119 -24c-12 -17 -21 -35 -27 -56c-5 -19 -3 -37 7 -56l21 -32
c8 -12 15 -25 19 -40c8 -28 6 -57 -7 -86c-11 -23 -25 -43 -42 -60c-33 -35 -71 -62 -111 -87c-13 -8 -27 -13 -46 -16c-5 3 -13 4 -22 7c-3 7 -6 15 -10 22c3 13 6 25 15 36c4 5 9 9 14 13c4 4 9 5 15 3l11 -10c-8 -13 -22 -21 -25 -37c3 -5 7 -4 11 -1c21 11 39 24 56 39
c24 20 48 41 67 65c12 15 23 30 30 47c4 11 7 20 10 31c4 27 0 50 -16 73c-5 7 -10 14 -14 21c-11 15 -15 31 -18 48c-3 15 2 28 5 41z" />
    <glyph glyph-name="asciitilde" unicode="~" horiz-adv-x="319" 
d="M250 258c9 -2 15 -8 17 -19c-1 -3 -2 -8 -5 -13c-10 -15 -22 -29 -37 -40c-20 -14 -43 -18 -69 -12c-17 3 -35 9 -52 16c-22 9 -42 5 -61 -11c-12 -11 -23 -19 -30 -34c-7 -3 -12 -2 -17 3c-5 7 -5 16 0 25c13 24 30 41 51 52c15 7 31 9 46 5c7 -3 12 -2 19 -5
c17 -5 35 -9 51 -14c11 3 20 4 29 7c14 5 26 13 36 24c7 7 13 13 22 16z" />
    <glyph glyph-name="zero" unicode="0" horiz-adv-x="290" 
d="M158 473c21 -1 38 -9 51 -22c31 -34 43 -75 36 -123c-11 -83 -39 -157 -82 -225c-23 -35 -49 -64 -84 -80c-13 -7 -25 -8 -38 -8c-19 2 -33 13 -41 34c-5 11 -7 22 -7 33c-1 31 1 60 10 89c10 36 22 71 36 104c23 51 46 101 77 148c12 19 26 36 42 50zM149 422
c-3 -4 -6 -8 -7 -11l-33 -58c-31 -60 -57 -120 -78 -185c-7 -24 -11 -47 -14 -72c-3 -19 0 -36 13 -49c19 -4 33 4 48 13c21 15 40 34 55 59c43 68 69 142 80 226c3 20 -1 38 -5 57c-4 17 -14 29 -29 36c-9 -15 -1 -30 2 -45c-9 -6 -14 -6 -17 0c-5 9 -8 18 -15 29z" />
    <glyph glyph-name="six" unicode="6" horiz-adv-x="245" 
d="M270 508c-11 -1 -10 7 -15 14c-7 -7 -12 -12 -17 -19c-35 -45 -66 -94 -94 -145l-49 -92c-3 -4 -2 -8 -5 -12c8 -5 13 -4 20 -1c15 5 26 4 41 4c29 0 48 -14 57 -43c5 -14 6 -28 3 -43c-5 -25 -15 -47 -28 -68c-25 -41 -54 -76 -88 -105c-12 -10 -25 -19 -39 -27
c-16 -9 -33 -10 -48 2c-10 12 -15 26 -15 43c-3 35 5 68 13 101c13 47 30 92 49 137c35 77 77 152 126 223c17 24 35 48 56 71c7 5 12 11 19 16c4 4 9 5 14 8c13 3 25 -9 21 -21c-5 -17 -12 -32 -21 -43zM186 195c-4 15 -5 27 -21 34c-19 3 -38 3 -58 -2c-3 0 -3 -3 -6 -4
c-1 -5 4 -9 -1 -14c-5 -3 -9 -5 -14 -4c-5 3 -10 5 -17 -2c-1 -1 -3 -4 -4 -8c-17 -40 -28 -80 -39 -123c-5 -23 -6 -42 -5 -65c0 -5 1 -9 1 -12c6 -4 12 -5 17 -2c9 4 16 8 22 13c27 19 48 43 68 68c28 35 50 74 57 121z" />
    <glyph glyph-name="dollar" unicode="$" horiz-adv-x="223" 
d="M157 286c17 -19 30 -39 33 -67c-3 -11 -4 -21 -11 -32c-11 -17 -26 -28 -45 -35c-12 -7 -25 -10 -40 -15c-3 -4 -5 -9 -8 -16l-39 -105c-4 -11 -8 -19 -12 -28h-11c-5 3 -6 8 -3 15c10 32 21 64 33 96c3 11 7 20 10 31c-5 5 -9 1 -13 1c-4 1 -8 0 -11 0
c-11 -1 -21 1 -30 5c-3 1 -7 3 -12 7c-7 5 -7 13 -4 20c5 9 12 12 21 10c2 -1 5 -3 8 -6c0 -3 1 -3 1 -6l-2 -7c19 -4 35 -1 54 6c19 41 34 82 50 125c-13 16 -25 31 -28 55c3 7 5 15 9 23c8 16 21 25 37 32c9 4 18 7 29 11c17 33 25 72 54 99c16 -3 16 -1 19 -16
c-19 -20 -29 -39 -41 -79c3 -5 8 -3 12 -4c16 -2 29 -10 40 -25c0 -7 0 -13 1 -18c-5 -7 -10 -8 -13 -3c-3 4 -5 8 -8 15c-12 9 -25 10 -40 7c-11 -7 -12 -18 -16 -29c-7 -11 -10 -22 -14 -33s-11 -19 -10 -34zM146 265l-6 -11l-31 -79s1 -2 2 -6c29 11 52 26 57 58
c-7 23 -7 23 -22 38zM156 369c-7 1 -11 -5 -16 -8c-2 -1 -5 -4 -8 -7c-5 -7 -9 -14 -9 -23c1 -9 5 -16 10 -21c11 15 22 43 23 59z" />
    <glyph glyph-name="three" unicode="3" horiz-adv-x="265" 
d="M-8 -32c7 11 13 16 21 21c37 27 73 56 106 88c29 28 53 60 66 100c7 20 6 40 3 60c-1 9 -5 18 -13 27l-21 25c-15 21 -18 42 -9 65l15 32c13 20 25 41 38 64l11 25c-7 7 -14 5 -21 2c-16 -5 -31 -11 -46 -18c-27 -13 -52 -28 -75 -47l-21 -20l-3 -17c-3 -1 -5 -2 -7 -2
c-8 1 -13 6 -14 15s1 16 8 23c13 12 23 25 38 36c27 20 55 36 86 49c15 8 32 11 50 10c27 -1 44 -24 37 -49c-4 -13 -9 -26 -16 -38l-31 -56c-5 -8 -8 -18 -13 -27c-4 -8 -4 -16 -3 -27c5 -7 10 -14 17 -22c7 -9 14 -17 20 -26c17 -32 20 -67 9 -104c-8 -31 -22 -56 -41 -80
c-23 -31 -53 -52 -84 -75c-21 -16 -41 -29 -64 -44c-3 -1 -4 -3 -7 -4c-7 -5 -14 -6 -21 -5c-9 3 -12 10 -15 19z" />
    <glyph glyph-name="eight" unicode="8" horiz-adv-x="242" 
d="M96 258c0 15 1 27 0 40c-1 41 12 79 39 112c11 15 24 26 37 38c5 4 11 8 18 12c23 12 36 8 55 -15c4 -17 3 -35 -3 -52c-12 -31 -23 -60 -34 -91c-15 -39 -26 -77 -41 -116c-5 -12 -8 -24 -15 -39c7 -21 7 -44 6 -68c0 -11 -2 -22 -6 -33c-11 -29 -29 -48 -56 -57
c-7 -3 -15 -4 -23 -7c-20 -5 -39 -1 -55 10c-17 11 -24 28 -25 47c-3 31 6 56 18 83c19 40 39 76 66 111c7 9 12 18 19 25zM107 215c-3 -1 -4 -1 -5 -2c-27 -36 -48 -74 -67 -115c-7 -17 -11 -34 -14 -53c-3 -23 10 -41 38 -37c3 0 5 1 8 1c40 11 60 41 63 77
c2 20 0 40 -5 60c-5 23 -9 46 -18 69zM138 203c7 3 6 7 9 11l37 106l32 96c3 7 4 12 0 19c-9 0 -17 -5 -24 -12c-29 -23 -50 -53 -62 -88c-5 -14 -7 -27 -5 -40c0 -1 1 -2 2 -5c7 -1 11 -3 18 -4c3 -4 3 -7 6 -12l-21 -23c-3 -17 5 -32 8 -48z" />
    <glyph glyph-name="nine" unicode="9" horiz-adv-x="219" 
d="M185 433l18 12c4 -3 8 -5 15 -8c3 -5 2 -10 5 -17c-3 -12 -6 -26 -11 -41c-21 -67 -45 -130 -69 -197c-29 -80 -55 -159 -83 -239c-4 -11 -6 -22 -14 -33h-15l-10 16l33 108l33 105c12 36 22 72 35 107c12 35 25 68 37 103c-8 3 -10 -1 -14 -4c-15 -13 -32 -24 -51 -33
c-12 -5 -24 -10 -39 -13c-27 -5 -41 0 -60 23c-7 20 -1 39 11 56c24 33 53 58 88 73c11 4 23 8 35 9c19 3 34 -2 47 -17c4 -4 7 -7 9 -10zM163 432c-25 8 -47 0 -67 -11c-24 -15 -44 -32 -59 -52c-9 -12 -18 -24 -19 -40c3 -3 6 -5 9 -5c9 0 18 0 27 3c21 5 38 15 57 27
c21 15 37 33 56 52c1 3 1 4 2 5c-3 7 -3 12 -6 21z" />
    <glyph glyph-name="four" unicode="4" horiz-adv-x="235" 
d="M216 474c7 -3 12 -4 16 -7c9 -11 12 -23 7 -34c-9 -25 -17 -50 -28 -75c-24 -61 -49 -121 -73 -184c-23 -56 -41 -114 -62 -170c-8 -23 -16 -43 -25 -63c-11 -7 -21 -5 -29 4c-6 6 -7 14 -4 23l22 65c16 48 33 97 50 145c19 55 40 109 63 162c5 10 9 21 13 33
c-5 -3 -6 -2 -9 -5l-33 -33c-15 -15 -34 -25 -53 -33c-8 -4 -16 -5 -24 -6c-23 -1 -45 10 -52 41c-8 43 2 83 30 119c1 3 3 2 6 5c7 2 14 1 19 -2c5 -5 6 -12 4 -22l-14 -9c-13 -32 -27 -65 -11 -102c12 -4 22 -2 33 2c16 7 32 18 48 32c27 25 49 52 72 80c7 9 14 17 23 26
c2 2 6 5 11 8z" />
    <glyph glyph-name="parenleft" unicode="(" horiz-adv-x="139" 
d="M31 -66l-9 -8c-4 3 -9 5 -12 9c-11 13 -16 28 -17 43c-1 28 0 55 4 80c15 104 45 202 80 302c22 64 55 123 100 176c9 11 18 19 29 30c12 11 25 18 41 21c13 -5 13 -4 16 -15c-1 -1 -2 -4 -3 -4c-12 -3 -20 -10 -28 -18c-27 -25 -49 -54 -69 -85
c-30 -49 -54 -101 -72 -154c-20 -57 -37 -114 -52 -174c-11 -41 -16 -81 -23 -124c-3 -27 0 -52 15 -79z" />
    <glyph glyph-name="braceright" unicode="}" horiz-adv-x="148" 
d="M106 306c-9 20 -11 41 -10 62c0 21 -1 41 -1 64c0 15 -3 27 -6 40c0 4 -2 6 -5 9c-16 8 -29 0 -42 -3c-6 3 -8 7 -7 13c11 13 27 16 44 13c14 -2 24 -10 31 -25c5 -11 7 -23 8 -35l4 -99c1 -7 1 -14 1 -21c5 -10 9 -19 12 -27l-3 -9c-15 -19 -17 -38 -20 -59
c-5 -36 -3 -72 -6 -108c-3 -39 -8 -76 -21 -113c-9 -26 -25 -45 -47 -58c-15 -8 -29 -16 -44 -23c-9 -4 -17 -1 -24 8c0 0 0 1 -1 4c3 5 5 8 8 9c9 7 19 11 28 18c27 18 44 43 52 75c11 39 16 78 17 117c1 28 3 55 6 82c3 24 10 47 26 66z" />
    <glyph glyph-name="equal" unicode="=" horiz-adv-x="274" 
d="M10 218c1 11 4 17 10 18c12 3 24 5 36 5c53 3 104 8 159 7c9 0 18 2 26 -5c5 -5 7 -10 4 -16c-5 -7 -11 -5 -18 -5l-74 -2c-37 -2 -75 -5 -112 -9c-11 0 -20 -1 -31 7zM229 182l16 -8c3 -8 2 -14 -3 -17c-29 4 -56 3 -87 -1c-29 -4 -58 -9 -86 -16c-12 -3 -23 -4 -33 -2
c-7 4 -11 8 -8 19c4 3 9 5 14 8c19 5 37 9 56 12l76 9c19 1 36 3 55 -4z" />
    <glyph glyph-name="parenright" unicode=")" horiz-adv-x="206" 
d="M4 -85l-12 14l8 12c13 13 22 29 29 46c23 60 42 119 59 180c13 47 24 92 35 139c13 49 18 100 16 153c-1 33 -9 62 -30 89l-3 6l2 7c1 1 2 2 5 3c15 -3 22 -12 29 -23c17 -27 27 -55 29 -85c5 -59 -2 -115 -18 -171c-24 -88 -49 -175 -81 -260c-8 -23 -17 -46 -28 -69
c-8 -17 -21 -30 -40 -41z" />
    <glyph glyph-name="asciicircum" unicode="^" horiz-adv-x="194" 
d="M13 289c-15 -1 -14 -1 -21 11c7 19 19 30 30 45c17 21 33 42 49 61c11 15 11 14 27 21c10 -1 18 -6 25 -16l13 -23c15 -31 29 -62 40 -94l3 -11c-3 -3 -5 -5 -8 -6c-11 1 -15 8 -18 15l-42 87c-3 7 -7 11 -11 18c-17 -19 -33 -36 -48 -55s-32 -32 -39 -53z" />
    <glyph glyph-name="less" unicode="&#x3c;" horiz-adv-x="201" 
d="M17 235c8 -17 21 -31 38 -44c27 -20 55 -40 79 -64c5 -4 9 -9 13 -14c3 -3 1 -8 2 -12c-3 -5 -8 -6 -13 -3c-4 1 -6 3 -9 6c-25 19 -51 37 -75 56c-15 12 -27 25 -42 40c-6 7 -10 14 -13 21c-9 19 -5 36 10 50l37 32c27 23 50 45 77 68c12 11 25 20 37 31c5 4 9 6 16 9
c3 -5 6 -10 10 -13c-4 -5 -6 -9 -9 -12c-30 -29 -61 -57 -94 -85c-15 -13 -31 -25 -46 -40c-7 -7 -14 -14 -18 -26z" />
    <glyph glyph-name="greater" unicode="&#x3e;" horiz-adv-x="169" 
d="M-8 387l8 7c7 -3 12 -4 15 -7c27 -27 58 -45 87 -68c15 -12 27 -23 42 -36c7 -5 10 -13 13 -17c2 -9 1 -16 -2 -21c-7 -9 -15 -18 -22 -25c-24 -27 -50 -50 -74 -77c-15 -15 -26 -29 -38 -44l-12 -11c-7 1 -12 5 -15 13c3 11 9 17 16 25c32 40 65 79 102 115
c7 7 12 12 17 19c1 7 -4 10 -7 13c-23 16 -43 33 -66 49c-13 11 -26 20 -38 31c-10 9 -19 21 -26 34z" />
    <glyph glyph-name="question" unicode="?" horiz-adv-x="211" 
d="M147 501l16 -3c26 -8 41 -25 45 -51c3 -23 -1 -44 -12 -64c-17 -28 -37 -55 -56 -82c-16 -23 -31 -47 -46 -71c-10 -16 -17 -33 -21 -51l-4 -15c-5 -5 -8 -3 -15 1c-4 16 -3 32 2 47c7 17 13 34 24 49c25 44 51 86 78 130c6 9 12 21 18 34c7 17 6 24 -9 43
c-15 5 -30 4 -47 -5c-15 -7 -18 -11 -33 -35c-6 0 -10 3 -11 10c-2 8 -1 16 3 24c11 19 27 28 47 35c5 1 12 3 21 4zM43 44l-12 2c-7 5 -7 11 -6 18c11 13 22 24 37 35c8 -1 12 -5 13 -14c-7 -15 -23 -22 -32 -41z" />
    <glyph glyph-name="exclam" unicode="!" horiz-adv-x="188" 
d="M58 170c-5 1 -8 2 -9 3c-3 1 -4 4 -7 7c23 85 48 171 75 256l23 74c7 16 13 32 24 45c10 5 18 3 25 -8c-3 -3 -3 -8 -4 -12l-56 -158c-19 -56 -35 -110 -51 -166c-3 -14 -10 -28 -20 -41zM19 111c4 7 10 12 17 15s13 3 18 -1c4 -3 7 -8 10 -12l-13 -28
c-9 -5 -17 -5 -26 0c-7 5 -9 14 -6 26z" />
    <glyph glyph-name="hyphen" unicode="-" horiz-adv-x="250" 
d="M-8 185c1 3 1 7 1 13c8 3 14 7 21 8c15 3 30 5 46 6c33 1 66 2 99 2c7 0 12 2 19 -1c4 -1 8 -5 11 -8c3 -1 3 -1 0 -13c-17 -3 -34 -5 -51 -6l-74 -8c-16 -2 -32 -3 -49 -3c-9 -1 -16 3 -23 10z" />
    <glyph glyph-name="bracketright" unicode="]" horiz-adv-x="139" 
d="M102 547c-17 5 -32 -1 -47 4l-5 6c-1 1 -1 4 -1 7c16 8 35 -1 48 7c11 -3 18 -5 25 -13c1 -4 3 -9 3 -14c0 -27 0 -52 -5 -77c-7 -32 -9 -64 -13 -95l-15 -109c-3 -24 -4 -48 -7 -71c-4 -35 -4 -70 -7 -105c-3 -23 -2 -45 -5 -68c-1 -16 -2 -31 -5 -47
c-1 -7 -4 -11 -7 -18c-19 -12 -36 -19 -59 -18c-7 3 -10 6 -10 14c11 16 31 13 46 25c1 3 3 7 3 11c3 29 3 57 6 85c3 43 3 86 10 129c3 25 4 50 7 74c4 32 9 64 14 95l13 84c4 21 7 42 10 63c1 11 1 20 1 31z" />
    <glyph glyph-name="bracketleft" unicode="[" horiz-adv-x="81" 
d="M18 -12l41 -2c11 -7 19 -12 16 -24c-3 -4 -8 -5 -13 -2s-9 6 -12 9c-18 3 -38 -13 -56 5c0 4 -2 8 -1 15c0 33 -2 66 2 99c3 32 4 64 8 96l13 106c4 31 10 58 15 89l18 117c3 11 3 20 6 29c3 11 7 19 11 28c25 9 50 8 75 7c8 0 13 -5 16 -14c-11 -7 -23 -1 -35 -4
c-11 -3 -23 -2 -34 -5c-8 -8 -8 -17 -11 -26c-5 -23 -8 -47 -12 -70c-5 -29 -10 -58 -14 -87c-3 -15 -4 -31 -7 -46c-7 -40 -12 -80 -16 -120c-4 -27 -4 -54 -7 -82l-6 -102c0 -5 -1 -9 3 -16z" />
    <glyph glyph-name="one" unicode="1" horiz-adv-x="133" 
d="M21 -9c-19 -7 -18 -5 -29 14c12 71 27 140 43 212c15 69 34 138 49 211c-12 -7 -16 -15 -23 -22s-13 -15 -20 -23l-20 -21c-11 3 -10 2 -14 9l2 7l9 14l74 90c13 3 23 -2 29 -15c0 -8 3 -17 0 -28c-4 -29 -9 -58 -14 -86c-8 -39 -16 -77 -25 -116
c-16 -69 -32 -137 -49 -206c-3 -13 -8 -25 -12 -40z" />
    <glyph glyph-name="colon" unicode=":" horiz-adv-x="113" 
d="M52 267c1 4 2 8 5 11c9 7 18 8 26 7c7 -4 11 -9 10 -16c0 -5 -1 -10 -1 -17c-4 -3 -9 -6 -14 -11c-11 7 -21 10 -26 26zM54 98c-9 3 -15 8 -19 16c-2 5 -2 11 0 16c5 9 15 14 23 10c11 -4 17 -15 13 -26c-3 -7 -8 -12 -17 -16z" />
    <glyph glyph-name="asterisk" unicode="*" horiz-adv-x="214" 
d="M37 304c5 16 11 31 16 50c-20 -5 -37 -24 -56 -21c-5 9 -6 8 -3 19c11 7 20 14 31 22c-5 4 -10 7 -15 10c0 5 0 9 -1 12c3 3 3 3 6 4c17 4 34 -1 53 -4c12 16 13 37 28 52c16 1 16 1 27 -19c13 3 22 14 37 7c4 -3 5 -8 2 -14c-17 -9 -35 -19 -52 -30c-1 -7 2 -7 6 -8
c15 -4 30 -7 45 -12c5 -1 10 -4 15 -7s5 -7 2 -12c-5 -5 -11 -3 -18 -2c-20 5 -41 10 -61 14c-3 1 -6 0 -9 0c-15 -23 -19 -50 -36 -73c-1 -1 -3 -1 -6 -1c-6 0 -10 4 -11 13z" />
    <glyph glyph-name="braceleft" unicode="{" horiz-adv-x="94" 
d="M77 -40l14 9c8 1 13 -2 16 -9c0 -3 0 -5 -1 -6c-3 -7 -8 -12 -15 -15c-6 -3 -13 -2 -21 1c-19 7 -34 18 -47 33c-21 20 -30 45 -31 74c0 29 1 57 4 85c5 37 10 73 17 109c3 15 2 28 3 43c-7 9 -11 16 -16 25c3 5 5 11 10 16c28 28 46 63 65 98l39 76l14 23
c9 15 21 26 36 33h22c11 -7 22 -14 21 -30l-8 -4c-7 5 -11 10 -18 17c-15 -7 -24 -18 -32 -30c-7 -11 -13 -21 -18 -31c-9 -16 -17 -32 -25 -49c-21 -43 -43 -83 -75 -119c5 -13 13 -26 14 -41c1 -7 2 -15 2 -22c-3 -17 -4 -35 -7 -52c-4 -24 -7 -48 -10 -73
c-3 -23 -4 -43 -4 -66c0 -15 3 -29 6 -44c0 -3 2 -7 5 -12c11 -19 24 -32 40 -39z" />
    <glyph glyph-name="bar" unicode="|" horiz-adv-x="149" 
d="M92 509h10c4 -5 7 -9 8 -12v-4c-5 -23 -3 -43 -6 -66l-9 -71c-4 -31 -7 -59 -10 -90v-3c-3 -31 -4 -59 -7 -90c-3 -41 -3 -83 -10 -124c0 -5 0 -11 -1 -16l-9 -88v-19c-1 -3 -2 -2 -5 -5c-11 0 -15 7 -18 15c-1 4 -1 8 0 11c0 20 -2 41 3 61c1 1 1 4 1 8c3 41 3 83 7 124
c4 36 2 73 9 109c3 23 2 46 6 69s7 47 10 71l8 60c3 15 3 31 6 46c1 5 4 10 7 14z" />
    <glyph glyph-name="quotedbl" unicode="&#x22;" horiz-adv-x="71" 
d="M7 432l10 -10c-1 -8 0 -13 -3 -20c-1 -7 -3 -11 -4 -16l6 -9c3 1 4 2 5 3c5 13 9 26 16 39l9 15c11 3 14 -4 17 -12c-15 -29 -26 -60 -25 -93c-9 -2 -14 -1 -15 2l-9 30c-7 3 -13 7 -20 11c-3 20 -6 40 13 60z" />
    <glyph glyph-name="quotesingle" unicode="'" horiz-adv-x="68" 
d="M7 328l-14 15c3 8 6 16 10 23v30l-10 13c0 3 0 5 -1 6c0 9 3 15 10 18c8 2 14 -1 19 -10c3 -5 5 -10 5 -15c1 -17 1 -35 0 -52c-1 -13 -4 -16 -19 -28z" />
    <glyph glyph-name="semicolon" unicode=";" horiz-adv-x="159" 
d="M7 -6c-11 3 -17 4 -14 15c31 17 39 49 48 81c3 8 1 17 1 28h11c15 -13 13 -30 9 -46c-5 -23 -20 -50 -39 -73c-5 -1 -10 -2 -16 -5zM70 273c4 -3 6 -4 9 -5c11 -11 10 -20 -2 -27c-3 -2 -7 -4 -12 -5c-17 8 -17 8 -16 25c2 2 4 3 6 4c4 3 8 5 15 8z" />
    <glyph glyph-name="comma" unicode="," horiz-adv-x="90" 
d="M18 91c13 8 20 4 27 -3c7 -12 4 -25 0 -37l-21 -44c-4 -7 -10 -10 -17 -14s-13 0 -17 12c21 25 35 53 28 86z" />
    <glyph glyph-name="period" unicode="." horiz-adv-x="68" 
d="M40 98c-3 -3 -5 -5 -8 -6c-9 -3 -18 2 -19 10c-1 7 0 13 0 17c6 6 12 7 19 4c11 -7 11 -14 8 -25z" />
    <glyph glyph-name="grave" unicode="`" horiz-adv-x="126" 
d="M110 341c-5 -3 -10 -2 -15 -5c-4 3 -10 6 -13 9l-28 34c-16 21 -32 41 -48 64c-3 3 -4 7 -5 11c3 7 7 7 14 8c12 -5 18 -16 25 -25l44 -62c5 -5 9 -11 13 -15c3 -4 9 -6 14 -10c0 -4 0 -7 -1 -9z" />
    <glyph glyph-name="underscore" unicode="_" horiz-adv-x="383" 
d="M-8 51c1 3 1 7 1 13c8 3 14 7 21 8c15 3 30 5 46 6c33 0 186 2 219 2c7 0 12 2 19 -1c4 -1 8 -5 11 -8c3 -1 3 -1 0 -13c-17 -3 -34 -5 -51 -6c-24 -3 -170 -5 -194 -8c-16 -2 -32 -3 -49 -3c-9 -1 -16 3 -23 10z" />
    <glyph glyph-name="D" unicode="D" horiz-adv-x="660" 
d="M550 562c-15 -3 -24 -10 -33 -17c-23 -17 -44 -37 -63 -58c-29 -35 -59 -68 -87 -103c-72 -85 -137 -175 -193 -272c-33 -56 -62 -112 -86 -172l-11 -28c-3 -7 -5 -14 -8 -19c-9 -5 -16 -4 -23 4c-4 11 -2 22 1 33l39 163c11 41 17 81 24 124c3 19 2 41 -2 58
c-3 0 -7 1 -10 -2c-7 -7 -14 -12 -19 -19c-21 -27 -38 -56 -51 -85c-7 -16 -12 -31 -11 -48c-3 -1 -7 -4 -8 -3c-4 3 -6 5 -7 7c-3 11 -3 21 0 30c2 8 4 14 7 19c15 33 30 65 53 96c11 15 23 28 44 31c17 -3 26 -13 28 -32c3 -15 5 -26 1 -41c-3 -55 -15 -107 -27 -160
c-3 -6 -3 -12 0 -17l39 70c27 47 57 93 88 137c31 43 62 84 95 125c25 32 51 62 78 93c21 25 44 49 68 72l30 24c11 8 21 13 36 16c3 0 4 -1 7 -1c23 -7 31 -17 32 -40c1 -19 0 -38 -3 -57c-19 -101 -51 -196 -88 -292l-7 -18c-1 -1 -1 -3 -1 -6c2 -3 5 -4 9 -1
c44 17 35 11 79 24c27 7 54 12 82 9c8 0 15 -1 21 -4c9 -5 16 -14 19 -26c1 -5 -3 -10 -11 -13c-9 3 -8 13 -13 20c-3 1 -4 3 -7 4c-9 1 -19 1 -30 -1c-56 -8 -53 -7 -104 -26c-21 -8 -42 -17 -63 -26c-7 -11 -11 -19 -16 -30c-16 -35 -34 -67 -55 -99
c-25 -36 -53 -66 -92 -89c-23 -13 -45 -22 -70 -22c-4 0 -8 1 -11 1c-23 4 -37 22 -30 45c3 9 7 19 12 27c19 31 41 52 68 75c51 43 107 78 167 109c11 19 18 39 26 60c23 57 43 114 60 174c11 40 20 80 28 120c4 19 3 38 -1 57zM415 104c-5 -1 -8 -1 -9 -2
c-28 -19 -56 -36 -83 -55c-29 -21 -57 -47 -83 -76c-11 -12 -18 -24 -23 -37c-3 -5 -3 -11 4 -16c16 -3 31 3 46 10c29 13 53 32 72 55c31 36 55 74 76 121z" />
    <glyph glyph-name="m" unicode="m" horiz-adv-x="455" 
d="M190 130c27 31 49 58 72 85c19 20 38 40 58 59c7 7 14 11 21 15c11 -1 18 -5 23 -11c0 -1 1 -3 2 -6c1 -11 0 -22 -4 -32l-20 -63c-7 -16 -9 -33 -13 -50c-1 -7 -1 -15 0 -22c0 -3 2 -4 3 -7c9 -3 14 3 21 7l55 42c8 6 39 34 47 39c10 -2 15 -8 14 -17c-3 -3 -4 -6 -7 -9
c-21 -15 -67 -59 -88 -74c-11 -8 -22 -12 -37 -15l-19 7c-13 12 -19 28 -19 48c0 19 3 37 10 56c5 17 10 33 17 50l2 10c-7 4 -7 0 -10 -3c-28 -27 -53 -56 -78 -85c-11 -12 -18 -25 -29 -37l-24 -25c-5 0 -7 -1 -10 -1c-11 2 -16 7 -16 16c-1 15 0 28 4 41l26 81l14 41
c-5 4 -7 1 -10 -2c-7 -5 -11 -9 -18 -16l-83 -93l-38 -46c-11 -12 -19 -22 -30 -33c-7 -7 -11 -11 -22 -10c-7 1 -7 2 -18 17c-5 40 9 79 18 118c0 3 4 4 5 7c9 1 12 -3 15 -10c-5 -21 -10 -43 -14 -66c-2 -12 -3 -24 -3 -35c-1 -1 0 -4 3 -9c12 11 21 22 30 33
c45 56 92 109 143 161l14 13c5 5 11 9 18 13l17 -8c3 -11 3 -23 -2 -36l-26 -81l-14 -45c-1 -3 0 -5 0 -12z" />
    <glyph glyph-name="A" unicode="A" horiz-adv-x="833" 
d="M777 603c23 -8 27 -13 28 -33c1 -27 -4 -51 -9 -76c-16 -76 -36 -147 -56 -222l-3 -18c-1 -1 0 -3 2 -6c3 0 8 1 15 2c6 0 11 0 14 1c5 0 11 2 16 2c19 1 34 2 53 2c13 0 23 -5 30 -16c2 -4 3 -8 3 -12c-3 -5 -6 -6 -10 -4l-15 9c-32 3 -33 1 -117 -12
c-3 -4 -5 -9 -6 -14c-15 -51 -25 -98 -40 -149c-23 -87 -44 -172 -71 -257l-13 -34c-1 -4 -4 -7 -7 -12h-15c-3 3 -4 7 -7 10c1 4 2 6 2 6c5 7 10 16 13 27l32 114l70 269c3 9 3 19 6 28c-7 7 -12 5 -19 2c-51 -11 -99 -22 -150 -35l-79 -21c-5 -5 -8 -8 -10 -11
c-29 -44 -60 -88 -84 -136c-5 -11 -13 -21 -10 -36c-8 -4 -15 -2 -20 5c-3 6 -2 13 1 21c9 25 22 49 35 72c9 16 19 33 30 49c4 5 7 11 11 18c-4 0 -6 1 -9 1c-39 -12 -76 -24 -115 -37c-67 -21 -130 -43 -194 -70c-13 -7 -26 -10 -38 -17c-7 -4 -13 -9 -22 -16
c-8 -2 -14 2 -19 12c3 11 11 15 19 19c14 8 28 15 42 21c99 43 197 77 300 108l65 21c15 21 27 40 42 60c53 76 109 149 169 221c31 39 64 76 97 113c11 13 24 24 43 31zM699 241c3 4 4 6 5 9c8 33 16 65 25 98c17 64 32 128 45 192c2 10 3 20 2 29c-5 -3 -8 -4 -8 -4
l-24 -23c-36 -43 -72 -83 -107 -126c-49 -63 -96 -124 -144 -188c-8 -11 -17 -22 -24 -37c39 9 76 18 113 26c39 9 77 16 117 24z" />
  </font>
</defs>
</svg>
