<?xml version="1.0" encoding="UTF-8"?>
<svg width="58px" height="32px" viewBox="0 0 58 32" version="1.1" xmlns="http://www.w3.org/2000/svg" xmlns:xlink="http://www.w3.org/1999/xlink">
    <title>243FDEAF-6E93-4441-9E8C-B3876328E051</title>
    <g id="02-Style-Guide" stroke="none" strokeWidth="1" fill="none" fillRule="evenodd">
        <g id="04-Icons-&amp;-UI-Elements" transform="translate(-301.000000, -1948.000000)">
            <g id="360°-Label" transform="translate(301.000000, 1948.000000)">
                <rect id="Rectangle" fill="#FFFFFF" x="0" y="0" width="58" height="32"></rect>
                <path d="M14.899,13.0002 C15.167,12.9372 15.439,13.0982 15.505,13.3722 C15.573,13.6452 15.41,13.9232 15.142,13.9912 C11.354,14.9592 9,16.3432 9,17.6032 C9,19.9332 16.655,22.5112 27.776,22.6912 L27.776,22.6912 L26.423,21.3092 C26.228,21.1102 26.228,20.7872 26.423,20.5872 C26.618,20.3882 26.935,20.3882 27.13,20.5872 L27.13,20.5872 L29.353,22.8572 C29.399,22.9042 29.436,22.9612 29.462,23.0242 C29.512,23.1482 29.512,23.2892 29.462,23.4142 C29.436,23.4762 29.399,23.5332 29.353,23.5802 L29.353,23.5802 L27.13,25.8502 C27.032,25.9502 26.904,26.0002 26.776,26.0002 C26.649,26.0002 26.521,25.9502 26.423,25.8502 C26.228,25.6512 26.228,25.3272 26.423,25.1282 L26.423,25.1282 L27.804,23.7182 C17.99,23.5572 8,21.4272 8,17.6032 C8,15.2562 11.752,13.8052 14.899,13.0002 Z M23.7181,8.1191 L23.7291,8.1401 L21.5271,11.1641 C23.1031,11.3901 23.8791,12.3731 23.8791,13.5721 C23.8791,15.0411 22.7471,16.0561 21.2041,16.0561 C20.3521,16.0561 19.5971,15.7651 19.1111,15.3761 L19.1111,15.3761 L19.1111,14.1981 C19.7471,14.8131 20.5031,15.1051 21.1821,15.1051 C22.1641,15.1051 22.8541,14.4901 22.8541,13.5831 C22.8541,12.5141 21.8941,11.9421 20.3521,11.9421 C20.2221,11.9421 19.9741,11.9421 19.8231,11.9531 L19.8231,11.9531 L19.8121,11.9311 L21.9051,9.0691 L21.8941,9.0471 L19.2621,9.0471 L19.2621,8.1191 L23.7181,8.1191 Z M28.8345,8.1192 L26.9905,11.0772 C26.9035,11.2182 26.7845,11.4122 26.6665,11.6182 L26.6665,11.6182 L26.6885,11.6272 C27.0225,11.3582 27.4755,11.2182 27.9715,11.2182 C29.2985,11.2182 30.3455,12.2112 30.3455,13.5832 C30.3455,15.0082 29.2225,16.0562 27.6915,16.0562 C26.1705,16.0562 25.0375,15.0302 25.0375,13.4742 C25.0375,12.7402 25.2855,12.0702 25.9875,10.9362 L25.9875,10.9362 L27.7345,8.1192 L28.8345,8.1192 Z M27.7245,12.0812 C26.8175,12.0812 26.0725,12.7072 26.0725,13.5722 C26.0725,14.3712 26.7205,15.1482 27.7025,15.1482 C28.5755,15.1482 29.3315,14.5442 29.3315,13.6152 C29.3315,12.7512 28.6625,12.0812 27.7245,12.0812 Z M43.0227992,12.9884905 L43.1114,13.0024 C46.2544,13.8074 50.0004,15.2574 50.0004,17.6034 C50.0004,21.1024 41.5424,23.1444 33.1594,23.6144 C33.1504,23.6154 33.1404,23.6154 33.1324,23.6154 C32.8684,23.6154 32.6474,23.4054 32.6324,23.1334 C32.6174,22.8514 32.8294,22.6104 33.1044,22.5954 C43.0544,22.0364 49.0004,19.6184 49.0004,17.6034 C49.0004,16.3434 46.6504,14.9604 42.8694,13.9934 C42.6004,13.9244 42.4384,13.6474 42.5054,13.3744 C42.5582889,13.1612889 42.7345852,13.014116 42.9354823,12.9907539 L43.0227992,12.9884905 Z M34.2851,8.0001 C35.1171,8.0001 35.8181,8.3451 36.2601,8.9501 C36.6801,9.5341 36.9081,10.3971 36.9081,12.0271 C36.9081,13.6591 36.6701,14.5221 36.2501,15.1051 C35.8071,15.7101 35.1171,16.0561 34.2851,16.0561 C33.4551,16.0561 32.7541,15.7101 32.3121,15.1051 C31.8911,14.5221 31.6641,13.6591 31.6641,12.0271 C31.6641,10.3971 31.9011,9.5341 32.3221,8.9501 C32.7651,8.3451 33.4551,8.0001 34.2851,8.0001 Z M34.2851,8.9501 C33.7901,8.9501 33.3801,9.1661 33.1211,9.5341 C32.7971,9.9971 32.6891,10.7641 32.6891,12.0271 C32.6891,13.2911 32.7971,14.0571 33.1211,14.5221 C33.3801,14.8891 33.7901,15.1051 34.2851,15.1051 C34.7821,15.1051 35.1921,14.8891 35.4511,14.5221 C35.7751,14.0571 35.8831,13.2911 35.8831,12.0271 C35.8831,10.7641 35.7751,9.9971 35.4511,9.5341 C35.1921,9.1661 34.7821,8.9501 34.2851,8.9501 Z M39.6619,8 C40.5999,8 41.2909,8.702 41.2909,9.587 C41.2909,10.473 40.5999,11.175 39.6619,11.175 C38.7239,11.175 38.0329,10.473 38.0329,9.587 C38.0329,8.702 38.7239,8 39.6619,8 Z M39.6619,8.615 C39.0909,8.615 38.6799,9.058 38.6799,9.587 C38.6799,10.116 39.0909,10.559 39.6619,10.559 C40.2329,10.559 40.6439,10.116 40.6439,9.587 C40.6439,9.058 40.2329,8.615 39.6619,8.615 Z" id="360°-Icon" fill="#000000"></path>
            </g>
        </g>
    </g>
</svg>