<?xml version="1.0" encoding="UTF-8"?>
<svg width="14px" height="16px" viewBox="0 0 14 16" version="1.1" xmlns="http://www.w3.org/2000/svg">
    <title>Icon / Account</title>
    <g id="Icon-/-Account" stroke="none" strokeWidth="1" fill="none" fillRule="evenodd">
        <path d="M6.99990815,8 C10.3035748,8 11.7257925,10.1560317 12.9381801,12.2824177 L13.150293,12.6569096 C13.3609081,13.0302041 13.568051,13.3985714 13.7809081,13.75 C14.3919081,14.75 13.6509081,16 12.4609081,16 L1.53890815,16 C0.348908149,16 -0.392091851,14.75 0.218908149,13.75 C1.70890815,11.28 2.91890815,8 6.99990815,8 Z M6.99990815,9 C4.05890815,9 2.90890815,11.04 1.68890815,13.2 C1.47890815,13.56 1.27890815,13.92 1.06890815,14.27 C0.948908149,14.47 1.00890815,14.65 1.05890815,14.73 C1.10890815,14.81 1.23890815,15 1.53890815,15 L12.4609081,15 C12.7609081,15 12.8909081,14.82 12.9409081,14.74 C12.9909081,14.65 13.0509081,14.47 12.9309081,14.27 C12.7209081,13.93 12.5209081,13.57 12.3109081,13.2 C11.0909081,11.04 9.94090815,9 6.99990815,9 Z M7.00030815,0 C8.66030815,0 10.0003081,1.34 10.0003081,3 C10.0003081,4.66 8.66030815,6 7.00030815,6 C5.33930815,6 3.99930815,4.66 3.99930815,3 C3.99930815,1.34 5.33930815,0 7.00030815,0 Z M6.99990815,1 C5.89990815,1 4.99990815,1.9 4.99990815,3 C4.99990815,4.1 5.89990815,5 6.99990815,5 C8.09990815,5 8.99990815,4.1 8.99990815,3 C8.99990815,1.9 8.09990815,1 6.99990815,1 Z" id="Account-Icon" fill="#000000"></path>
    </g>
</svg>
