<?xml version="1.0" encoding="utf-8"?>
<!-- Generator: Adobe Illustrator 15.0.0, SVG Export Plug-In . SVG Version: 6.00 Build 0)  -->
<!DOCTYPE svg PUBLIC "-//W3C//DTD SVG 1.1//EN" "http://www.w3.org/Graphics/SVG/1.1/DTD/svg11.dtd">
<svg version="1.1" id="Layer_1" xmlns="http://www.w3.org/2000/svg" x="0px" y="0px"
     width="14px" height="8px" viewBox="0 3 14 8" enable-background="new 0 3 14 8" xml:space="preserve">
<title>326E01BC-85AA-4998-95DD-88749353BF3D</title>
<desc>Created with sketchtool.</desc>
<g id="Page-1">
	<g id="Style-guide_Mobile" transform="translate(-544.000000, -5326.000000)">
		<g id="_x30_4_x5F_Icons" transform="translate(139.000000, 5149.000000)">
			<g id="ICON" transform="translate(0.000000, 115.000000)">
				<path id="left" fill="#202020" stroke="#202020" stroke-width="0.4" d="M411.615,72.567l-6.261-6.262
					c-0.195-0.195-0.195-0.512,0-0.707l0.164-0.164c0.195-0.195,0.512-0.195,0.707,0L412,71.21l5.775-5.775
					c0.195-0.195,0.512-0.195,0.707,0l0.164,0.164c0.195,0.195,0.195,0.512,0,0.707l-6.262,6.262
					c-0.087,0.087-0.198,0.135-0.312,0.145h-0.146C411.813,72.702,411.702,72.654,411.615,72.567z"/>
			</g>
		</g>
	</g>
</g>
</svg>
