<?xml version="1.0" encoding="UTF-8"?>
<svg width="14px" height="14px" viewBox="0 0 14 14" version="1.1" xmlns="http://www.w3.org/2000/svg" xmlns:xlink="http://www.w3.org/1999/xlink">
    <!-- Generator: sketchtool 61 (101010) - https://sketch.com -->
    <title>5434C2F5-D0D7-478A-AD6E-4E700093E591</title>
    <desc>Created with sketchtool.</desc>
    <g id="Page-1" stroke="none" strokeWidth="1" fill="none" fillRule="evenodd" stroke-linejoin="round">
        <g id="Style-guide-Desktop" transform="translate(-350.000000, -5341.000000)" fill="#ffffff" stroke="#ffffff" strokeWidth="0.2">
            <g id="04_ICONS" transform="translate(138.000000, 5175.000000)">
                <g id="ICON" transform="translate(0.000000, 114.000000)">
                    <path d="M224.326562,52.5534375 C224.634206,52.2457939 225.130721,52.2507205 225.44,52.56 L225.44,52.56 L225.517238,52.6492394 C225.749045,52.9601046 225.724431,53.3955692 225.446562,53.6734375 L225.446562,53.6734375 L220.120302,59.0003015 L225.446562,64.3265625 C225.726238,64.6062385 225.747592,65.0420061 225.516797,65.3512914 L225.44,65.44 L225.350761,65.517238 C225.039895,65.7490453 224.604431,65.7244308 224.326562,65.4465625 L224.326562,65.4465625 L219.000302,60.1203015 L213.673437,65.4465625 C213.393762,65.7262385 212.957994,65.747592 212.648709,65.5167968 L212.56,65.44 L212.482762,65.3507606 C212.250955,65.0398954 212.275569,64.6044308 212.553437,64.3265625 L212.553437,64.3265625 L217.880302,59.0003015 L212.553437,53.6734375 C212.273762,53.3937615 212.252408,52.9579939 212.483203,52.6487086 L212.56,52.56 L212.649239,52.482762 C212.960105,52.2509547 213.395569,52.2755692 213.673437,52.5534375 L213.673437,52.5534375 L219.000302,57.8803015 Z" id="close"></path>
                </g>
            </g>
        </g>
    </g>
</svg>