<?xml version="1.0" encoding="UTF-8"?>
<svg width="11px" height="16px" viewBox="0 0 11 16" version="1.1" xmlns="http://www.w3.org/2000/svg" xmlns:xlink="http://www.w3.org/1999/xlink">
    <!-- Generator: Sketch 64 (93537) - https://sketch.com -->
    <title>icon</title>
    <desc>Created with Sketch.</desc>
    <g id="MOB-Customer-Service" stroke="none" strokeWidth="1" fill="none" fillRule="evenodd">
        <g id="MOB_Product-Care_Writing-Instruments" transform="translate(-16.000000, -4190.000000)" fill="#202020">
            <g id="Service-Guide" transform="translate(15.000000, 3718.000000)">
                <g id="copy" transform="translate(1.000000, 297.000000)">
                    <g id="icons" transform="translate(0.000000, 175.000000)">
                        <g id="icon" transform="translate(0.000000, 0.000000)">
                            <path d="M10.4990378,5.665265 L0.417907344,5.665265 L3.35292854,2.57164745 C3.47707954,2.44090481 3.47707954,2.22884988 3.35292854,2.09810723 C3.22877754,1.96736458 3.02774695,1.96723062 2.90372302,2.09810723 L-0.573394573,5.76318803 C-0.592455627,5.78596082 -0.603383965,5.79895472 -0.612660345,5.8135561 C-0.629942368,5.84650967 -0.636804348,5.85829795 -0.642014369,5.87102392 C-0.645318285,5.87946325 -0.647097317,5.88857237 -0.649765865,5.89714566 C-0.653451002,5.90920185 -0.657771508,5.92099012 -0.660312982,5.93344818 C-0.66437934,5.95514931 -0.666666667,5.97738628 -0.666666667,5.99975721 C-0.665523003,6.02708456 -0.663998119,6.04677633 -0.660312982,6.06606623 C-0.657136139,6.08294489 -0.651799044,6.09901981 -0.646207801,6.11496077 C-0.634898242,6.14724456 -0.625621862,6.16479301 -0.615328893,6.18167167 C-0.601223712,6.20444447 -0.5877539,6.22185896 -0.57263213,6.23766596 L2.9033418,9.90194301 C2.96535376,9.96731434 3.04668093,10 3.1280081,10 C3.20933526,10 3.29053536,9.96731434 3.35267439,9.90194301 C3.4768254,9.77106641 3.4768254,9.55914543 3.35267439,9.42840279 L0.418161491,6.33505316 L10.4990378,6.33505316 C10.6745265,6.33505316 10.816722,6.18515457 10.816722,6.00015908 C10.816722,5.81516359 10.6745265,5.665265 10.4990378,5.665265 Z" id="next" fillRule="nonzero" transform="translate(5.075028, 6.000000) scale(-1, -1) rotate(90.000000) translate(-5.075028, -6.000000) "></path>
                            <rect id="Rectangle" x="0" y="15.3333333" width="10.6666667" height="1"></rect>
                        </g>
                    </g>
                </g>
            </g>
        </g>
    </g>
</svg>