<?xml version="1.0" encoding="UTF-8"?>
<svg width="16px" height="12px" viewBox="0 0 16 12" version="1.1" xmlns="http://www.w3.org/2000/svg" xmlns:xlink="http://www.w3.org/1999/xlink">
    <title>A4C9D473-3421-48D7-B1EC-589E44D1EDAC</title>
    <g id="02-Style-Guide" stroke="none" stroke-width="1" fill="none" fill-rule="evenodd">
        <g id="04-Icons-&amp;-UI-Elements" transform="translate(-1396.000000, -1332.000000)" fill="#000000">
            <g id="Icon-/-Password-/-Hide" transform="translate(1396.000000, 1331.999700)">
                <path d="M1.7375,0.147 C1.9325,-0.049 2.2485,-0.049 2.4445,0.147 L2.4445,0.147 L4.2785,1.981 C5.4465,1.358 6.6945,1.001 7.9995,1.001 C11.1085,1.001 13.9265,2.911 15.9995,6.002 C14.8935,7.651 13.5715,8.95 12.1105,9.814 L12.1105,9.814 L13.4425,11.147 C13.6385,11.342 13.6385,11.659 13.4425,11.854 C13.2475,12.049 12.9315,12.049 12.7355,11.854 L12.7355,11.854 L8.7395,7.857 L6.1445,5.262 L1.7375,0.854 C1.5415,0.659 1.5415,0.342 1.7375,0.147 Z M2.195,3.6292 C2.471,3.6292 2.695,3.8532 2.695,4.1302 C2.695,4.2542 2.644,4.3652 2.569,4.4532 L2.569,4.4532 C2.565,4.4652 2.557,4.4742 2.549,4.4822 C2.549,4.4822 2.548,4.4832 2.547,4.4842 C2.087,4.9352 1.641,5.4352 1.223,6.0012 C3.134,8.5872 5.521,10.0022 8,10.0022 L8,10.0022 L8.11,9.9942 L8.11,9.9942 L8.173369,9.994767 C8.27335,9.99378 8.4949,9.9851 8.861,9.9382 L8.861,9.9382 L8.864,9.9482 C8.892,9.9432 8.918,9.9312 8.948,9.9312 C9.224,9.9312 9.448,10.1552 9.448,10.4312 C9.448,10.6782 9.266,10.8742 9.03,10.9152 L9.03,10.9152 L9.038,10.9232 C9.013,10.9262 8.987,10.9252 8.961,10.9282 C8.956,10.9292 8.953,10.9312 8.948,10.9312 C8.946,10.9312 8.944,10.9302 8.942,10.9302 C8.631,10.9702 8.318,11.0022 8,11.0022 C4.891,11.0022 2.073,9.0922 0,6.0012 C0.557,5.1702 1.174,4.4372 1.831,3.7912 L1.831,3.7912 L1.851,3.7692 C1.857,3.7642 1.862,3.7572 1.868,3.7512 L1.868,3.7512 C1.959,3.6802 2.07,3.6292 2.195,3.6292 Z M7.9995,2.001 C6.9795,2.001 5.9765,2.251 5.0145,2.718 L5.0145,2.718 L6.7495,4.452 C7.0925,4.175 7.5235,4.001 7.9995,4.001 C9.1045,4.001 9.9995,4.897 9.9995,6.002 C9.9995,6.478 9.8265,6.909 9.5495,7.252 L9.5495,7.252 L11.3685,9.072 C12.5995,8.4 13.7585,7.38 14.7775,6.002 C12.8655,3.416 10.4795,2.001 7.9995,2.001 Z"></path>
            </g>
        </g>
    </g>
</svg>