<svg viewBox="0 0 7 16" version="1.1" xmlns="http://www.w3.org/2000/svg" xmlns:xlink="http://www.w3.org/1999/xlink">
    <g id="Icon-/-Boutique" stroke="none" stroke-width="1" fill="none" fill-rule="evenodd">
        <path d="M3.5,6 C2.12,6 1,4.88 1,3.5 C1,2.12 2.12,1 3.5,1 C4.88,1 6,2.12 6,3.5 C6,4.88 4.88,6 3.5,6 M3.5,0 C1.57,0 0,1.57 0,3.5 C0,5.26 1.31,6.72 3,6.96 L3,15.5 C3,15.78 3.22,16 3.5,16 C3.78,16 4,15.78 4,15.5 L4,6.96 C5.69,6.72 7,5.26 7,3.5 C7,1.57 5.43,0 3.5,0" id="Pin-Icon" fill="#000000"></path>
    </g>
</svg>