<?xml version="1.0" encoding="UTF-8"?>
<svg width="24px" height="20px" viewBox="0 0 24 20" version="1.1" xmlns="http://www.w3.org/2000/svg" xmlns:xlink="http://www.w3.org/1999/xlink">
    <title>A5D8FE1F-B771-480E-8420-2713A40A4F78</title>
    <g id="02-Style-Guide" stroke="none" strokeWidth="1" fill="none" fillRule="evenodd">
        <g id="04-Icons-&amp;-UI-Elements" transform="translate(-446.000000, -2296.000000)" fillRule="nonzero">
            <g id="Maestro-Color" transform="translate(446.000000, 2296.000000)">
                <path d="M20.6590601,17.6237915 L20.6642963,17.6308707 C20.8435758,17.6304542 21.0212956,17.6608149 21.1879124,17.7203226 C21.3469506,17.7775878 21.4919404,17.8623649 21.6146594,17.969846 C21.7357921,18.0763567 21.8319387,18.2036277 21.8974121,18.3441312 C22.034196,18.6459494 22.034196,18.9839112 21.8974121,19.2857292 C21.8320015,19.4262633 21.735847,19.5535449 21.6146594,19.6600146 C21.4919404,19.7674957 21.3469506,19.8522728 21.1879124,19.909538 C20.8426817,20.030154 20.4597301,20.030154 20.1144994,19.909538 C19.9562029,19.8523296 19.8120591,19.7675269 19.6903703,19.6600146 C19.5703951,19.5531278 19.4751811,19.4259132 19.4102357,19.2857292 C19.27373,18.9838622 19.27373,18.6459983 19.4102357,18.3441312 C19.4751811,18.2039473 19.5703951,18.0767328 19.6903703,17.969846 C19.8120591,17.8623337 19.9562029,17.7775309 20.1144994,17.7203226 C20.2871034,17.6559943 20.472217,17.6231861 20.6590601,17.6237915 Z M13.5038459,17.6261627 C13.8613817,17.6153919 14.2148465,17.6970915 14.5222792,17.8615622 L14.2787978,18.2570334 C14.0397066,18.1332499 13.7692507,18.066782 13.4933736,18.0640058 C13.1949124,18.0640058 13.016883,18.1628736 13.016883,18.3276533 C13.016883,18.492433 13.2053847,18.5206808 13.441012,18.5489288 L13.7028201,18.5818847 C14.2473808,18.6525046 14.5772589,18.8596562 14.5772589,19.2551274 C14.5772589,19.6505985 14.1583661,19.9895738 13.438394,19.9895738 C13.05252,19.9988029 12.6735299,19.896492 12.3571266,19.6976784 L12.6189347,19.3163312 C12.8591969,19.4765982 13.1524478,19.5595136 13.4514843,19.5517307 C13.8232517,19.5517307 14.0222259,19.4528629 14.0222259,19.2786674 C14.0222259,19.1515516 13.8808496,19.0809317 13.5823884,19.0432678 L13.3205803,19.0103119 C12.7603111,18.939692 12.4566138,18.7137085 12.4566138,18.3464852 C12.4566138,17.8992261 12.8650343,17.6261627 13.5038459,17.6261627 Z M16.009349,17 L16.009349,17.6826586 L16.8968784,17.6826586 L16.8968784,18.1299177 L16.009349,18.1299177 L16.009349,19.1444896 C16.009349,19.379889 16.0983637,19.5211288 16.3706441,19.5211288 C16.5405918,19.5160684 16.7063352,19.4723327 16.852371,19.394013 L17.0094557,19.8130242 C16.8053261,19.9275644 16.5693718,19.9879465 16.3287548,19.9872326 C15.6847071,19.9872326 15.4595521,19.6764925 15.4595521,19.1539056 L15.4595521,18.1299177 L14.9516445,18.1299177 L14.9516445,17.6826586 L15.4595521,17.6826586 L15.4595521,17 L16.009349,17 Z M10.8019868,17.6308707 C11.5010143,17.6308707 11.9879774,18.1016698 11.9879774,18.8078682 C11.9879774,18.8737802 11.9879774,18.93263 11.9801231,18.9914798 L11.9801231,18.9914798 L10.1239039,18.9914798 C10.1664688,19.3270821 10.4983854,19.5712571 10.872675,19.5423148 C11.1376514,19.538824 11.3937678,19.4559887 11.6005014,19.3069152 L11.6005014,19.3069152 L11.8623094,19.6694305 C11.5757455,19.8840358 11.2113668,19.9963162 10.8386399,19.9848658 C10.115677,19.9939664 9.52139466,19.4743841 9.51127318,18.8243462 C9.50115171,18.1743084 10.0790239,17.6399712 10.8019868,17.6308707 Z M7.69432519,17.6285167 C7.99993727,17.6179903 8.29241649,17.7407129 8.47974935,17.958076 L8.47974935,17.958076 L8.47974935,17.6850126 L9.02954627,17.6850126 L9.02954627,18.8078682 L9.02431011,19.926016 L8.47974935,19.926016 L8.47974935,19.6529526 C8.29241649,19.8703157 7.99993727,19.9930382 7.69432519,19.9825118 C6.97136222,19.9825118 6.38528492,19.455552 6.38528492,18.8055143 C6.38528492,18.1554765 6.97136222,17.6285167 7.69432519,17.6285167 Z M18.7792783,17.6261627 C18.9113663,17.6266216 19.0424011,17.6473192 19.1667541,17.6873665 L18.9991969,18.1581657 C18.8909886,18.1193747 18.7753266,18.1001755 18.6588465,18.1016698 C18.3027876,18.1016698 18.1352305,18.3088214 18.1352305,18.6807525 L18.1352305,19.94014 L17.5906696,19.94014 L17.5906696,17.6920746 L18.1299942,17.6920746 L18.1299942,17.965138 C18.2661299,17.75488 18.5192812,17.6284266 18.7897506,17.6355787 L18.7792783,17.6261627 Z M4.98461182,17.6261627 C5.25135419,17.6120492 5.5119487,17.7018422 5.69988534,17.8726242 C5.88782197,18.0434062 5.98491795,18.278654 5.96639203,18.5183269 L5.96639203,18.5183269 L5.96639203,19.930724 L5.41921319,19.930724 L5.41921319,18.6807525 C5.41921319,18.2994053 5.24118372,18.0875458 4.86941628,18.0875458 C4.69504245,18.0799336 4.52589581,18.1422574 4.40760823,18.2577035 C4.28932063,18.3731498 4.23407871,18.5298245 4.25678543,18.6854605 L4.25678543,18.6854605 L4.25678543,19.930724 L3.70698851,19.930724 L3.70698851,18.6807525 C3.70698851,18.2994053 3.52372288,18.0875458 3.16242776,18.0875458 C2.98750027,18.0782047 2.81715705,18.1400051 2.69842466,18.2558853 C2.57969226,18.3717656 2.52512855,18.5294698 2.5497969,18.6854605 L2.5497969,18.6854605 L2.5497969,19.930724 L2,19.930724 L2,17.6826586 L2.54456074,17.6826586 L2.54456074,17.96043 C2.70571971,17.7400289 2.98463846,17.6128455 3.2776233,17.6261627 C3.61411953,17.6131582 3.93156639,17.7667101 4.10493676,18.0263419 C4.29509567,17.7587311 4.63217476,17.6053882 4.98461182,17.6261627 Z M20.6590601,18.0875458 L20.6642963,18.1016698 C20.5576703,18.100362 20.4518029,18.1179599 20.3527447,18.1534576 C20.2594407,18.1870939 20.1747935,18.2375661 20.1040269,18.3017594 C20.031834,18.3693373 19.9757127,18.4494331 19.939088,18.5371588 C19.8591071,18.7251119 19.8591071,18.9329966 19.939088,19.1209497 C19.9756465,19.2087048 20.0317758,19.2888121 20.1040269,19.3563491 C20.174746,19.4205942 20.259406,19.4710741 20.3527447,19.5046508 C20.5522,19.5748739 20.7737744,19.5748739 20.9732298,19.5046508 C21.0710314,19.4721462 21.1602045,19.421634 21.2350378,19.3563491 C21.3074066,19.2888948 21.3635522,19.2087644 21.3999769,19.1209497 C21.4799577,18.9329966 21.4799577,18.7251119 21.3999769,18.5371588 C21.3635522,18.449344 21.3074066,18.3692136 21.2350378,18.3017594 C21.1602045,18.2364746 21.0710314,18.1859622 20.9732298,18.1534576 C20.8744671,18.1128058 20.7676336,18.0903924 20.6590601,18.0875458 Z M7.78946376,18.1680695 C7.37817675,18.1541893 7.02998594,18.4384484 7.00577001,18.8078682 L7.00577001,18.8078682 C6.98573655,18.9969128 7.06023948,19.1828101 7.20574931,19.3199153 C7.35125911,19.4570202 7.55429849,19.5326341 7.76501336,19.5281908 C8.17658444,19.5262693 8.51095939,19.2289025 8.51761097,18.8588899 C8.52426256,18.4888774 8.20075077,18.1819496 7.78946376,18.1680695 Z M10.7836602,18.0663598 C10.4377163,18.0594618 10.1475363,18.2995818 10.126522,18.6101326 L10.126522,18.6101326 L11.4172357,18.6124867 C11.4138003,18.4645124 11.3451097,18.3238299 11.2262831,18.2214043 C11.1074566,18.1189786 10.9482336,18.0632051 10.7836602,18.0663598 Z" id="Maestro" fill="#000000"></path>
                <rect id="Rectangle" fill="#7673C0" x="8.75467419" y="1.60394231" width="6.48697984" height="11.7929271"></rect>
                <path d="M9.16305604,7.50144746 C9.16063065,5.19983562 10.2048534,3.0249982 11.9946742,1.60394231 C8.95501764,-0.812544954 4.58994887,-0.460562688 1.96712094,2.41252543 C-0.655706981,5.28561355 -0.655706981,9.71519818 1.96712094,12.5882864 C4.58994887,15.4613744 8.95501764,15.8133567 11.9946742,13.3968694 C10.2054228,11.9762647 9.16126385,9.80232828 9.16305604,7.50144746 L9.16305604,7.50144746 Z" id="Path" fill="#EB001B"></path>
                <path d="M23.995359,7.50144746 C23.9946734,10.3720113 22.3742035,12.9903386 19.8218507,14.2449298 C17.269498,15.499521 14.2331092,15.1702401 12.001654,13.3968694 C13.7901247,11.9750586 14.8343623,9.80141126 14.8343623,7.50040587 C14.8343623,5.19940049 13.7901247,3.02575314 12.001654,1.60394231 C14.2330907,-0.170703617 17.2703358,-0.50073113 19.8234599,0.754023721 C22.3765839,2.00877857 23.9974184,4.62802705 23.9974184,7.49936427 L23.995359,7.50144746 Z" id="Path" fill="#00A1DF"></path>
            </g>
        </g>
    </g>
</svg>