<?xml version="1.0" encoding="UTF-8"?>
<svg width="25px" height="20px" viewBox="0 0 25 20" version="1.1" xmlns="http://www.w3.org/2000/svg" xmlns:xlink="http://www.w3.org/1999/xlink">
    <title>95D75667-5BE6-4D90-8B27-51B154F2BAA5</title>
    <g id="02-Style-Guide" stroke="none" stroke-width="1" fill="none" fill-rule="evenodd">
        <g id="04-Icons-&amp;-UI-Elements" transform="translate(-353.000000, -2296.000000)">
            <g id="Mastercard-Color" transform="translate(353.000000, 2296.000000)">
                <path d="M4.56335959,18.8958135 C4.56335959,18.5262849 4.82564905,18.2229636 5.25461153,18.2229636 C5.66473685,18.2229636 5.941333,18.5130875 5.941333,18.8958135 C5.941333,19.2785395 5.66473685,19.5688833 5.25461153,19.5688833 C4.82564905,19.5688833 4.56335959,19.265342 4.56335959,18.8958135 Z M6.40868512,18.8958135 L6.40868512,17.8446367 L5.91271961,17.8446367 L5.91271961,18.0997874 C5.75534594,17.9106239 5.51690098,17.7918469 5.19261584,17.7918469 C4.5538218,17.7918469 4.05308739,18.2537576 4.05308739,18.8958135 C4.05308739,19.5380893 4.5538218,20 5.19261584,20 C5.51690098,20 5.75534594,19.881223 5.91271961,19.6920595 L5.91271961,19.9472102 L6.40868512,19.9472102 L6.40868512,18.8958135 Z M23.1546745,18.8958135 C23.1546745,18.5262849 23.4169639,18.2229636 23.8461649,18.2229636 C24.2560517,18.2229636 24.5326479,18.5130875 24.5326479,18.8958135 C24.5326479,19.2785395 24.2560517,19.5688833 23.8461649,19.5688833 C23.4169639,19.5688833 23.1546745,19.265342 23.1546745,18.8958135 Z M25,18.8958135 L25,17 L24.5040345,17 L24.5040345,18.0997874 C24.3466608,17.9106239 24.1082159,17.7918469 23.7841692,17.7918469 C23.1451367,17.7918469 22.6444023,18.2537576 22.6444023,18.8958135 C22.6444023,19.5380893 23.1451367,20 23.7841692,20 C24.1082159,20 24.3466608,19.881223 24.5040345,19.6920595 L24.5040345,19.9472102 L25,19.9472102 L25,18.8958135 Z M12.5596112,18.2009678 C12.8791275,18.2009678 13.0841901,18.3855121 13.136648,18.7110492 L11.9541995,18.7110492 C12.0064189,18.4075079 12.2067127,18.2009678 12.5596112,18.2009678 Z M12.569149,17.7918469 C11.9015032,17.7918469 11.4343895,18.2405602 11.4343895,18.8958135 C11.4343895,19.5644842 11.9205788,20 12.6025313,20 C12.9458921,20 13.2606394,19.9205954 13.5372356,19.705257 L13.2940217,19.3665225 C13.1032657,19.5072953 12.8600519,19.5864799 12.6311447,19.5864799 C12.3116285,19.5864799 12.0207256,19.4501063 11.9491921,19.0717795 L13.6421513,19.0717795 C13.6469202,19.0145905 13.6514507,18.9574016 13.6514507,18.8958135 C13.6469202,18.2405602 13.2081815,17.7918469 12.569149,17.7918469 Z M18.5534021,18.8958135 C18.5534021,18.5262849 18.8154531,18.2229636 19.2446541,18.2229636 C19.6547794,18.2229636 19.9313755,18.5130875 19.9313755,18.8958135 C19.9313755,19.2785395 19.6547794,19.5688833 19.2446541,19.5688833 C18.8154531,19.5688833 18.5534021,19.265342 18.5534021,18.8958135 Z M20.3987277,18.8958135 L20.3987277,17.8446367 L19.9027621,17.8446367 L19.9027621,18.0997874 C19.7453885,17.9106239 19.5069435,17.7918469 19.1826584,17.7918469 C18.5438643,17.7918469 18.0431299,18.2537576 18.0431299,18.8958135 C18.0431299,19.5380893 18.5438643,20 19.1826584,20 C19.5069435,20 19.7453885,19.881223 19.9027621,19.6920595 L19.9027621,19.9472102 L20.3987277,19.9472102 L20.3987277,18.8958135 Z M15.7542968,18.8958135 C15.7542968,19.5336902 16.2359556,20 16.9703661,20 C17.3137268,20 17.5423955,19.9296136 17.7903783,19.7492485 L17.5519333,19.3797199 C17.3659462,19.5028961 17.1704214,19.5688833 16.9560594,19.5688833 C16.5602407,19.5644842 16.2693379,19.3005352 16.2693379,18.8958135 C16.2693379,18.4913117 16.5602407,18.2273627 16.9560594,18.2229636 C17.1704214,18.2229636 17.3659462,18.2887308 17.5519333,18.412127 L17.7903783,18.0425984 C17.5423955,17.8622333 17.3137268,17.7918469 16.9703661,17.7918469 C16.2359556,17.7918469 15.7542968,18.2581568 15.7542968,18.8958135 Z M22.1439063,17.7918469 C21.8577724,17.7918469 21.6717853,17.9150231 21.543025,18.0997874 L21.543025,17.8446367 L21.0518284,17.8446367 L21.0518284,19.9472102 L21.5477939,19.9472102 L21.5477939,18.7682381 C21.5477939,18.4209253 21.7099365,18.2273627 22.0342216,18.2273627 C22.1343685,18.2273627 22.2392843,18.2405602 22.3442001,18.2801525 L22.4968048,17.8490359 C22.3868817,17.8094435 22.2438147,17.7918469 22.1439063,17.7918469 Z M8.85942239,18.0118044 C8.62097743,17.8666325 8.29192339,17.7918469 7.9297255,17.7918469 C7.35268871,17.7918469 6.98071457,18.0469976 6.98071457,18.4646968 C6.98071457,18.8078305 7.25731072,19.0189897 7.76758293,19.0849769 L8.00125899,19.115771 C8.2728478,19.1509641 8.40184652,19.2169514 8.40184652,19.3357284 C8.40184652,19.498497 8.22038991,19.5908791 7.88203651,19.5908791 C7.53867577,19.5908791 7.29069302,19.4896987 7.12378155,19.3709216 L6.89010549,19.7272527 C7.16193274,19.9117971 7.50529348,20 7.87726761,20 C8.53513725,20 8.91664918,19.7140553 8.91664918,19.3137327 C8.91664918,18.9442041 8.61620853,18.7506415 8.12048147,18.6846543 L7.88680541,18.6538603 C7.67220495,18.6274654 7.50052458,18.588093 7.50052458,18.4473202 C7.50052458,18.29335 7.66266715,18.2009678 7.9344944,18.2009678 C8.22539725,18.2009678 8.50652385,18.3021483 8.64482193,18.3813329 L8.85942239,18.0118044 Z M15.2538008,17.7918469 C14.9676669,17.7918469 14.7816798,17.9150231 14.6529195,18.0997874 L14.6529195,17.8446367 L14.1617229,17.8446367 L14.1617229,19.9472102 L14.6576884,19.9472102 L14.6576884,18.7682381 C14.6576884,18.4209253 14.819831,18.2273627 15.1441161,18.2273627 C15.244263,18.2273627 15.3491788,18.2405602 15.4538561,18.2801525 L15.6064609,17.8490359 C15.4967762,17.8094435 15.3537092,17.7918469 15.2538008,17.7918469 Z M11.0242642,17.8446367 L10.2135513,17.8446367 L10.2135513,17.20676 L9.71305534,17.20676 L9.71305534,17.8446367 L9.25047212,17.8446367 L9.25047212,18.2625559 L9.71305534,18.2625559 L9.71305534,19.2213505 C9.71305534,19.7096561 9.918118,20 10.5044542,20 C10.7190546,20 10.9670374,19.9381919 11.124411,19.8372315 L10.9813441,19.4457072 C10.8335082,19.5248919 10.6713656,19.5644842 10.5426053,19.5644842 C10.2946226,19.5644842 10.2135513,19.4237114 10.2135513,19.2125522 L10.2135513,18.2625559 L11.0242642,18.2625559 L11.0242642,17.8446367 Z M3.61434866,19.9472102 L3.61434866,18.6274654 C3.61434866,18.1305814 3.27098793,17.7962461 2.71803407,17.7918469 C2.42713122,17.7874478 2.12669057,17.8710316 1.91685901,18.1657746 C1.75948534,17.9326197 1.51150258,17.7918469 1.16361139,17.7918469 C0.920397535,17.7918469 0.681952578,17.8578342 0.495965511,18.1041865 L0.495965511,17.8446367 L0,17.8446367 L0,19.9472102 L0.50073441,19.9472102 L0.50073441,18.7814356 C0.50073441,18.4163062 0.720103771,18.2229636 1.05869561,18.2229636 C1.38751121,18.2229636 1.55442268,18.4209253 1.55442268,18.7770364 L1.55442268,19.9472102 L2.05515709,19.9472102 L2.05515709,18.7814356 C2.05515709,18.4163062 2.28406425,18.2229636 2.61311829,18.2229636 C2.95171013,18.2229636 3.11361425,18.4209253 3.11361425,18.7770364 L3.11361425,19.9472102 L3.61434866,19.9472102 L3.61434866,19.9472102 Z" id="Mastercard" fill="#000000"></path>
                <rect id="Rectangle" fill="#F26522" fill-rule="nonzero" x="9.75596499" y="1.60394231" width="6.48697984" height="11.7929271"></rect>
                <path d="M10.163056,7.50144746 C10.1606307,5.19983562 11.2048534,3.0249982 12.9946742,1.60394231 C9.95501764,-0.812544954 5.58994887,-0.460562688 2.96712094,2.41252543 C0.344293019,5.28561355 0.344293019,9.71519818 2.96712094,12.5882864 C5.58994887,15.4613744 9.95501764,15.8133567 12.9946742,13.3968694 C11.2054228,11.9762647 10.1612638,9.80232828 10.163056,7.50144746 L10.163056,7.50144746 Z" id="Path" fill="#E52423" fill-rule="nonzero"></path>
                <path d="M24.9979406,7.50144746 C24.997255,10.3720113 23.3767851,12.9903386 20.8244323,14.2449298 C18.2720796,15.499521 15.2356908,15.1702401 13.0042356,13.3968694 C14.7927063,11.9750586 15.8369439,9.80141126 15.8369439,7.50040587 C15.8369439,5.19940049 14.7927063,3.02575314 13.0042356,1.60394231 C15.2356723,-0.170703617 18.2729174,-0.50073113 20.8260415,0.754023721 C23.3791654,2.00877857 25,4.62802705 25,7.49936427 L24.9979406,7.50144746 Z" id="Path" fill="#F99F1C" fill-rule="nonzero"></path>
            </g>
        </g>
    </g>
</svg>