<?xml version="1.0" encoding="utf-8"?>
<!-- Generator: Adobe Illustrator 15.0.0, SVG Export Plug-In . SVG Version: 6.00 Build 0)  -->
<!DOCTYPE svg PUBLIC "-//W3C//DTD SVG 1.1//EN" "http://www.w3.org/Graphics/SVG/1.1/DTD/svg11.dtd">
<svg version="1.1" id="Layer_1" xmlns="http://www.w3.org/2000/svg" xmlns:xlink="http://www.w3.org/1999/xlink" x="0px" y="0px"
	 width="16px" height="20px" viewBox="0 0 16 20" enable-background="new 0 0 16 20" xml:space="preserve">
<title>E7CC7521-4A5B-4ABA-917A-23A4FB901AA6</title>
<desc>Created with sketchtool.</desc>
<g id="Page-1">
	<g id="Style-guide_Mobile" transform="translate(-640.000000, -5703.000000)">
		<g id="_x30_4_x5F_Icons" transform="translate(139.000000, 5149.000000)">
			<g id="SOCIAL" transform="translate(0.000000, 554.000000)">
				<path id="pinterest" fill="#202020" d="M509.428,0C503.825,0,501,3.905,501,7.163c0,1.972,0.768,3.725,2.415,4.379
					c0.271,0.107,0.512,0.004,0.591-0.287c0.054-0.2,0.183-0.708,0.241-0.92c0.079-0.288,0.048-0.387-0.17-0.639
					c-0.475-0.544-0.779-1.249-0.779-2.248c0-2.897,2.23-5.491,5.807-5.491c3.167,0,4.906,1.881,4.906,4.393
					c0,3.306-1.504,6.096-3.738,6.096c-1.233,0-2.157-0.991-1.861-2.208c0.354-1.453,1.041-3.02,1.041-4.069
					c0-0.938-0.518-1.721-1.59-1.721c-1.262,0-2.274,1.269-2.274,2.967c0,1.082,0.376,1.814,0.376,1.814s-1.291,5.315-1.517,6.247
					c-0.451,1.854-0.068,4.127-0.035,4.356c0.019,0.136,0.199,0.17,0.28,0.067c0.116-0.149,1.619-1.951,2.129-3.754
					c0.145-0.509,0.829-3.15,0.829-3.15c0.41,0.761,1.608,1.429,2.882,1.429c3.79,0,6.362-3.36,6.362-7.857
					C516.894,3.167,513.931,0,509.428,0z"/>
			</g>
		</g>
	</g>
</g>
</svg>
