<?xml version="1.0" encoding="UTF-8"?>
<svg width="14px" height="16px" viewBox="0 0 14 16" version="1.1" xmlns="http://www.w3.org/2000/svg" xmlns:xlink="http://www.w3.org/1999/xlink">
    <title>Icon / Search</title>
    <g id="Icon-/-Search" stroke="none" strokeWidth="1" fill="none" fillRule="evenodd">
        <path d="M5.007,-2.84217094e-14 C7.771,-2.84217094e-14 10.014,2.243 10.014,5.006 C10.014,6.45975601 9.38634756,7.77861832 8.39256926,8.69328524 L13.8809,15.1759 C14.0599,15.3869 14.0339,15.7029 13.8229,15.8819 C13.7279,15.9609 13.6129,15.9999 13.4989,15.9999 C13.3569,15.9999 13.2149,15.9389 13.1169,15.8229 L7.59317127,9.29536019 C6.84173126,9.75167786 5.95567464,10.012 5.007,10.012 C2.243,10.012 0,7.769 0,5.006 C0,2.243 2.243,-2.84217094e-14 5.007,-2.84217094e-14 Z M5.0069,1.001 C2.7939,1.001 1.0019,2.793 1.0019,5.006 C1.0019,7.219 2.7939,9.011 5.0069,9.011 C7.2199,9.011 9.0119,7.219 9.0119,5.006 C9.0119,2.793 7.2199,1.001 5.0069,1.001 Z" id="Search-Icon" fill="#000000"></path>
    </g>
</svg>