<?xml version="1.0" encoding="UTF-8"?>
<svg width="14px" height="16px" viewBox="0 0 14 16" version="1.1" xmlns="http://www.w3.org/2000/svg" xmlns:xlink="http://www.w3.org/1999/xlink">
    <title>D35E9CD6-AD2A-40CF-9C84-7679813CC749</title>
    <g id="02-Style-Guide" stroke="none" strokeWidth="1" fill="none" fillRule="evenodd">
        <g id="04-Icons-&amp;-UI-Elements" transform="translate(-1306.000000, -1330.000000)" fill="#000000">
            <g id="Share-Icon" transform="translate(1306.000000, 1330.000000)">
                <path d="M3.5,5.99965625 C3.776,5.99965625 4,6.22365275 4,6.49965625 C4,6.77564413 3.776,6.99964063 3.5,6.99964063 L3.5,6.99964063 L2,6.99964063 C1.448,6.99964063 1,7.44763363 1,7.999625 L1,7.999625 L1,13.9995313 C1,14.5515226 1.448,14.9995156 2,14.9995156 L2,14.9995156 L12,14.9995156 C12.552,14.9995156 13,14.5515226 13,13.9995313 L13,13.9995313 L13,7.999625 C13,7.44763363 12.552,6.99964063 12,6.99964063 L12,6.99964063 L10.5,6.99964063 C10.224,6.99964063 10,6.77564413 10,6.49965625 C10,6.22365275 10.224,5.99965625 10.5,5.99965625 L10.5,5.99965625 L12,5.99965625 C13.105,5.99965625 14,6.89464227 14,7.999625 L14,7.999625 L14,13.9995313 C14,15.104514 13.105,15.9995 12,15.9995 L12,15.9995 L2,15.9995 C0.895,15.9995 0,15.104514 0,13.9995313 L0,13.9995313 L0,7.999625 C0,6.89464227 0.895,5.99965625 2,5.99965625 L2,5.99965625 Z M6.6465,0.146247715 C6.8415,-0.0487492383 7.1585,-0.0487492383 7.3535,0.146247715 L7.3535,0.146247715 L10.3535,3.14620084 C10.5485,3.34119779 10.5485,3.65819284 10.3535,3.85318979 C10.2555,3.95118826 10.1275,3.99918751 9.9995,3.99918751 C9.8725,3.99918751 9.7445,3.95118826 9.6465,3.85318979 L9.6465,3.85318979 L7.4995,1.70722332 L7.4995,10.4990859 C7.4995,10.7760816 7.2765,10.9990781 6.9995,10.9990781 C6.7235,10.9990781 6.4995,10.7760816 6.4995,10.4990859 L6.4995,10.4990859 L6.4995,1.70722332 L4.3535,3.85318979 C4.1585,4.04818675 3.8415,4.04818675 3.6465,3.85318979 C3.4515,3.65819284 3.4515,3.34119779 3.6465,3.14620084 L3.6465,3.14620084 Z"></path>
            </g>
        </g>
    </g>
</svg>