<?xml version="1.0" encoding="UTF-8"?>
<svg width="16px" height="10px" viewBox="0 0 16 10" version="1.1" xmlns="http://www.w3.org/2000/svg" xmlns:xlink="http://www.w3.org/1999/xlink">
    <title>B1404C57-ACF9-48A9-97E2-7DBBFBBAAC4F</title>
    <g id="02-Style-Guide" stroke="none" strokeWidth="1" fill="none" fillRule="evenodd">
        <g id="04-Icons-&amp;-UI-Elements" transform="translate(-1350.000000, -1333.000000)" fill="#000000">
            <g id="Icon-/-Password-/-Show" transform="translate(1350.000000, 1333.000000)">
                <path d="M8,0 C11.109,0 13.927,1.91 16,5 C13.927,8.09 11.111,10 8,10 C4.891,10 2.073,8.09 0,5 C2.073,1.91 4.891,0 8,0 Z M8,1 C5.521,1 3.134,2.415 1.223,5 C3.134,7.585 5.521,9 8,9 C10.479,9 12.866,7.585 14.777,5 C12.866,2.415 10.479,1 8,1 Z M8,3 C9.105,3 10,3.895 10,5 C10,6.105 9.105,7 8,7 C6.895,7 6,6.105 6,5 C6,3.895 6.895,3 8,3 Z"></path>
            </g>
        </g>
    </g>
</svg>