<svg viewBox="0 0 16 12" version="1.1" xmlns="http://www.w3.org/2000/svg" xmlns:xlink="http://www.w3.org/1999/xlink">    
    <g id="01-Design" stroke="none" stroke-width="1" fill="none" fill-rule="evenodd">
        <g id="06-[375]-PDP-—-Video-Player-Fulscreen-—-Volume-Muted" transform="translate(-307.000000, -480.000000)" fill="#FFFFFF">
            <g id="Player" transform="translate(20.000000, 477.000000)">
                <g id="Icon-/-Volume-/-Muted" transform="translate(287.000000, 3.000000)">
                    <path d="M8.424,0 C8.718,0 9,0.226 9,0.567 L9,0.567 L9,11.432 C9,11.773 8.718,12 8.424,12 C8.283,12 8.14,11.948 8.023,11.832 L8.023,11.832 L4,9 L1.144,9 C0.512,9 0,8.492 0,7.866 L0,7.866 L0,4.133 C0,3.507 0.512,3 1.144,3 L1.144,3 L4,3 L8.023,0.167 C8.14,0.051 8.283,0 8.424,0 Z M8,1.406 L4.576,3.817 L4.317,4 L1.144,4 C1.065,4 1,4.059 1,4.133 L1,4.133 L1,7.866 C1,7.94 1.065,8 1.144,8 L1.144,8 L4.317,8 L4.576,8.182 L8,10.593 L8,1.406 Z M11.6113,3.8791 C11.8063,3.6831 12.1223,3.6831 12.3183,3.8791 L12.3183,3.8791 L13.7323,5.2931 L15.1463,3.8791 C15.3413,3.6831 15.6583,3.6831 15.8533,3.8791 C16.0483,4.0741 16.0483,4.3911 15.8533,4.5861 L15.8533,4.5861 L14.4393,6.0001 L15.8533,7.4141 C16.0483,7.6091 16.0483,7.9261 15.8533,8.1211 C15.6583,8.3171 15.3413,8.3171 15.1463,8.1211 L15.1463,8.1211 L13.7323,6.7071 L12.3183,8.1211 C12.1223,8.3171 11.8063,8.3171 11.6113,8.1211 C11.4153,7.9261 11.4153,7.6091 11.6113,7.4141 L11.6113,7.4141 L13.0253,6.0001 L11.6113,4.5861 C11.4153,4.3911 11.4153,4.0741 11.6113,3.8791 Z"></path>
                </g>
            </g>
        </g>
    </g>
</svg>