<svg viewBox="0 0 44 44" version="1.1" xmlns="http://www.w3.org/2000/svg" xmlns:xlink="http://www.w3.org/1999/xlink">    
    <g id="01-Design" stroke="none" strokeWidth="1" fill="none" fillRule="evenodd">
        <g id="02-[1440]-PDP-—-Video-Player-Fulscreen-—-Play-Button" transform="translate(-698.000000, -383.000000)">
            <g id="Button-/-Round-/-Play" transform="translate(698.000000, 383.000000)">
                <circle id="Oval" fill="#FFFFFF" cx="22" cy="22" r="22"></circle>
                <g id="Icon-/-Play-/-Black" transform="translate(18.000000, 15.000000)" stroke="#000000">
                    <path d="M1.5,1.6115555 C1.67705464,1.6115555 1.85093497,1.6585639 2.00387103,1.7477766 L2.00387103,1.7477766 L9.52691874,6.1362211 C9.7654447,6.27536124 9.92499174,6.49801074 9.99012225,6.7455067 C10.0552528,6.99300266 10.0259668,7.26534507 9.88682662,7.50387103 C9.79990783,7.65287466 9.67592238,7.77686011 9.52691874,7.8637789 L9.52691874,7.8637789 L2.00387103,12.2522234 C1.76534507,12.3913635 1.49300266,12.4206496 1.2455067,12.355519 C0.998010744,12.2903885 0.775361241,12.1308415 0.636221099,11.8923155 C0.547008398,11.7393795 0.5,11.5654991 0.5,11.3884445 L0.5,11.3884445 L0.5,2.6115555 C0.5,2.33541312 0.611928813,2.08541312 0.792893219,1.90444872 C0.973857625,1.72348431 1.22385763,1.6115555 1.5,1.6115555 Z" id="Rectangle"></path>
                </g>
            </g>
        </g>
    </g>
</svg>