<?xml version="1.0" encoding="UTF-8"?>
<svg width="32px" height="10px" viewBox="0 0 32 10" version="1.1" xmlns="http://www.w3.org/2000/svg" xmlns:xlink="http://www.w3.org/1999/xlink">
    <title>C488AF08-4E9A-4C6D-BCB2-1CFB45594A9E</title>
    <g id="02-Style-Guide" stroke="none" stroke-width="1" fill="none" fill-rule="evenodd">
        <g id="04-Icons-&amp;-UI-Elements" transform="translate(-301.000000, -2301.000000)" fill-rule="nonzero">
            <g id="Visa-Color" transform="translate(301.000000, 2301.000000)">
                <path d="M11.3037947,9.88578215 L12.922157,0.198050181 L15.5107412,0.198050181 L13.891166,9.88578215 L11.3037947,9.88578215 L11.3037947,9.88578215 Z M23.243456,0.406888702 C22.7307166,0.210620082 21.9270417,0 20.9234912,0 C18.3655675,0 16.5639211,1.31395061 16.5484938,3.19710991 C16.5340853,4.58915227 17.8348297,5.36576434 18.8166947,5.82911862 C19.8243689,6.30410254 20.1630418,6.60686891 20.1581904,7.0308309 C20.1517381,7.68025932 19.3535453,7.97679022 18.609445,7.97679022 C17.5734389,7.97679022 17.0230045,7.82995991 16.1728537,7.46840204 L15.8391777,7.31444549 L15.475957,9.48309992 C16.0805809,9.75364973 17.1985749,9.987826 18.3595033,10 C21.0806264,10 22.8471006,8.70104419 22.8671852,6.69000841 C22.8768393,5.58791508 22.1872197,4.74934429 20.6937311,4.05785124 C19.7889541,3.60968971 19.2348327,3.31063493 19.2407028,2.85683179 C19.2407028,2.45414955 19.7097315,2.02355619 20.7232759,2.02355619 C21.5696427,2.010145 22.1829505,2.19844608 22.6607116,2.3947147 L22.8926548,2.50650765 L23.243456,0.406888702 M29.9048468,0.197901717 L27.9046346,0.197901717 C27.2850199,0.197901717 26.8212307,0.370416192 26.5491669,1.00128668 L22.7047134,9.87939823 L25.4229742,9.87939823 C25.4229742,9.87939823 25.8673095,8.68570297 25.9678295,8.42356609 C26.2648777,8.42356609 28.9055654,8.42772307 29.2830491,8.42772307 C29.3604766,8.76691246 29.5979988,9.87939823 29.5979988,9.87939823 L32,9.87939823 L29.9048468,0.19760479 L29.9048468,0.197901717 Z M26.7312382,6.45365467 C26.9453768,5.89548176 27.7626355,3.74548424 27.7626355,3.74548424 C27.7474023,3.77126738 27.9751732,3.1845895 28.1058201,2.82085416 L28.2807598,3.65610927 C28.2807598,3.65610927 28.7764224,5.96862473 28.8800473,6.45350621 L26.7312382,6.45350621 L26.7312382,6.45365467 L26.7312382,6.45365467 Z M9.10627795,0.197901717 L6.57198041,6.80452319 L6.3020027,5.46196862 C5.83016025,3.91428713 4.36024924,2.23749196 2.71695093,1.39803039 L5.03429602,9.87034196 L7.77312654,9.86722423 L11.8484559,0.197753254 L9.10627795,0.197753254" id="Shape" fill="#0E4595"></path>
                <path d="M4.20723761,0.197555303 L0.0330862176,0.197555303 L0,0.399119117 C3.24744622,1.20101945 5.39615834,3.13891226 6.28832189,5.46765972 L5.38068252,1.01573712 C5.22403238,0.402286336 4.76955777,0.219181472 4.20733464,0.197802742" id="Path" fill="#F2AE14"></path>
            </g>
        </g>
    </g>
</svg>