<?xml version="1.0" encoding="UTF-8"?>
<svg width="14px" height="16px" viewBox="0 0 14 16" version="1.1" xmlns="http://www.w3.org/2000/svg">
    <title>Icon / Wishlist</title>
    <g id="Icon-/-Wishlist" stroke="none" strokeWidth="1" fill="none" fillRule="evenodd">
        <path d="M7,14.9779 C6.511,14.9779 6.302,14.7289 5.843,13.8619 C5.544,13.3129 5.215,12.6849 4.597,12.3259 C4.089,12.0169 3.52,11.9779 3.032,11.9779 L2.324,11.9869 C1.626,11.9869 1.367,11.8879 1.158,11.4989 C0.878,11.0109 1.038,10.6619 1.506,9.8539 C1.825,9.3259 2.184,8.7179 2.184,7.9999 C2.184,7.2819 1.825,6.6739 1.506,6.1459 C1.038,5.3389 0.878,4.9899 1.158,4.5009 C1.367,4.1119 1.626,4.0129 2.324,4.0129 L3.032,4.0229 C3.52,4.0229 4.089,3.9829 4.597,3.6739 C5.215,3.3149 5.544,2.6869 5.843,2.1389 C6.302,1.2719 6.511,1.0219 7,1.0219 C7.489,1.0219 7.698,1.2719 8.157,2.1389 C8.456,2.6869 8.785,3.3149 9.403,3.6739 C9.911,3.9829 10.48,4.0229 10.968,4.0229 L11.676,4.0129 C12.374,4.0129 12.633,4.1119 12.842,4.5009 C13.122,4.9899 12.962,5.3389 12.494,6.1459 C12.175,6.6739 11.816,7.2819 11.816,7.9999 C11.816,8.7179 12.175,9.3259 12.494,9.8539 C12.962,10.6619 13.122,11.0109 12.842,11.4989 C12.633,11.8879 12.374,11.9869 11.676,11.9869 L10.968,11.9779 C10.48,11.9779 9.911,12.0169 9.403,12.3259 C8.785,12.6849 8.456,13.3129 8.157,13.8619 C7.698,14.7289 7.489,14.9779 7,14.9779 M12.838,7.9999 C12.838,7.5599 13.096,7.1239 13.369,6.6629 C13.817,5.9069 14.323,5.0509 13.732,4.0009 C13.147,2.9489 12.171,2.9689 11.309,2.9899 C10.787,2.9989 10.294,3.0129 9.924,2.7949 C9.554,2.5769 9.314,2.1289 9.061,1.6559 C8.646,0.8799 8.176,-0.0001 7,-0.0001 C5.824,-0.0001 5.354,0.8799 4.939,1.6559 C4.686,2.1289 4.446,2.5769 4.076,2.7949 C3.706,3.0129 3.213,2.9989 2.691,2.9899 C1.833,2.9679 0.854,2.9489 0.268,3.9999 C-0.323,5.0509 0.183,5.9069 0.631,6.6629 C0.904,7.1239 1.162,7.5599 1.162,7.9999 C1.162,8.4399 0.904,8.8759 0.631,9.3379 C0.183,10.0929 -0.323,10.9499 0.268,11.9989 C0.774,12.9079 1.572,13.0159 2.334,13.0159 C2.454,13.0159 2.574,13.0139 2.691,13.0109 C3.213,13.0029 3.707,12.9879 4.076,13.2049 C4.446,13.4229 4.686,13.8709 4.939,14.3439 C5.354,15.1199 5.824,15.9999 7,15.9999 C8.176,15.9999 8.646,15.1199 9.061,14.3439 C9.314,13.8709 9.554,13.4229 9.924,13.2049 C10.293,12.9879 10.787,13.0029 11.309,13.0109 C12.17,13.0319 13.147,13.0509 13.732,11.9999 C14.323,10.9499 13.817,10.0929 13.369,9.3379 C13.096,8.8759 12.838,8.4399 12.838,7.9999" id="Fill" fill="#000000"></path>
    </g>
</svg>
