<?xml version="1.0" encoding="UTF-8"?>
<svg width="16px" height="15px" viewBox="0 0 16 15" version="1.1" xmlns="http://www.w3.org/2000/svg" xmlns:xlink="http://www.w3.org/1999/xlink">
    <title>Icon / Wishlist Update</title>
    <g id="Wishlist-Icon" stroke="none" strokeWidth="1" fill="none" fillRule="evenodd">
        <g id="01-[1440]-PDP-—-Wishlist-Icon-Update" transform="translate(-1323.000000, -15.000000)" fill="#000000" fillRule="nonzero">
            <g id="Wishlist" transform="translate(1295.000000, 0.000000)">
                <g id="Icon-/-Wishlist-Update" transform="translate(28.000000, 15.000000)">
                    <path d="M11.7647059,0 C14.0775702,0 15.8873783,1.57853668 15.9949398,3.77729914 L16,3.98522095 L15.9949176,4.2888027 C15.9846141,4.58973967 15.9582306,4.88337631 15.91202,5.17541906 L15.8590615,5.46714188 L15.7920522,5.7590702 L15.7101593,6.05247214 L15.6633712,6.200122 L15.61255,6.34861579 L15.4983918,6.64876925 C15.4302193,6.81686984 15.3539998,6.98741391 15.2690905,7.16137992 L15.1351292,7.42501772 L14.9564914,7.74919179 L14.7575574,8.08308213 L14.4790794,8.5160404 L14.0990372,9.06173284 L13.742203,9.54116803 L13.5888592,9.73982823 L13.1780634,10.2550811 L12.7267718,10.79889 L12.3354886,11.256162 L11.9164145,11.7345631 L11.4687167,12.2353615 L10.9915626,12.7598252 L10.4841192,13.3092224 L9.66434058,14.1828423 C9.20999744,14.662929 8.73605112,14.9412375 8.16868736,14.9916662 L7.97600495,15 L7.79850421,14.9903203 C7.25113348,14.9339661 6.78524276,14.6578995 6.33560432,14.1827841 L6.05439381,13.884766 L5.25827717,13.0312816 L4.53124694,12.2353231 L4.08355361,11.7345294 L3.66448357,11.2561326 L3.08772561,10.5777575 L2.65283144,10.0456724 L2.25778197,9.54115217 L1.9009508,9.06172015 L1.52091158,8.51603091 L1.24243574,8.08307485 L1.0435031,7.74918602 L0.864866589,7.42501322 C0.771107692,7.24738129 0.686359637,7.07366045 0.609979897,6.90287224 L0.501606207,6.64876709 L0.387448533,6.34861427 L0.336627584,6.20012075 L0.289839774,6.05247113 L0.207947216,5.75906956 L0.140938141,5.46714151 C0.041196635,4.98111818 0,4.49595078 0,3.98522095 C0,1.67873676 1.85015283,0 4.23529412,0 C5.23500811,0 6.18211528,0.327836795 6.93482266,0.91417681 L7.11886746,1.06610717 L7.20983146,1.14990461 C7.44932461,1.34791634 7.64915721,1.47123512 7.80607743,1.51908297 L7.88094646,1.53671405 L8,1.54720343 C8.18585966,1.54720343 8.3981595,1.45000016 8.64002242,1.27038855 L8.76343193,1.17378387 L8.88139412,1.06587829 C9.66039885,0.384752906 10.6816824,0 11.7647059,0 Z M11.7647059,1 C11.0056193,1 10.2845531,1.24225203 9.72067678,1.66992863 L9.55634876,1.80373751 L9.39786167,1.9467644 C8.98339785,2.28693879 8.59162313,2.49677967 8.10106196,2.53650105 L7.91223364,2.54334451 L7.72386714,2.52430004 C7.38632315,2.47061238 7.0680128,2.30493484 6.69548119,2.01653494 L6.53229097,1.88539008 L6.46063852,1.81892499 C5.85930572,1.29314752 5.07032605,1 4.23529412,1 C2.36379144,1 1,2.26933274 1,3.98522095 C1,4.3580289 1.02457398,4.69799389 1.07392711,5.01234565 L1.11559124,5.24341994 L1.17113242,5.49023084 L1.24654724,5.76141988 L1.32212908,5.9931255 L1.42830069,6.27295152 C1.48824688,6.42076819 1.5555069,6.57111142 1.62808541,6.72019025 L1.74069265,6.94238632 L1.91089391,7.25155847 L2.08543574,7.54516128 L2.29778079,7.87812839 L2.40131118,8.03339614 L2.64768462,8.38728111 L2.76996635,8.55655758 L3.04653034,8.92643596 L3.50963127,9.51547281 L4.03300607,10.14871 L4.41669172,10.597207 L4.82907983,11.0680531 L5.26960056,11.5609093 L5.98953276,12.3491781 L7.06191632,13.4954189 C7.33366312,13.7825632 7.56383919,13.9286865 7.76733445,13.9769736 L7.8529566,13.9918039 L7.9769106,14 C8.27519738,14.0002706 8.52871067,13.8908313 8.82277737,13.6114256 L8.93511997,13.4985636 L9.74952073,12.6307203 L10.2518815,12.0868675 L10.7231907,11.568885 L11.1642066,11.0756373 L11.5756869,10.6060071 L11.9583915,10.1588965 L12.480172,9.52810343 L12.9415748,8.94200655 L13.2236529,8.56517596 L13.3453618,8.39713422 L13.6944948,7.89004232 L13.9693531,7.4550521 L14.080666,7.26656385 L14.2507629,6.95822411 C14.3338555,6.80080056 14.4088313,6.6472547 14.4738593,6.50270858 L14.5637116,6.29327948 L14.6701475,6.01413483 L14.7469743,5.78363266 L14.8173992,5.53534803 L14.8794765,5.2661113 C14.9235414,5.05139128 14.954968,4.83265081 14.974526,4.60969151 L14.9950577,4.27206365 L15,3.98522095 C15,2.26933274 13.6362086,1 11.7647059,1 Z" id="Path"></path>
                </g>
            </g>
        </g>
    </g>
</svg>