<?xml version="1.0" encoding="UTF-8"?>
<svg width="16px" height="15px" viewBox="0 0 16 15" version="1.1" xmlns="http://www.w3.org/2000/svg" xmlns:xlink="http://www.w3.org/1999/xlink">
    <title>Icon / Wishlist Update</title>
    <g id="Wishlist-Icon" stroke="none" strokeWidth="1" fill="none" fillRule="evenodd">
        <g id="01-[1440]-PDP-—-Wishlist-Icon-Update" transform="translate(-1323.000000, -15.000000)" fill="#000000" fillRule="nonzero">
            <g id="Wishlist" transform="translate(1295.000000, 0.000000)">
                <g id="Icon-/-Wishlist-Update" transform="translate(28.000000, 15.000000)">
                    <path d="M 11.7647 0 C 14.0776 0 15.8874 1.5785 15.9949 3.7773 L 16 3.9852 L 15.9949 4.2888 C 15.9846 4.5897 15.9582 4.8834 15.912 5.1754 L 15.8591 5.4671 L 15.7921 5.7591 L 15.7102 6.0525 L 15.6634 6.2001 L 15.6126 6.3486 L 15.4984 6.6488 C 15.4302 6.8169 15.354 6.9874 15.2691 7.1614 L 15.1351 7.425 L 14.9565 7.7492 L 14.7576 8.0831 L 14.4791 8.516 L 14.099 9.0617 L 13.7422 9.5412 L 13.5889 9.7398 L 13.1781 10.2551 L 12.7268 10.7989 L 12.3355 11.2562 L 11.9164 11.7346 L 11.4687 12.2354 L 10.9916 12.7598 L 10.4841 13.3092 L 9.6643 14.1828 C 9.21 14.6629 8.7361 14.9412 8.1687 14.9917 L 7.976 15 L 7.7985 14.9903 C 7.2511 14.934 6.7852 14.6579 6.3356 14.1828 L 6.0544 13.8848 L 5.2583 13.0313 L 4.5312 12.2353 L 4.0836 11.7345 L 3.6645 11.2561 L 3.0877 10.5778 L 2.6528 10.0457 L 2.2578 9.5412 L 1.901 9.0617 L 1.5209 8.516 L 1.2424 8.0831 L 1.0435 7.7492 L 0.8649 7.425 C 0.7711 7.2474 0.6864 7.0737 0.61 6.9029 L 0.5016 6.6488 L 0.3874 6.3486 L 0.3366 6.2001 L 0.2898 6.0525 L 0.2079 5.7591 L 0.1409 5.4671 C 0.0412 4.9811 0 4.496 0 3.9852 C 0 1.6787 1.8502 0 4.2353 0 C 5.235 0 6.1821 0.3278 6.9348 0.9142 L 7.1189 1.0661 L 7.2098 1.1499 C 7.4493 1.3479 7.6492 1.4712 7.8061 1.5191 L 7.8809 1.5367 L 8 1.5472 C 8.1859 1.5472 8.3982 1.45 8.64 1.2704 L 8.7634 1.1738 L 8.8814 1.0659 C 9.6604 0.3848 10.6817 0 11.7647 0 Z Z" id="Path"></path>
                </g>
            </g>
        </g>
    </g>
</svg>